/* XPM */
static char *out[] = {
/* columns rows colors chars-per-pixel */
"51 55 217 2 ",
"   c #CA8636",
".  c #CD8B36",
"X  c #CD8C3A",
"o  c #D4853B",
"O  c #D5893A",
"+  c #D38C3C",
"@  c #CD933B",
"#  c #CD9B3B",
"$  c #D3933D",
"%  c #D8903E",
"&  c #D29B3D",
"*  c #CFA13F",
"=  c #DA8641",
"-  c #D48D41",
";  c #DC8B43",
":  c #CF9B4D",
">  c #D59443",
",  c #DC9545",
"<  c #D59A43",
"1  c #DA9B45",
"2  c #D39449",
"3  c #DD964C",
"4  c #D59D4B",
"5  c #DB9B4C",
"6  c #DD9B53",
"7  c #D99854",
"8  c #E18B43",
"9  c #E4954D",
"0  c #EA934E",
"q  c #E19B4D",
"w  c #E39955",
"e  c #D6A146",
"r  c #DAA246",
"t  c #D5A44E",
"y  c #DBA44D",
"u  c #DCAB4D",
"i  c #DFB34C",
"p  c #DFBC4E",
"a  c #CBA753",
"s  c #CDA55D",
"d  c #CBA95D",
"f  c #D6A654",
"g  c #DBA654",
"h  c #D6AA53",
"j  c #DBAA54",
"k  c #D5A65C",
"l  c #DAA65A",
"z  c #D5A95C",
"x  c #DBAA5A",
"c  c #CCB05F",
"v  c #DDB353",
"b  c #DCBC54",
"n  c #DCB25A",
"m  c #DDBC5E",
"M  c #E2A24A",
"N  c #E2AC4E",
"B  c #E2B34E",
"V  c #E4BD4A",
"C  c #E9BF4F",
"Z  c #E4A855",
"A  c #E3AC54",
"S  c #E1AA5A",
"D  c #F1AF59",
"F  c #E4B454",
"G  c #EAB455",
"H  c #E4BC53",
"J  c #EBBD55",
"K  c #E4B35B",
"L  c #EAB65B",
"P  c #E4BC5B",
"I  c #EBBC5C",
"U  c #F2B05A",
"Y  c #F0BA5B",
"T  c #C6A362",
"R  c #CDA463",
"E  c #CDAA63",
"W  c #C3A46D",
"Q  c #C6AB6C",
"!  c #CDAB6B",
"~  c #D3A664",
"^  c #DAA562",
"/  c #D4AA62",
"(  c #D9AD66",
")  c #D3AA6C",
"_  c #CAB169",
"`  c #D7BB65",
"'  c #D3B66C",
"]  c #CCAD73",
"[  c #C8AB7A",
"{  c #D1AD71",
"}  c #D3AD7E",
"|  c #C7B174",
" . c #CCB172",
".. c #CDB27E",
"X. c #D5B976",
"o. c #E0AA60",
"O. c #E4B866",
"+. c #E4BD64",
"@. c #ECBD63",
"#. c #F3BC62",
"$. c #F4B46D",
"%. c #DEC244",
"&. c #DDC54D",
"*. c #DEC552",
"=. c #DDC35D",
"-. c #DDD05E",
";. c #E5C446",
":. c #E4C44C",
">. c #EAC24C",
",. c #E3C84D",
"<. c #E4C452",
"1. c #EAC353",
"2. c #E4CA54",
"3. c #EBCA55",
"4. c #E4C35C",
"5. c #ECC45B",
"6. c #E4CD5C",
"7. c #ECCB5C",
"8. c #F1C953",
"9. c #F2C45A",
"0. c #F1CB5F",
"q. c #E5D35D",
"w. c #EBD25D",
"e. c #DDC363",
"r. c #DBC26A",
"t. c #DFD460",
"y. c #D9C471",
"u. c #D2C17E",
"i. c #E5C463",
"p. c #EAC462",
"a. c #E5CD62",
"s. c #ECCC62",
"d. c #E2C36A",
"f. c #EBC469",
"g. c #ECCB6A",
"h. c #F4C464",
"j. c #F3CA64",
"k. c #F5C769",
"l. c #FBC66A",
"z. c #F4CD6B",
"x. c #F9CF6D",
"c. c #E5D464",
"v. c #EBD365",
"b. c #E6D967",
"n. c #EAD867",
"m. c #E5D56B",
"M. c #ECD56C",
"N. c #E6D96B",
"B. c #ECD96B",
"V. c #F1D164",
"C. c #F2D46C",
"Z. c #FAD26E",
"A. c #F3D96C",
"S. c #E8C671",
"D. c #E5CC74",
"F. c #E3CB79",
"G. c #F1C471",
"H. c #F2CC74",
"J. c #FACB71",
"K. c #F5CF7A",
"L. c #E7D370",
"P. c #ECD572",
"I. c #ECD971",
"U. c #F2D472",
"Y. c #FAD372",
"T. c #F3D973",
"R. c #F9D977",
"E. c #F4D57B",
"W. c #3C7EE4",
"Q. c #5B8FDE",
"!. c #5D91DE",
"~. c #6294DE",
"^. c #6D9ADC",
"/. c #749CD5",
"(. c #749ED9",
"). c #7FA3CF",
"_. c #7DA1D2",
"`. c #4383E4",
"'. c #4B87E3",
"]. c #4D89E2",
"[. c #528BE2",
"{. c #5C90E0",
"}. c #6495E1",
"|. c #ADA89B",
" X c #B8B49A",
".X c #9EADB9",
"XX c #98B0BC",
"oX c #ADB4AE",
"OX c #B4B7A8",
"+X c #B8B6AE",
"@X c #A6ADB6",
"#X c #A3ACBA",
"$X c #A7B0B5",
"%X c #ADB9B9",
"&X c #B5B8B1",
"*X c #B2B4BC",
"=X c #C7AF86",
"-X c #C7B48D",
";X c #C8B589",
":X c #C6B697",
">X c #C3B7A5",
",X c #BDC1B3",
"<X c #CCC48D",
"1X c #D2C08B",
"2X c #CAC293",
"3X c #CDC49B",
"4X c #FFCE85",
"5X c #FDD283",
"6X c #C4C3AA",
"7X c #89A5CA",
"8X c #92A9C5",
"9X c #9AACC2",
"0X c #93AAC9",
"qX c #9BB1C4",
"wX c #85A4D4",
"eX c #89A5D1",
"rX c #A2AEC5",
/* pixels */
"W.W.W.W.W.W.W.W.W.W.W.W.W.W.W.W.W.W.W.W.W.W.W.W.W.W.W.W.W.W.W.W.W.W.W.W.W.W.W.W.W.W.W.W.W.W.W.W.W.W.W.",
"W.W.W.W.W.W.W.W.W.W.W.W.W.W.W.W.W.W.W.W.W.W.W.W.W.W.W.W.W.`.W.W.W.W.W.W.W.W.W.W.W.W.W.W.W.W.W.W.W.W.W.",
"W.W.W.W.W.W.W.W.W.W.W.W.W.W.W.W.W.W.`.~.0X@X$X$X$XoXoX&X6X6X,X,X7X!.`.W.W.W.W.W.W.W.W.W.W.W.W.W.W.W.W.",
"W.W.W.W.W.W.W.W.W.W.W.W.W.W.W.W.W./.>X} ] ! E T d ' D.y.F.F.r.e.r.u.&X~.W.W.W.W.W.W.W.W.W.W.W.W.W.W.W.",
"W.W.W.W.W.W.W.W.W.W.W.W.W.W.W.`.9X! s s z z f j +.C.M.I.I.B.V.s.7.s.d.1XqX`.W.W.W.W.W.W.W.W.W.W.W.W.W.",
"W.W.W.W.W.W.W.W.W.W.W.W.W.W.`.*X] a x j g t u p.Z.Y.M.A.B.v.w.w.3.3.<.` y.%X`.W.W.W.W.W.W.W.W.W.W.W.W.",
"W.W.W.W.W.W.W.W.W.W.W.W.W.W.*X[ 7 o.g g g S f.Y.Y.m.M.M.v.v.V.V.v.0.8.3.*.e.XXW.W.W.W.W.W.W.W.W.W.W.W.",
"W.W.W.W.W.W.W.W.W.W.W.W.W.eX} R ( g S t h +.U.P.M.T.P.A.A.A.n.n.c.7.w.8.>.b D.wXW.W.W.W.W.W.W.W.W.W.W.",
"W.W.W.W.W.W.W.W.W.W.W.W.].:X~ ^ S 6 g f m H.P.I.N.M.I.I.M.A.c.n.c.-.w.w.8.C +.1X!.W.W.W.W.W.W.W.W.W.W.",
"W.W.W.W.W.W.W.W.W.W.W.W.*X) k l S g h j i.P.P.n.b.N.L.I.m.C.n.B.c.c.6.2.8.9.P d.&X`.W.W.W.W.W.W.W.W.W.",
"W.W.W.W.W.W.W.W.W.W.W.}...d h u g g h i.g.I.I.m.b.B.m.R.T.U.Z.T.n.m.q.6.8.j.P +.r./.W.W.W.W.W.W.W.W.W.",
"W.W.W.W.W.W.W.W.W.W.W.*XQ z u y M l h p.T.I.n.M.v.A.A.M.+.K K K 4.s.q.w.7.7.<.4.&.<X`.W.W.W.W.W.W.W.W.",
"W.W.W.W.W.W.W.W.W.W.]...c h y u y h m g.I.n.M.A.Z.x.h.u 5 w 6 7 y u p w.c.*.6.&.&.e.^.W.W.W.W.W.W.W.W.",
"W.W.W.W.W.W.W.W.W.W.eXT d h g Z g h g.M.N.b.C.A.z.h.M 1 6 7 w 7 3 > & V w.2.6.&.2.=.%XW.W.W.W.W.W.W.W.",
"W.W.W.W.W.W.W.W.W.`.:Xd / l S S g n P.I.N.B.A.C.p.Z > q 7 2 7 w 0 9 O 1 P 7.7.2.:.i.2X].W.W.W.W.W.W.W.",
"W.W.W.W.W.W.W.W.W.[.| / ~ ^ 6 l f O.P.L.b.B.V.z.K > 9 9 7 o.4X$.9 0 o O y h.s.5.V 7.u.^.W.W.W.W.W.W.W.",
"W.W.W.W.W.W.W.W.W.wX) z z z l g t p.I.I.m.I.Y.@.5 3 9 9 7 ( 5XG.q 9 8 o > G k.<.>.3.=.&XW.W.W.W.W.W.W.",
"W.W.W.W.W.W.W.W.W.rX~ g l g f j h g.m.N.I.T.J.D 3 9 3 3 : S.5XH.y 9 8 o - q k.7.>.%.&.<X`.W.W.W.W.W.W.",
"W.W.W.W.W.W.W.W.`.>X~ l g x f j n P.I.N.T.g.#.4 2 q w 5 a E.D.E.j 1 O o o - K 0.,.;.&.u.].W.W.W.W.W.W.",
"W.W.W.W.W.W.W.W.{.-X~ x l h f h O.I.I.m.P.z.@.4 4 6 3 5 z 5XD.I.H 1 O % - X A 5.2.&.&.r./.W.W.W.W.W.W.",
"W.W.W.W.W.W.W.W.}.=Xz x l g g h P I.N.m.C.J.A y : 4 : 4 O.E.P.T.i.*   . X X y 5.,.,.:.r.qXW.W.W.W.W.W.",
"W.W.W.W.W.W.W.W._.[ / g x l j g i.P.I.M.Y.k.4 4 f z n O.K.U.P.U.V.p # @ - X < I 1.:.,.` qXW.W.W.W.W.W.",
"`.W.W.W.W.W.W.W.eXQ / x g g j h f.M.I.M.Y.#.< M H.E.E.E.E.U.Z.C.A.0.p.5.K t @ F 1.>.:.=.6XW.W.W.W.W.W.",
"].W.W.W.W.W.W.W.qXE z f f g j h g.M.N.M.Y.I 1 g K.E.P.E.U.U.U.V.V.c.7.j.J.S @ J 9.1.:.4.3X'.W.W.W.W.W.",
"].W.W.W.W.W.W.W..XE z z g l g j i.M.M.v.Z.L 1 1 k.E.P.D.P.Y.A.C.w.w.q.g.x.A   u h.V :.4.2X`.W.W.W.W.W.",
"].W.W.W.W.W.W.W.&X/ z l g f j j i.M.I.v.x.L 1 4 +.K.P.I.P.U.v.C.w.q.s.g.#.y X N 9.1.:.4.2XW.W.W.W.W.W.",
"'.W.W.W.W.W.W.W.+XE l l l j g j i.s.M.n.Z.G 1 < S +.U.U.P.M.B.n.q.q.s.h.M - - A H :.:.=.<X`.W.W.W.W.W.",
"'.W.W.W.W.W.W.W.+XR k l f l g j i.s.n.n.Z.G 1 1 4 x z.U.U.M.n.b.q.6.0.L > o + u <.2.:.=.<X`.W.W.W.W.W.",
"'.W.W.W.W.W.W.W.+XR ^ l f f g u P g.c.n.A.J 1 5 2 4 O.C.A.B.b.t.q.7.J M o o + N 1.<.<.=.2X`.W.W.W.W.W.",
"'.W.W.W.W.W.W.W.+X~ ^ l f g g u I p.6.c.C.P < q 9 3 F Z.M.M.m.t.c.7.L % o o . B <.:.p e.2X`.W.W.W.W.W.",
"'.W.W.W.W.W.W.W.#X) l x l g g y L a.a.c.v.4.r 1 9 9 N V.g.M.c.6.c.9.G O o + + G V <.<.e.2X`.W.W.W.W.W.",
"`.W.W.W.W.W.W.W.9X{ l x z g j h F 5.s.6.6.s.y , 9 3 j V.m.a.c.6.s.7.G @ + o > Y V >.<.a.oXW.W.W.W.W.W.",
"W.W.W.W.W.W.W.W.eX) l l x x f h K 5.c.w.7.s.e X ; O i w.c.6.s.7.6.7.J @ O + 1 J >.>.,.=.9XW.W.W.W.W.W.",
"W.W.W.W.W.W.W.W.(.] ^ g f z h h F J 5.7.7.s.v @ O O V 6.a.a.s.7.j.7.9.& . + N 1.V :.,.=._.W.W.W.W.W.W.",
"W.W.W.W.W.W.W.W.~.} l l l f z h n P 5.w.v.7.p.@ o % J 5.j.P u j h.j.h.r . + G 5.V ,.:.r.^.W.W.W.W.W.W.",
"W.W.W.W.W.W.W.W.'.-X~ Z l l x f g P <.7.7.7.s.r + % #.#.#.y X @ F h.l.r X , J 5.%.<.*.1X].W.W.W.W.W.W.",
"W.W.W.W.W.W.W.W.W.>Xk S l k x l f L 4.7.2.V.7.G < . U U M + = - , A #.& $ G J 1.;.*.=.2X`.W.W.W.W.W.W.",
"W.W.W.W.W.W.W.W.W.9XR x l l l l g K J 4.2.w.5.0.A X > , ; o = =   1 t @ r Y J :.,.&.` 8XW.W.W.W.W.W.W.",
"W.W.W.W.W.W.W.W.W.(.{ z 6 l l S f j P 2.2.2.3.V.5.y . . - = = o   X @ < B J C :.,.*.y._.W.W.W.W.W.W.W.",
"W.W.W.W.W.W.W.W.W.[.=X~ f l S l g f P 4.:.%.3.7.j.I e . + o o ; + X # F 9.C >.>.,.=.;X].W.W.W.W.W.W.W.",
"W.W.W.W.W.W.W.W.W.W.oX) k l l S g y u *.<.:.:.3.0.j.5.i & . . + 1 r B 9.>.V 1.:.&.e..XW.W.W.W.W.W.W.W.",
"W.W.W.W.W.W.W.W.W.W.wX{ R k S g S g h H <.,.:.:.3.5.v.5.J G G F L J J :.>.:.1.H a.' ^.W.W.W.W.W.W.W.W.",
"W.W.W.W.W.W.W.W.W.W.[.:XT / Z 4 S g h v <.<.:.:.<.<.2.6.5.9.J J 1.5.3.;.;.>.5.P d. XW.W.W.W.W.W.W.W.W.",
"W.W.W.W.W.W.W.W.W.W.W.0XW / g j g f f j F <.<.:.&.&.&.:.<.>.<.<.:.<.>.;.:.:.P d.{ ).W.W.W.W.W.W.W.W.W.",
"W.W.W.W.W.W.W.W.W.W.W.[.-X) f g g l l x j H 1.<.:.&.,.&.>.>.:.<.<.:.:.>.:.<.+.' OX`.W.W.W.W.W.W.W.W.W.",
"W.W.W.W.W.W.W.W.W.W.W.W.0X! f y l l l k j j H <.<.<.<.,.>.>.:.,.&.:.,.;.,.4.O.[ ^.W.W.W.W.W.W.W.W.W.W.",
"W.W.W.W.W.W.W.W.W.W.W.W.[.-X/ t g l ^ ^ l A i V <.<.:.>.>.>.,.,.:.;.;.:.<.m X.#XW.W.W.W.W.W.W.W.W.W.W.",
"W.W.W.W.W.W.W.W.W.W.W.W.W./.{ z k ^ ^ ^ l y u F J 5.<.1.>.;.;.;.,.:.:.<.4.m |.'.W.W.W.W.W.W.W.W.W.W.W.",
"W.W.W.W.W.W.W.W.W.W.W.W.W.W.0X] T ( z f g M g M K I @.<.1.C ;.;.;.:.3.b c  XQ.W.W.W.W.W.W.W.W.W.W.W.W.",
"W.W.W.W.W.W.W.W.W.W.W.W.W.W.W.0X} T ~ f x S S f g g n v J 5.1.<.V H a _ OXQ.W.W.W.W.W.W.W.W.W.W.W.W.W.",
"W.W.W.W.W.W.W.W.W.W.W.W.W.W.W.W.wX:X{ E d d z a h n h j j v h n z Q -X7X'.W.W.W.W.W.W.W.W.W.W.W.W.W.W.",
"W.W.W.W.W.W.W.W.W.W.W.W.W.W.W.W.W.!.8X:X[ Q _  .| |  . .] ! ] =X:X7X}.W.W.W.W.W.W.W.W.W.W.W.W.W.W.W.W.",
"W.W.W.W.W.W.W.W.W.W.W.W.W.W.W.W.W.W.W.].{.^.}.{.{.{.{.{.}.}.{.].W.W.W.W.W.W.W.W.W.W.W.W.W.W.W.W.W.W.W.",
"W.W.W.W.W.W.W.W.W.W.W.W.W.W.W.W.W.W.W.W.W.W.W.W.W.W.W.W.W.W.W.W.W.W.W.W.W.W.W.W.W.W.W.W.W.W.W.W.W.W.W.",
"W.W.W.W.W.W.W.W.W.W.W.W.W.W.W.W.W.W.W.W.W.W.W.W.W.W.W.W.W.W.W.W.W.W.W.W.W.W.W.W.W.W.W.W.W.W.W.W.W.W.W."
};
