/* XPM */
static char *out[] = {
/* columns rows colors chars-per-pixel */
"51 55 180 2 ",
"   c #CA8A37",
".  c #C58D3A",
"X  c #CB8D3C",
"o  c #D08F3F",
"O  c #C7933D",
"+  c #CC953C",
"@  c #CA9C3F",
"#  c #D29B3F",
"$  c #D18F41",
"%  c #CE9644",
"&  c #CD9C42",
"*  c #D29443",
"=  c #D19E42",
"-  c #D49E4A",
";  c #DA9E4B",
":  c #CEA344",
">  c #CFA149",
",  c #D2A443",
"<  c #DAA547",
"1  c #DCAC47",
"2  c #D5A34D",
"3  c #DBA44C",
"4  c #D4AA4C",
"5  c #DCAA4E",
"6  c #D0B04D",
"7  c #D9B04E",
"8  c #CDAD53",
"9  c #CEA75A",
"0  c #CDA95C",
"q  c #D6A654",
"w  c #DBA555",
"e  c #D5AA54",
"r  c #DBAA54",
"t  c #D4A65B",
"y  c #DBA55A",
"u  c #D5AA5B",
"i  c #DBA95A",
"p  c #D6B453",
"a  c #DCB355",
"s  c #DEBB54",
"d  c #DEB759",
"f  c #DCB95B",
"g  c #E0A74E",
"h  c #E0A94F",
"j  c #E3B24E",
"k  c #E4B84D",
"l  c #E1A753",
"z  c #E2AB55",
"x  c #E1A45A",
"c  c #E2AB59",
"v  c #E8A959",
"b  c #E3B354",
"n  c #E9B552",
"m  c #E3BD55",
"M  c #ECBC55",
"N  c #E4B55A",
"B  c #EAB15E",
"V  c #E4BD5C",
"C  c #EBBC5C",
"Z  c #F0BF58",
"A  c #CDA663",
"S  c #CDAA66",
"D  c #C4A36F",
"F  c #C6A86A",
"G  c #CCA96B",
"H  c #D2A662",
"J  c #DFA460",
"K  c #D3A963",
"L  c #D9AA61",
"P  c #D1AA6B",
"I  c #DAAA68",
"U  c #D7B06F",
"Y  c #DDBE6E",
"T  c #C6AD77",
"R  c #CCAD72",
"E  c #C6AB7C",
"W  c #CCAE7A",
"Q  c #D5BB71",
"!  c #DCBF79",
"~  c #E1A461",
"^  c #E4BD62",
"/  c #EABC63",
"(  c #EBBF68",
")  c #DDC64D",
"_  c #DDC94E",
"`  c #DAC351",
"'  c #DDC25D",
"]  c #DEC85B",
"[  c #E3C34E",
"{  c #E5C254",
"}  c #ECC453",
"|  c #E3C25D",
" . c #EBC45A",
".. c #E1C95F",
"X. c #E8CA58",
"o. c #F0C05A",
"O. c #EAD057",
"+. c #E9D05A",
"@. c #D7C360",
"#. c #DDC264",
"$. c #D2C370",
"%. c #DCC475",
"&. c #DFCB75",
"*. c #DAC57B",
"=. c #E4C363",
"-. c #EBC364",
";. c #E5CD61",
":. c #EAC964",
">. c #E3C36C",
",. c #ECC66A",
"<. c #E6CE6A",
"1. c #EDCB6A",
"2. c #F3C563",
"3. c #F3CB64",
"4. c #F2C768",
"5. c #F2CC6C",
"6. c #EED569",
"7. c #F3D567",
"8. c #F3D26E",
"9. c #E3C472",
"0. c #EACF74",
"q. c #F4CD73",
"w. c #F8CC75",
"e. c #F3D372",
"r. c #F9D276",
"t. c #F3D871",
"y. c #F9D877",
"u. c #F9D479",
"i. c #3C7EE4",
"p. c #3E80E4",
"a. c #5F90DF",
"s. c #6193DD",
"d. c #6E99DC",
"f. c #749DD5",
"g. c #719BDB",
"h. c #7DA2D3",
"j. c #4282E4",
"k. c #4E89E3",
"l. c #518AE3",
"z. c #5E92E1",
"x. c #BCB29D",
"c. c #9DAEB9",
"v. c #ADAFAD",
"b. c #B2AFAB",
"n. c #ACB3AF",
"m. c #B3B2A6",
"M. c #BCB4A4",
"N. c #A4ACB6",
"B. c #A8AEB2",
"V. c #A3AEBC",
"C. c #ACB3B5",
"Z. c #A1B6BC",
"A. c #ADB5B8",
"S. c #B2B1B1",
"D. c #B2BCB9",
"F. c #C5AE89",
"G. c #C8AF8C",
"H. c #CAB185",
"J. c #CEB982",
"K. c #C4B18D",
"L. c #C8B08C",
"P. c #C4B294",
"I. c #C1B299",
"U. c #C1B4A0",
"Y. c #CEC38E",
"T. c #D3C381",
"R. c #D7C78A",
"E. c #D4C989",
"W. c #C9C398",
"Q. c #C9C59D",
"!. c #C5C3A3",
"~. c #C6C3A8",
"^. c #C2C5BC",
"/. c #87A6CB",
"(. c #88A5C9",
"). c #95A7C2",
"_. c #93AAC5",
"`. c #93AACC",
"'. c #82A3D3",
"]. c #A0B7C5",
/* pixels */
"i.i.i.i.i.i.i.i.i.i.i.i.i.i.i.i.i.i.i.i.i.i.i.i.i.i.i.i.i.i.i.i.p.i.i.i.i.i.i.i.i.i.i.i.i.i.i.i.i.i.i.",
"i.i.i.i.i.i.i.i.i.i.i.i.i.i.i.i.i.i.i.i.i.i.i.i.i.i.p.p.i.i.i.i.p.p.i.i.i.i.i.i.i.i.i.i.i.i.i.i.i.i.i.",
"i.i.i.i.i.i.i.i.i.i.i.i.i.i.i.i.i.i.j._.A.C.B.S.S.S.v.n.n.C.D.^.h.j.p.p.i.i.i.i.i.i.i.i.i.i.i.i.i.i.i.",
"i.i.i.i.i.i.i.i.i.i.i.i.i.i.i.i.i.i.`.T F R G A K H t 9 9 S ! *.E.].p.p.i.i.i.i.i.i.i.i.i.i.i.i.i.i.i.",
"i.i.i.i.i.i.i.i.i.i.i.i.i.i.i.i.i.s.H.S u u t y x w r 5 4 ^ 0.0.&.E.l.p.i.i.i.i.i.i.i.i.i.i.i.i.i.i.i.",
"i.i.i.i.i.i.i.i.i.i.i.i.i.i.i.i.i._.F t q r w x v w 5 < 1  .8.t.<.@.Z.p.i.i.i.i.i.i.i.i.i.i.i.i.i.i.i.",
"i.i.i.i.i.i.i.i.i.i.i.i.i.i.i.i.j.M.K y w l x ~ J t u 4 a q.t.8.;.] E.p.i.i.i.i.i.i.i.i.i.i.i.i.i.i.i.",
"i.i.i.i.i.i.i.i.i.i.i.i.i.i.i.i.z.E K w l l y x H t u 4 d e.6.7.;.+.$.a.i.i.i.i.i.i.i.i.i.i.i.i.i.i.i.",
"i.i.i.i.i.i.i.i.i.i.i.i.i.i.i.i.d.R t c x y x q i 8 8 6 ;.0.t.6.7.O.' h.p.i.i.i.i.i.i.i.i.i.i.i.i.i.i.",
"i.i.i.i.i.i.i.i.i.i.i.i.i.i.i.i.`.S t y y y x w r 8 8 6 ;.e.t.8.7.O.' D.i.i.i.i.i.i.i.i.i.i.i.i.i.i.i.",
"i.i.i.i.i.i.i.i.i.i.i.i.i.i.i.i.V.0 q q y y y w r q e p 1.r.q.e.3.7.| Q.p.p.i.i.i.i.i.i.i.i.i.i.i.i.i.",
"i.i.i.i.i.i.i.i.i.i.i.i.i.i.i.j.m.0 u w w y y l l y e f 0.u.5./ C 3.:.Y.k.p.i.i.i.i.i.i.i.i.i.i.i.i.i.",
"i.i.i.i.i.i.i.i.i.i.i.i.i.i.i.k.x.0 i r w r q w x y e Y e.w./ 2 3 C 1.*.s.i.i.i.i.i.i.i.i.i.i.i.i.i.i.",
"i.i.i.i.i.i.i.i.i.i.i.i.i.i.i.s.S 0 y q w q r x x t u =.e.q.i % - r ,.9.f.i.i.i.i.i.i.i.i.i.i.i.i.i.i.",
"i.i.i.i.i.i.i.i.i.i.i.i.i.i.i.g.F I J y l q w r w y e ] 6.:.4 ; ; - ( >.(.i.i.i.i.i.i.i.i.i.i.i.i.i.i.",
"i.i.i.i.i.i.i.i.i.i.i.i.i.i.i.'.S I y y w q r w q q e ..7.-.= z l * / =.A.i.i.i.i.i.i.i.i.i.i.i.i.i.i.",
"i.i.i.i.i.i.i.i.i.i.i.i.i.i.i.(.A t i t y w w y l r r 1.y.B - N i * / ^ !.i.i.i.i.i.i.i.i.i.i.i.i.i.i.",
"i.i.i.i.i.i.i.i.i.i.i.i.i.i.i.c.H t i y y y q q r r r q.w.v * / b $ v N Q.i.i.i.i.i.i.i.i.i.i.i.i.i.i.",
"i.i.i.i.i.i.i.i.i.i.i.i.i.i.i.B.H u i t q w y y i 3 r 1.q.l ; -./ X w ^ R.j.p.i.i.i.i.i.i.i.i.i.i.i.i.",
"i.i.i.i.i.i.i.i.i.i.i.i.i.i.i.N.t L t i y w w w y w d q.4.w - ,.C . -  .T.j.i.i.i.i.i.i.i.i.i.i.i.i.i.",
"i.i.i.i.i.i.i.i.i.i.i.i.i.i.j.M.H u i i y q w y q q N r.,.> & 0.-.O & | *.l.i.i.i.i.i.i.i.i.i.i.i.i.i.",
"i.i.i.i.i.i.i.i.i.i.i.i.i.i.j.M.H i t y y q y y y 2 a w.,.e d q.4.2 & s *.l.i.i.i.i.i.i.i.i.i.i.i.i.i.",
"i.i.i.i.i.i.i.i.i.i.i.i.i.i.j.P.t K t y y w y x i q a 0.,.f r.e.5.V 4 s *.l.i.i.i.i.i.i.i.i.i.i.i.i.i.",
"i.i.i.i.i.i.i.i.i.i.i.i.i.i.j.K.t u q y y q w y c r f e.-.f y.8.8.4.5 m %.l.i.i.i.i.i.i.i.i.i.i.i.i.i.",
"i.i.i.i.i.i.i.i.i.i.i.i.i.i.j.K.t u t y y i y y i q f e.=.a t.8.8.5.p s *.l.i.i.i.i.i.i.i.i.i.i.i.i.i.",
"i.i.i.i.i.i.i.i.i.i.i.i.i.i.j.K.t y q y y w y x y 4 f 5.=.p 8.8.5.4.1 s *.l.i.i.i.i.i.i.i.i.i.i.i.i.i.",
"i.i.i.i.i.i.i.i.i.i.i.i.i.i.j.G.t y r y i y y y y 4 d 5.=.4 1.8.8. .: s &.l.i.i.i.i.i.i.i.i.i.i.i.i.i.",
"i.i.i.i.i.i.i.i.i.i.i.i.i.i.j.G.t i i y y i r x r w d 1.| , -.8.3.b @ s *.l.i.i.i.i.i.i.i.i.i.i.i.i.i.",
"i.i.i.i.i.i.i.i.i.i.i.i.i.i.j.G.t r y y y i w y w r a 1.V : C 8.4.r @ s T.k.i.i.i.i.i.i.i.i.i.i.i.i.i.",
"i.i.i.i.i.i.i.i.i.i.i.i.i.i.j.L.y t i y y i w y r 5 a 1.=.& n 8.3.h + m *.k.i.i.i.i.i.i.i.i.i.i.i.i.i.",
"i.i.i.i.i.i.i.i.i.i.i.i.i.i.j.K.t y q y i y r y q l 7 1.| & n 1.5.g + m T.l.i.i.i.i.i.i.i.i.i.i.i.i.i.",
"i.i.i.i.i.i.i.i.i.i.i.i.i.i.j.K.y q y y y y q y r l r 1.-.= N 5.4.g % | T.l.i.i.i.i.i.i.i.i.i.i.i.i.i.",
"i.i.i.i.i.i.i.i.i.i.i.i.i.i.i.I.q i y ~ J q q i w 3 5 | ' & r 3.3.z = ^ ! k.i.i.i.i.i.i.i.i.i.i.i.i.i.",
"i.i.i.i.i.i.i.i.i.i.i.i.i.i.j.x.t i w x ~ q q i w w z ..] & b 2./ z - ^ T.k.i.i.i.i.i.i.i.i.i.i.i.i.i.",
"i.i.i.i.i.i.i.i.i.i.i.i.i.i.i.M.q q y ~ J q r y q x 5 | :.: N C Z z q ^ R.j.i.i.i.i.i.i.i.i.i.i.i.i.i.",
"i.i.i.i.i.i.i.i.i.i.i.i.i.i.i.B.t w y x y y e t y x 2  .3.< N 3 v c r ^ !.j.i.i.i.i.i.i.i.i.i.i.i.i.i.",
"i.i.i.i.i.i.i.i.i.i.i.i.i.i.i.B.0 y w y y i r t y c 2 C 3.5 r # ; l r  .~.i.i.i.i.i.i.i.i.i.i.i.i.i.i.",
"i.i.i.i.i.i.i.i.i.i.i.i.i.i.i.).K e w y y i q y t y 3 C 2.a + o o = N ^ ~.i.i.i.i.i.i.i.i.i.i.i.i.i.i.",
"i.i.i.i.i.i.i.i.i.i.i.i.i.i.i.'.P i l y y i q t L y w M o. .+ o   # M ^ A.i.i.i.i.i.i.i.i.i.i.i.i.i.i.",
"i.i.i.i.i.i.i.i.i.i.i.i.i.i.i.'.R t r q y i q y L t q n Z 3., X   ,  .=./.i.i.i.i.i.i.i.i.i.i.i.i.i.i.",
"i.i.i.i.i.i.i.i.i.i.i.i.i.i.i.g.R u q u y q i i t t r j  . .m + & k { >.d.i.i.i.i.i.i.i.i.i.i.i.i.i.i.",
"i.i.i.i.i.i.i.i.i.i.i.i.i.i.i.l.K.K w r q w r t u u r j Z  . .n b } { 9.a.i.i.i.i.i.i.i.i.i.i.i.i.i.i.",
"i.i.i.i.i.i.i.i.i.i.i.i.i.i.i.l.I.t r t y y i e e u r 5 M  .{  .M } ` T.k.p.i.i.i.i.i.i.i.i.i.i.i.i.i.",
"i.i.i.i.i.i.i.i.i.i.i.i.i.i.i.i.b.A r q q i y y e u e 5 b { { { { [ ' W.j.i.i.i.i.i.i.i.i.i.i.i.i.i.i.",
"i.i.i.i.i.i.i.i.i.i.i.i.i.i.i.i.].A q r y i y y u q q r b m { ) [ [ | _.i.i.i.i.i.i.i.i.i.i.i.i.i.i.i.",
"i.i.i.i.i.i.i.i.i.i.i.i.i.i.i.i.`.P q u u J x y u e y q b  .{ _ _ [ Y h.i.i.i.i.i.i.i.i.i.i.i.i.i.i.i.",
"i.i.i.i.i.i.i.i.i.i.i.i.i.i.i.i.g.U e e q y x y y y y y z m { _ ) } Q d.i.i.i.i.i.i.i.i.i.i.i.i.i.i.i.",
"i.i.i.i.i.i.i.i.i.i.i.i.i.i.i.i.l.F.t u q y x y y y y w r m { X.) ..W j.i.i.i.i.i.i.i.i.i.i.i.i.i.i.i.",
"i.i.i.i.i.i.i.i.i.i.i.i.i.i.i.i.i.N.P J w w g x J J y l g j M ` #.Q c.i.i.i.i.i.i.i.i.i.i.i.i.i.i.i.i.",
"i.i.i.i.i.i.i.i.i.i.i.i.i.i.i.i.i.'.H.H y l l y y y y w 3 1 k -.#.J.d.i.i.i.i.i.i.i.i.i.i.i.i.i.i.i.i.",
"i.i.i.i.i.i.i.i.i.i.i.i.i.i.i.i.i.l.U.D P H t y q q y q 3 < r u G b.j.i.i.i.i.i.i.i.i.i.i.i.i.i.i.i.i.",
"i.i.i.i.i.i.i.i.i.i.i.i.i.i.i.i.i.i.f.P.E D G S S K P P G S F W P.z.i.i.i.i.i.i.i.i.i.i.i.i.i.i.i.i.i.",
"i.i.i.i.i.i.i.i.i.i.i.i.i.i.i.i.i.i.i.a.d.g.d.d.d.d.d.d.d.d.d.d.k.i.i.i.i.i.i.i.i.i.i.i.i.i.i.i.i.i.i.",
"i.i.i.i.i.i.i.i.i.i.i.i.i.i.i.i.i.i.i.i.i.i.i.i.i.i.i.i.i.i.i.i.i.i.i.i.i.i.i.i.i.i.i.i.i.i.i.i.i.i.i.",
"i.i.i.i.i.i.i.i.i.i.i.i.i.i.i.i.i.i.i.i.i.i.i.i.i.i.i.i.i.i.i.i.i.i.i.i.i.i.i.i.i.i.i.i.i.i.i.i.i.i.i."
};
