/* XPM */
static char *out[] = {
/* columns rows colors chars-per-pixel */
"51 55 229 2 ",
"   c #C6862F",
".  c #CE8634",
"X  c #C68C36",
"o  c #CC8B35",
"O  c #C9873B",
"+  c #CD8C3A",
"@  c #D18B36",
"#  c #D3853B",
"$  c #D38B3C",
"%  c #C79338",
"&  c #CC933A",
"*  c #D2923C",
"=  c #D59A3F",
"-  c #D5A13C",
";  c #E9C13D",
":  c #B49F6A",
">  c #B7A867",
",  c #BCAA77",
"<  c #BDB478",
"1  c #D48C40",
"2  c #DA8D42",
"3  c #CE9944",
"4  c #D49343",
"5  c #DA9444",
"6  c #D49B44",
"7  c #DC9A46",
"8  c #D6944A",
"9  c #DB954B",
"0  c #D49C4A",
"q  c #DB9B4A",
"w  c #D89756",
"e  c #D59952",
"r  c #DA9B52",
"t  c #DB9C5A",
"y  c #E1964C",
"u  c #E19B4D",
"i  c #E49C55",
"p  c #D5A244",
"a  c #D9A846",
"s  c #D4A44C",
"d  c #DBA44E",
"f  c #D6A94C",
"g  c #DBAA4D",
"h  c #D7B746",
"j  c #DEB14E",
"k  c #CDA557",
"l  c #D5A653",
"z  c #DBA553",
"x  c #D5AA54",
"c  c #DCAA54",
"v  c #D5A65B",
"b  c #D9A65B",
"n  c #D5A95C",
"m  c #DCAB5A",
"M  c #DCB253",
"N  c #D8B855",
"B  c #DFB45B",
"V  c #E1A94D",
"C  c #E4BE47",
"Z  c #E3B34E",
"A  c #E8B64C",
"S  c #E3BE4D",
"D  c #E2A453",
"F  c #E2AB53",
"G  c #E9A957",
"H  c #E2AD5A",
"J  c #E4B554",
"K  c #E9B454",
"L  c #E4BC53",
"P  c #EABD55",
"I  c #E3B55B",
"U  c #EAB35A",
"Y  c #E4BA5C",
"T  c #EBBB5B",
"R  c #F0BB5A",
"E  c #CDA564",
"W  c #CEAC63",
"Q  c #C8A56D",
"!  c #CDAB6A",
"~  c #D5A663",
"^  c #D9A562",
"/  c #D3AA63",
"(  c #DCA964",
")  c #D3A66B",
"_  c #D3AA6A",
"`  c #D9A96C",
"'  c #CCB568",
"]  c #D5B264",
"[  c #D7B767",
"{  c #C7A677",
"}  c #C5AB71",
"|  c #CBAA72",
" . c #C2AD7A",
".. c #D2A874",
"X. c #C9BA79",
"o. c #E3A964",
"O. c #F1AF63",
"+. c #EAB363",
"@. c #E4BB63",
"#. c #EBBC63",
"$. c #ECBF6E",
"%. c #F4BC67",
"&. c #DEC64C",
"*. c #CFC154",
"=. c #DBC354",
"-. c #DCC45C",
";. c #DCC958",
":. c #ECC443",
">. c #E6C449",
",. c #E3C34D",
"<. c #EAC44B",
"1. c #E3C94D",
"2. c #E5C353",
"3. c #EAC354",
"4. c #E3C952",
"5. c #EBCB56",
"6. c #E4C45A",
"7. c #ECC45B",
"8. c #E6CB5C",
"9. c #EBCB5C",
"0. c #F3CF53",
"q. c #F0CB56",
"w. c #F3C55D",
"e. c #F2CB5C",
"r. c #E5D357",
"t. c #E7D15F",
"y. c #EAD25E",
"u. c #D3C367",
"i. c #DBC264",
"p. c #DBCA66",
"a. c #DBC16C",
"s. c #CCC67B",
"d. c #D7C776",
"f. c #D4C27C",
"g. c #E3C363",
"h. c #EBC462",
"j. c #E5CC64",
"k. c #ECCD63",
"l. c #E3C569",
"z. c #E9C36A",
"x. c #ECCC6B",
"c. c #F4C364",
"v. c #F7C867",
"b. c #F2CC64",
"n. c #FBC36B",
"m. c #F4CD6C",
"M. c #F9CB6A",
"N. c #E6D262",
"B. c #ECD264",
"V. c #E5D669",
"C. c #ECD56C",
"Z. c #E7DB6D",
"A. c #EDD96C",
"S. c #F2D364",
"D. c #F3DB67",
"F. c #F3D36C",
"G. c #FAD46B",
"H. c #F2D96C",
"J. c #EDCB72",
"K. c #E1CA7C",
"L. c #F5CD72",
"P. c #F8C975",
"I. c #ECD472",
"U. c #E5DA72",
"Y. c #EED973",
"T. c #E7D67B",
"R. c #F3D472",
"E. c #FAD271",
"W. c #F2DB73",
"Q. c #F5D479",
"!. c #F9D479",
"~. c #F2DB7A",
"^. c #3C7EE4",
"/. c #457FD8",
"(. c #3F80E4",
"). c #578ACE",
"_. c #4882DA",
"`. c #4B84DA",
"'. c #5488D4",
"]. c #5B8BD3",
"[. c #5287D8",
"{. c #5186DA",
"}. c #658CCB",
"|. c #6A94CD",
" X c #7D9CC4",
".X c #769ACB",
"XX c #608DD1",
"oX c #6695D6",
"OX c #6A94D2",
"+X c #759AD0",
"@X c #78A2CD",
"#X c #4181E1",
"$X c #A09B90",
"%X c #B7A888",
"&X c #B0B08E",
"*X c #B6AD99",
"=X c #B7B695",
"-X c #879DBC",
";X c #9EB5AB",
":X c #8CA3B9",
">X c #8DA3BC",
",X c #95A2B6",
"<X c #92A4BC",
"1X c #9FB3BD",
"2X c #A7B0A7",
"3X c #BBB8AA",
"4X c #A6ABB6",
"5X c #A7B9BD",
"6X c #C1AB86",
"7X c #D3BF80",
"8X c #C5B794",
"9X c #C9B592",
"0X c #BAC396",
"qX c #BEC2AF",
"wX c #B6C4BD",
"eX c #CDC283",
"rX c #C7C789",
"tX c #D3C787",
"yX c #D5CA91",
"uX c #E1D281",
"iX c #FFD682",
"pX c #CCC5A6",
"aX c #859FC9",
"sX c #82A2C3",
"dX c #84A2CE",
"fX c #8BA9CA",
"gX c #95ADC8",
"hX c #97B2C7",
"jX c #97B5D2",
/* pixels */
"^.^.^.^.^.^.^.^.^.^.^.^.^.^.^.^.^.^.^.^.(.(.(.^.^.^.^.^.^.^.^.^.^.^.^.^.^.^.^.^.^.^.^.^.^.^.^.^.^.^.^.",
"^.^.^.^.^.^.^.^.^.^.^.^.^.^.^.^.^.^.^.^.(.(.(.^.^.^.^.(.^.^.^.^.^.^.^.^.^.^.^.^.^.^.^.^.^.^.^.^.^.^.^.",
"^.^.^.^.^.^.^.^.^.^.^.^.^.^.^.(.(.[.+XgX5XwXwX1X>X@X XOXOX`.^.^.^.^.^.^.^.^.^.^.^.^.^.^.^.^.^.^.^.^.^.",
"^.^.^.^.^.^.^.^.^.^.^.^.^.^.^.].hXqXyXs.d.uXuXtX7X< > , 6X8X4X+X^.^.^.^.^.^.^.^.^.^.^.^.^.^.^.^.^.^.^.",
"^.^.^.^.^.^.^.^.^.^.^.^.(.(.1XrXtXK.T.J.I.I.T.T.T.d.[ ' ! Q Q , *X.X(.^.^.^.^.^.^.^.^.^.^.^.^.^.^.^.^.",
"^.^.^.^.^.^.^.^.^.^.^.^.(.1Xs.p.j.j.j.k.F.F.Y.Y.Y.T.l.x l v @.` } =XfX^.^.^.^.^.^.^.^.^.^.^.^.^.^.^.^.",
"^.^.^.^.^.^.^.^.^.^.^.^.hXs.*.r.N.N.j.C.A.R.F.x.L.Q.Q.J.[ x s 3 k } *XdX^.^.^.^.^.^.^.^.^.^.^.^.^.^.^.",
"^.^.^.^.^.^.^.^.^.^.^.sXeXp.y.1.8.N.A.A.C.C.m.E.E.R.R.R.l.x f c B k Q *XoX^.^.^.^.^.^.^.^.^.^.^.^.^.^.",
"^.^.^.^.^.^.^.^.^.^.@XrXa.h.k.9.B.N.t.D.D.H.S.F.F.E.R.R.R.[ b m v n n } 3X^.^.^.^.^.^.^.^.^.^.^.^.^.^.",
"^.^.^.^.^.^.^.^.^.^.;Xu.z.w.b.9.6.S.D.S.y.S.S.D.B.C.A.I.J.J.@.v n l c n  .:X^.^.^.^.^.^.^.^.^.^.^.^.^.",
"^.^.^.^.^.^.^.^.(.fXs.=.w.e.e.e.9.G.G.F.F.R.Y.Z.Z.V.A.Y.J.R.z.k x x G m k =X/.^.^.^.^.^.^.^.^.^.^.^.^.",
"^.^.^.^.^.^.^.^.{.=Xp.2.,.e.e.e.b.7.Y m @.Y x.A.A.V.C.I.Q.I.j.N f g q r n  .gX^.^.^.^.^.^.^.^.^.^.^.^.",
"^.^.^.^.^.^.^.^.<Xu.6.<.5.0.e.3.j l t e t 0 F 3.e.S.F.F.R.W.t.8.- h l i b | 3X(.^.^.^.^.^.^.^.^.^.^.^.",
"^.^.^.^.^.^.^.[.=XN.,.<.D.9.T f & 6 w t w 9 q - 3.G.G.b.R.H.N.t.h f H o.e ..%X|.^.^.^.^.^.^.^.^.^.^.^.",
"^.^.^.^.^.^.^..XeX9.L 7.S.6.s & 7 5 r i w e r 6 V h.F.I.I.I.A.F.B x o.( t ` > :X^.^.^.^.^.^.^.^.^.^.^.",
"^.^.^.^.^.^./.5Xd.2.7.v.T T O O 2 2 O.iXo.t r e 0 l l.~.I.C.H.R.z.m b ^ o.k ' &X^.^.^.^.^.^.^.^.^.^.^.",
"^.^.^.^.^.^.|.9Xp.,.3.v.O.8 1 O 2 9 $.iX$.k e 8 r 8 @.Q.Y.U.A.F.x.c m b o.~ n , ^.^.^.^.^.^.^.^.^.^.^.",
"^.^.^.^.^./.,Xf.-.4.3.n.G # # # y u $.P.J.x e 9 i q z J.x.V.N.A.R.M z z ( ~ x } {.(.^.^.^.^.^.^.^.^.^.",
"^.^.^.^.^._.qXf.-.;.5.w.y # $ 1 4 d P.Q.iXm r 9 i y r #.R.Y.C.W.R.I c z b ~ c } OX^.^.^.^.^.^.^.^.^.^.",
"^.^.^.^.^._.pXd.=.1.7.R * $ $ + & H P.P.!.B q u y y 5 m F.C.N.C.R.@.c z b v v ! -X^.^.^.^.^.^.^.^.^.^.",
"^.^.^.^.^./.pX[ =.1.9.F o O X X & @.G.E.R.#.0 4 i q 8 z L.R.A.A.Q.z.x d l b z ..2X^.^.^.^.^.^.^.^.^.^.",
"^.^.^.^.^.oXyX@.=.1.e.p O 4 4 p f k.R.E.!.Q.@.m H z 8 3 h.L.Y.C.R.x.g g l v b ..%X^.^.^.^.^.^.^.^.^.^.",
"^.^.^.^.^.@XtX-.,.2.7.& 4 U U T b.F.A.j.C.W.~.~.Q.P.H s I R.A.C.I.m.c g g z t .., ^.^.^.^.^.^.^.^.^.^.",
"^.^.^.^.^.fXeXL 4.,.6.% D n.n.k.k.A.H.A.Z.V.U.U.~.Q.B s c E.R.C.A.x.j g f b ^ ) { |.^.^.^.^.^.^.^.^.^.",
"^.^.^.^.^.fXf.2.,.3.L % p n.n.h.y.N.D.A.V.Z.U.U.~.J.B 0 c F.F.W.R.j.M g g x ^ ` |  X^.^.^.^.^.^.^.^.^.",
"^.^.^.^.^.gXf.,.<.3.J % 5 R c.b.N.N.A.D.V.V.Z.U.~.z.d 0 F m.C.F.F.h.M s g z b ` Q aX^.^.^.^.^.^.^.^.^.",
"^.^.^.^.^.hXf.2.,.3.L X + V T b.k.t.B.H.S.C.R.R.z.H 5 5 F M.F.A.S.9.I l s x ^ ` E :X^.^.^.^.^.^.^.^.^.",
"^.^.^.^.^.jXf.3.,.3.K X o = V c.N.t.B.S.S.F.E.M.U r 5 7 F M.F.N.9.6.B l l c ^ ) E ,X^.^.^.^.^.^.^.^.^.",
"^.^.^.^./.jXf.2.,.P T * . o 7 I k.9.9.B.F.F.E.%.d 7 y 7 G M.S.k.5.7.I l l b v ~ E ,X^.^.^.^.^.^.^.^.^.",
"^.^.^.^.^.jXf.6.,.P T = o @ & g 9.B.9.B.F.F.E.T 6 7 u 7 K M.F.9.5.3.H l x v ~ ) ) ,X^.^.^.^.^.^.^.^.^.",
"^.^.^.^.^.dX7X6.3.P P = @ . $ g 7.k.8.N.N.C.R.Y 0 6 p q T b.S.9.5.,.c v b n v ) ) ,X^.^.^.^.^.^.^.^.^.",
"^.^.^.^.^.|.rXL 3.3.3.= @ . * F 7.S.8.k.N.C.F.B p 6 q 6 T b.y.9.q.6.c b n n v ~ ..>X^.^.^.^.^.^.^.^.^.",
"^.^.^.^.^.).rX&.2.3.P A . @ o L e.B.b.8.k.N.x.Y * $ * = 7.8.9.9.3.P g b n n l / { aX^.^.^.^.^.^.^.^.^.",
"^.^.^.^.(.'.0X&.L 3.P K @ + & R e.7.7.9.F.k.h.I 7 @ . a h.9.y.5.3.J c b ~ n x W 6XOX^.^.^.^.^.^.^.^.^.",
"^.^.^.^.^._.0Xp.6.P w.J 6 o & c.v.w.K a J b.P.%.q . + K b.9.B.6.L J b b n b b _ %X].^.^.^.^.^.^.^.^.^.",
"^.^.^.^.^._.;Xd.i.3.T L a & & %.n.R 7   * U P.n.q . q T k.b.y.6.T H ^ b m c b ) *X`.^.^.^.^.^.^.^.^.^.",
"^.^.^.^.^.^..XrXi.6.L 7.A a & U G y @ . 4 4 F O.4 + U v.g.b.6.6.@.m ^ v F z c { 4X^.^.^.^.^.^.^.^.^.^.",
"^.^.^.^.^.^.].2Xa.3.L w.A a & q 5 $ $ # 2 # 4 6 O 6 c.M.9.x.2.L +.b v b c d b { dX^.^.^.^.^.^.^.^.^.^.",
"^.^.^.^.^.^._.fXu.2.6.S <.A a 4 + $ 2 # # $ * o p I h.S.9.h.2.T H m b z d z b 6X{.#X^.^.^.^.^.^.^.^.^.",
"^.^.^.^.^.^.^.XXs.2.3.C :.:.T s . . $ $ $ . @ & J F.2.k.9.L 6.T c b z c V H E *X^.^.^.^.^.^.^.^.^.^.^.",
"^.^.^.^.^.^.^.^.2X;.2.:.; :.3.J V = @ * @ & = R S.B.9.=.2.6.P g z F g c r b ..>X^.^.^.^.^.^.^.^.^.^.^.",
"^.^.^.^.^.^.^.^.sXu.g.<.:.:.,.w.P K A K K K w.v.5.4.&.&.2.3.S h c z c d z ~ %X/.^.^.^.^.^.^.^.^.^.^.^.",
"^.^.^.^.^.^.^.^.^.=Xa.2.:.C C 2.,.3.P 6.w.w.w.5.,.&.&.&.2.3.j f c s c m v { aX^.^.^.^.^.^.^.^.^.^.^.^.",
"^.^.^.^.^.^.^.^.^.OXtXg.6.C 1.>.,.,.,.2.,.3.<.S &.&.1.,.6.J f f f d b ( E 6X^.^.^.^.^.^.^.^.^.^.^.^.^.",
"^.^.^.^.^.^.^.^.^.^.sXf.[ 2.1.<.,.>.&.&.<.3.3.,.&.&.1.3.L c c x m x b ~ { aX^.^.^.^.^.^.^.^.^.^.^.^.^.",
"^.^.^.^.^.^.^.^.^.^.^.8Xa.8.&.<.>.>.&.&.2.S S 3.&.,.,.2.J c v n n k ^ ) 9X^.^.^.^.^.^.^.^.^.^.^.^.^.^.",
"^.^.^.^.^.^.^.^.^.^.^.{.f.p.&.>.<.>.1.4.2.,.S ,.,.,.S Z V c v n k k ^ ..{.^.^.^.^.^.^.^.^.^.^.^.^.^.^.",
"^.^.^.^.^.^.^.^.^.^.^.^.`.' x.C &.,.&.&.,.3.,.3.3.6.L g z b ~ E ! _ { OX^.^.^.^.^.^.^.^.^.^.^.^.^.^.^.",
"^.^.^.^.^.^.^.^.^.^.^.^.^.^.eXu.6.&.&.2.2.4.3.q.L j g c m v ^ / ' : XX^.^.^.^.^.^.^.^.^.^.^.^.^.^.^.^.",
"^.^.^.^.^.^.^.^.^.^.^.^.^.^.^.X.u.i.6.6.6.N M j c x x l v v ~ !  .`.^.^.^.^.^.^.^.^.^.^.^.^.^.^.^.^.^.",
"^.^.^.^.^.^.^.^.^.^.^.^.^.^.^.^.)., _ ' ] ] ] n n W / _ _ ! E $X^.^.^.^.^.^.^.^.^.^.^.^.^.^.^.^.^.^.^.",
"^.^.^.^.^.^.^.^.^.^.^.^.^.^.^.^.^.^.(.^.(.#X^.`.[.[.].}.}.^.^.^.^.^.^.^.^.^.^.^.^.^.^.^.^.^.^.^.^.^.^.",
"^.^.^.^.^.^.^.^.^.^.^.^.^.^.^.^.^.^.^.^.(.^.^.^.^.^.^.^.^.^.^.^.^.^.^.^.^.^.^.^.^.^.^.^.^.^.^.^.^.^.^.",
"^.^.^.^.^.^.^.^.^.^.^.^.^.^.^.^.^.^.^.^.^.^.^.^.^.^.^.^.^.^.^.^.^.^.^.^.^.^.^.^.^.^.^.^.^.^.^.^.^.^.^.",
"^.^.^.^.^.^.^.^.^.^.^.^.^.^.^.^.^.^.^.^.^.^.^.^.^.^.^.^.^.^.^.^.^.^.^.^.^.^.^.^.^.^.^.^.^.^.^.^.^.^.^."
};
