/* XPM */
static char *out[] = {
/* columns rows colors chars-per-pixel */
"51 55 229 2 ",
"   c #D67F3A",
".  c #C88835",
"X  c #CB8C36",
"o  c #CD8B3B",
"O  c #D38435",
"+  c #DA8435",
"@  c #D28B36",
"#  c #D4853B",
"$  c #DA843D",
"%  c #D48B3C",
"&  c #D9893D",
"*  c #CD923B",
"=  c #D3923B",
"-  c #D49B3F",
";  c #DB983F",
":  c #E3873E",
">  c #BAAA78",
",  c #CE8843",
"<  c #DC8543",
"1  c #D48B43",
"2  c #DC8943",
"3  c #DC8B49",
"4  c #CF9345",
"5  c #D39443",
"6  c #DB9544",
"7  c #D49C44",
"8  c #DA9B44",
"9  c #D5964C",
"0  c #DC954C",
"q  c #D49C4B",
"w  c #DB9B4B",
"e  c #DD9552",
"r  c #DB9B52",
"t  c #D89C56",
"y  c #E28843",
"u  c #E0974C",
"i  c #E9914F",
"p  c #E39B4B",
"a  c #E39451",
"s  c #E19B52",
"d  c #E59A57",
"f  c #CFA94C",
"g  c #DCA346",
"h  c #D5A44B",
"j  c #DCA54C",
"k  c #DCAA4E",
"l  c #DCB94C",
"z  c #CBA157",
"x  c #CEA65E",
"c  c #CDAB5D",
"v  c #D6A554",
"b  c #DBA554",
"n  c #D5AA53",
"m  c #DBAA55",
"M  c #D5A65B",
"N  c #DBA55A",
"B  c #D5A95D",
"V  c #DAA95A",
"C  c #D5B153",
"Z  c #DDB354",
"A  c #DCBB52",
"S  c #DFB35A",
"D  c #D5BA5A",
"F  c #DCBB5B",
"G  c #E1A34C",
"H  c #E2AA4D",
"J  c #E2BE43",
"K  c #E3B34E",
"L  c #E3BE4D",
"P  c #E2A455",
"I  c #E2AC54",
"U  c #EBAC56",
"Y  c #E0A55B",
"T  c #E2AA5B",
"R  c #E3B454",
"E  c #EAB455",
"W  c #E4BB54",
"Q  c #E9BC55",
"!  c #E3B35B",
"~  c #EBB35E",
"^  c #E5BC5B",
"/  c #EBBC5D",
"(  c #C7A465",
")  c #CDA562",
"_  c #C7AD60",
"`  c #CBAA64",
"'  c #C5A66E",
"]  c #CBA76C",
"[  c #CBAA6A",
"{  c #D2A562",
"}  c #D2A962",
"|  c #D9A962",
" . c #D2AC6A",
".. c #CEB565",
"X. c #D1B564",
"o. c #D9BB67",
"O. c #CBAB75",
"+. c #CAAE7E",
"@. c #D5B479",
"#. c #E2A964",
"$. c #E4B465",
"%. c #ECB462",
"&. c #E5BC62",
"*. c #EABC63",
"=. c #E8B86A",
"-. c #F3BF66",
";. c #F1BC70",
":. c #DFC240",
">. c #DEC44C",
",. c #DEC353",
"<. c #DDC35C",
"1. c #E3C344",
"2. c #E4C44C",
"3. c #E9C34C",
"4. c #E3C84D",
"5. c #E8C849",
"6. c #E4C452",
"7. c #E9C354",
"8. c #E5CC55",
"9. c #EBCC55",
"0. c #E4C45B",
"q. c #EBC45A",
"w. c #E6CC5C",
"e. c #EACC5D",
"r. c #F2C55D",
"t. c #F3CC5B",
"y. c #ECD156",
"u. c #E5D15B",
"i. c #EBD15C",
"p. c #F0D15D",
"a. c #DCC264",
"s. c #D7C669",
"d. c #DCC36B",
"f. c #DBC473",
"g. c #DCC777",
"h. c #E5C463",
"j. c #EBC363",
"k. c #E4CC63",
"l. c #ECCC62",
"z. c #E5C46B",
"x. c #EBC66D",
"c. c #ECCD6B",
"v. c #F1C264",
"b. c #FCC467",
"n. c #F2CB63",
"m. c #F4C56C",
"M. c #F3CC6C",
"N. c #F9CC6C",
"B. c #E6D262",
"V. c #ECD364",
"C. c #E6DB62",
"Z. c #EBDA65",
"A. c #E5D56E",
"S. c #ECD56B",
"D. c #E6D96D",
"F. c #ECDA6B",
"G. c #F1D265",
"H. c #F3D36C",
"J. c #FAD56D",
"K. c #F0DA6C",
"L. c #EDC573",
"P. c #ECCC74",
"I. c #E1C479",
"U. c #F7CB75",
"Y. c #E6D573",
"T. c #ECD572",
"R. c #E6D970",
"E. c #EBDA73",
"W. c #E9D678",
"Q. c #F3D573",
"!. c #F9D473",
"~. c #F2D973",
"^. c #F3D47A",
"/. c #FBD47B",
"(. c #F4DA7C",
"). c #3C7EE4",
"_. c #3F80E3",
"`. c #5E92DF",
"'. c #6D99D7",
"]. c #6293DE",
"[. c #6A97DD",
"{. c #6C99DC",
"}. c #729BDA",
"|. c #7DA2D4",
" X c #4383E4",
".X c #4B87E3",
"XX c #4E89E3",
"oX c #518BE2",
"OX c #5B8FE2",
"+X c #5C91E0",
"@X c #6294E0",
"#X c #B8AF90",
"$X c #BEB399",
"%X c #9BACBB",
"&X c #AFA9AB",
"*X c #AEB6A6",
"=X c #A9B2AD",
"-X c #B5B6A5",
";X c #BDB6A3",
":X c #A5ACB6",
">X c #AAB3B3",
",X c #A9B3B9",
"<X c #B0B9B7",
"1X c #B2BABB",
"2X c #C6AC84",
"3X c #C8B687",
"4X c #D4B687",
"5X c #C1AE94",
"6X c #C4B495",
"7X c #C7BA9B",
"8X c #C1BEA4",
"9X c #BCC0A6",
"0X c #CEC284",
"qX c #D5C488",
"wX c #C9C396",
"eX c #D1C796",
"rX c #F0C982",
"tX c #FBDA85",
"yX c #FCD985",
"uX c #CDC5A1",
"iX c #CEC8A1",
"pX c #87A4CE",
"aX c #94AAC4",
"sX c #9AADC6",
"dX c #92A7C9",
"fX c #97ADCB",
"gX c #82A3D4",
"hX c #8BA9D1",
"jX c #A9B4C1",
/* pixels */
").).).).).).).).).).).).).).).).).).).).).).).).).).).).).).).).).).).).).).).).).).).).).).).).).).).",
").).).).).).).).).).).).).).)._.).).)._.).).)._._.).).).).).).).).).).).).).).).).).).).).).).).).).).",
").).).).).).).).).).).).)._. X@XpX:X8XuXuXeXiX>X9X*X*X=X>X,XaX}.XX).).).).).).).).).).).).).).).).).).",
").).).).).).).).).).)._.@XsXeXqXI.x.x.x.c.c.Y.P.Y.f.s...x x ` [ 6XjX@X_.).).).).).).).).).).).).).).).",
").).).).).).).).).).oX%XqXf.d.k.k.e.w.i.B.V.S.~.~.A.S.0.Z V V | { ] 2X:XoX).).).).).).).).).).).).).).",
").).).).).).).)._.|.eXd.0.0.w.e.u.u.e.V.V.V.S.T.~.~.H.J.G./ V N N B { ` 7X}.).).).).).).).).).).).).).",
").).).).).).). X1Xg.D ,.4.9.i.i.e.l.S.Q.Q.Q.T.H.S.H.S.u.K.(.L.#.N b m v x 4XgX).).).).).).).).).).).).",
").).).).).).XX1Xf.<.w.9.9.9.i.l.e.S.Q.S.T.Q.T.S.S.S.F.F.D.W.rXU.=.I g k h x @.fX).).).).).).).).).).).",
").).).)._. X<Xs.<.8.>.i.w.e.w.w.V.V.F.F.F.S.V.F.F.S.S.D.R.R.W.^.L.$.v T w V } O.gX).).).).).).).).).).",
").).).)._.,Xg.<.>.4.4.e.w.V.B.l.S.V.V.V.Z.V.Z.S.F.S.A.R.D.D.D.R.T.L.$.t I b V ) 4X@X).).).).).).).).).",
").).).).|.f.A 4.5.5.9.G.w.l.w.l.K.V.S.K.K.Z.V.A.T.T.T.S.K.Z.C.C.F.T.x.n V b N B ' ;X X).).).).).).).).",
").).).`.0X<.8.:.:.y.9.e.e.M.l.M.n.^ R l A Q l.n.Q.!.H.H.K.Z.u.C.Z.A.S.j.n V v B } [ aX).).).).).).).).",
").)._.>Xa.,.9.1.1.y.9.r.n.m.! P P s 0 w w 8 g m / M.!.J.J.G.V.Z.C.C.K.G.C n M B | z +.@X).).).).).).).",
").).'.g.<.>.1.7.9.y.y.n.~ j 4 1 e e a a 0 0 6 5 q U -.J.H.H.F.Z.C.C.Z.K.h.v N M M V ` jX).).).).).).).",
"). XwXo.h.6.L 9.p.u.e.E ; X = 9 d t d t 9 0 b p 0 0 w *.c.Q.~.T.S.S.S.M.H.! V b b T M 6X@X).).).).).).",
").'.s.a.6.q.6.L e.n./ G @ @ 6 r 9 t ;.yX%.t 0 e u 0 r h h.U.Q.T.W.!.S.Q.!.j.h V P m { ' fX).).).).).).",
"_.=Xa.>.8.6.3.t.t.*.j % # , 3 0 r m !./.U.q r e e s 5 0 w m.U.W.S.T.S.M.H.H.C h m P N  .5X X).).).).).",
"XXqX,.>.>.2.7.t.r.I o % < < 3 0 w ! !.N./.T r e a 0 p p 6 U N.(.D.E.~.S.H.S.A v V m N v @.}.).).).).).",
"'.d.,.>.4.>.q.t.Q 8 .     < 3 9 m h.~.T.tX=.4 e a 0 0 p w 7 / ~.A.~.S.H.S.Q.h.n b N N M  .dX).).).).).",
"1Xa.6.>.5.>.t.r.H * @ & $ 2 1 9 ! c.Y.R.rXL.z t s u p 6 r w m c.T.~.S.S.S.S.c.m m b N M ) -X X).).).).",
"wXo.4.2.5.2.e./ - . @ % + O o 7 &.W.D.Y.W.tX$.t 9 6 w 6 7 w 7 j.!.~.H.F.S.S.H.! b b V m { 5XoX).).).).",
"0X<.6.5.4.6.q.*.- . = = = = 7 S M.(.R.W.W.tXU.$.#.T T V q q 4 *.H.c.F.S.F.S.~.$.b v b V M +.@X).).).).",
"f.0.4.4.4.6.q.T 1 = G E / / q.N.H.H.A.T.W.^.yXyXyX/./.m.*.w 8 ! N.H.K.F.D.S.H.*.v v n b B ' gX).).).).",
"s.q.J 2.4.7.q.b o p b.r.n.j.l.n.G.S.~.Q.(.Y.P.W.W.T.^.U./.j w 7 m.J.S.V.F.F.S.*.h V V b V ] fX).).).).",
"a.6.3.J 9.2.q.q 1 p b.n.l.w.i.V.G.G.J.~.H.T.W.~.A.W.T./.%.P 6 7 v.J.G.V.F.S.V.^ V V V P N [ aX).).).).",
"a.2.3.1.3.L / q 1 & U n.V.i.8.u.i.G.V.H.S.~.A.R.D.E.W.L.T s w 7 j.J.S.Z.Z.V.c.*.k n b P v _ >X).).).).",
"a.6.3.5.2.J q.q , % 6 W h.t.w.8.u.K.V.H.S.E.D.D.E.T.P.! q 6 w h j.H.G.Z.D.B.l.^ j v b N N ) >X).).).).",
"d.W 3.1.2.2.q.q , $ @ 5 Z e.i.8.u.i.V.K.F.F.S.F.~.h.! b 0 0 q h j.H.K.G.V.u.e.^ k v N N N c =X).).).).",
"d./ 3.3.2.2.q.q , # # o 7 W t.e.8.u.i.V.S.Z.B.F.M.Z q 0 e 0 q f c.H.H.G.B.w.j.^ k v m t | c =X).).).).",
"f.7.7.1.1.2.Q j % & & 2 o g e.i.u.u.u.B.Z.F.F.H.M.b r a a s q f c.H.G.e.e.w.w.^ j V b #.M x =X).).).).",
"I.^ 3.1.2.2.Q H % # < < # w r.t.9.i.e.k.B.H.H.H.m.r d a i u q C S.V.l.e.G.e.0.R j m P #.N x %X).).).).",
"I.j.2.2.2.2.6.E 1 O $ < # j n.V.w.n.e.l.k.u.l.H.N.w a i i 0 q C c.e.e.9.p.e.0.Z b b b Y M ` |.).).).).",
"0Xh.3.2.5.>.6.Q 7   : + O R l.l.u.l.e.e.e.B.u.k.l.G $ & y 1 5 $.M.e.8.y.9.w.^ Z n V m k b @.}.).).).).",
"7X0.L 3.5.>.8.W g O + + = / k.k.k.N.r.n.l.k.a.S.c.U O + O o r *.M.9.y.y.9.6.W m v v V h M 2X@X).).).).",
"aXo.3.3.4.:.8.0.R ; O O 6 j.c.j.c.q.H k R 0.c.H.j.~ @ @ O 5 ~ M.l.8.y.8.e.q.A v v m b m { 6X X).).).).",
"|.d.6.1.4.>.,.0./ H X @ 7 -.U.c.~ k @ . 5 C h.P.m.*.@ = = g -.N.e.8.u.4.6.^ S v V m b V ) :X).).).).).",
"oX3X,.>.1.>.,.,.q.E 8 X = ~ -.%.w & & < O 5 b ~ m.U o . - W e.l.i.u.8.,.0.W m V N m N } ] gX_.).).).).",
"_.>Xa.6.1.>.,.,.0.q.R - o j G u #   y y   1 1 5 P 9 . - R t.e.e.i.9.6.6.^ ! V N N V M { 2XoX).).).).).",
"_.|.f.6.1.:.4.6.6.7.7.K 8 = X & & $ y     2 2 o o % 7 R e.G.9.w.8.>.>.0.^ Z b b m m M ] ,X).).).).).).",
")..X*X<.4.4.4.4.4.6.7.r.K g X @ # &   & $ # @ % X g W j.G.e.8.8.8.>.6.q.R m b b b m | O.gX).).).).).).",
").).|...W 4.1.1.2.3.3.7.Q Q K g - * X X X X = g Q v.n.l.e.8.8.6.>.6.7.W E h j I b b  .$X X).).).).).).",
").)..X$Xa.>.1.9.3.J J 3.4.q.7.Q R E Z k Z R / r.r.n.r.q.w.6.>.>.6.6.Q R k P m V V { [ gX).).).).).).).",
").).).|.@.<.8.W 2.3.1.1.2.2.3.7.7.6.6.7.7.q.r.r.q.7.6.6.6.6.L 6.q.q.R H w m v M M ` $X X).).).).).).).",
").).).).%Xo.0.,.W 9.3.5.2.3.3.2.W 6.6.6.6.2.L 2.2.3.4.6.6.6.6.7.^ W I k b b v | ( 2X}._.).).).).).).).",
").).).)..X*X..z.j.L 2.1.3.2.3.2.6.7.3.2.2.7.3.4.3.3.3.J 2.6.7.0.W m m b T N B  .O.dX).).).).).).).).).",
").).).).).[.$XX.F 6.7.2.2.2.2.2.3.4.3.Q Q 2.2.2.1.L 2.6.6.6.7.W m b m N N M ` ' ;X X).).).).).).).).).",
").).).).).).{.+.D 0.6.6.4.,.2.6.6.3.3.7.3.2.2.>.>.4.6.2.6.2.L Z V N N N N M  .7X@X).).).).).).).).).).",
").).).)._._._.'.#X..a.0.,.>.,.>.1.3.3.3.1.2.>.6.6.2.6.Q Q L k h m N N { | ) 5X@X).).).).).).).).).).).",
").).).).).).).).OX,X> D A 0.6.6.6.5.3.J 1.3.3.7.6.Q ^ %.P v v m m v M ) [ -X].).).).).).).).).).).).).",
").).).).).).).).). XhX#X_ D F W A L 7.3.3.3.Q Q W W S V N N N v v x  .4XaX X).).).).).).).).).).).).).",
").).).).).).).).).).).OX:X2XO. .o.| ! ! Z R K k C n n n n B c x ] 4X,X}.).).).).).).).).).).).).).).).",
").).).).).).).).).).).).)..XpX&X#X2XO.] [ ] ` _ [ [ ` _ _ [ +.8XaX}. X).).).).).).).).).).).).).).).).",
").).).).).).).).).).).).).).).).XX+X].[.[.[.[.[.[.{.{.{.{.`.XX X).).).).).).).).).).).).).).).).).).).",
").).).).).).).).).).).).).).).).).).).).).).).).).).).).).).).).).).).).).).).).).).).).).).).).).).).",
").).).).).).).).).).).).).).).).).).).).).).).).).).).).).).).).).).).).).).).).).).).).).).).).).).)."
};
