/* XPM */
static char *result[] = {
/* columns rows colors chars-per-pixel */
"48 58 195 2 ",
"   c #534A30",
".  c #6A5B33",
"X  c #7C632F",
"o  c #65633C",
"O  c #786738",
"+  c #3C5B6C",
"@  c #3E616A",
"#  c #39697B",
"$  c #4B5242",
"%  c #595B44",
"&  c #656B46",
"*  c #656A55",
"=  c #607A57",
"-  c #566A63",
";  c #526868",
":  c #4F7464",
">  c #4D6F71",
",  c #536E7C",
"<  c #48777B",
"1  c #577478",
"2  c #67787B",
"3  c #8A7643",
"4  c #548978",
"5  c #698761",
"6  c #9F874A",
"7  c #988855",
"8  c #A8955E",
"9  c #978C67",
"0  c #355584",
"q  c #355889",
"w  c #3C678A",
"e  c #3E6A98",
"r  c #366AA7",
"t  c #3A68A7",
"y  c #3A6CAC",
"u  c #396BB5",
"i  c #3A6EBE",
"p  c #3F73B8",
"a  c #406E88",
"s  c #4B7E86",
"d  c #557582",
"f  c #496F94",
"g  c #457B9A",
"h  c #62778A",
"j  c #6C7C89",
"k  c #607D94",
"l  c #436CAA",
"z  c #4A78A7",
"x  c #557CA3",
"c  c #557CA9",
"v  c #4E7CB4",
"b  c #4576BC",
"n  c #3E76C2",
"m  c #3C7BDC",
"M  c #3C7EE4",
"N  c #447ACC",
"B  c #417CD7",
"V  c #417FDD",
"C  c #3C8389",
"Z  c #468787",
"A  c #578288",
"S  c #549582",
"D  c #478697",
"F  c #4A9897",
"G  c #6F838B",
"H  c #628197",
"J  c #7C8A99",
"K  c #54A697",
"L  c #5AB598",
"P  c #4884A7",
"I  c #5484A5",
"U  c #5789A9",
"Y  c #4B91A4",
"T  c #5D95AB",
"R  c #5888BA",
"E  c #5897BA",
"W  c #5C9CBC",
"Q  c #6389AE",
"!  c #768CA4",
"~  c #7189A8",
"^  c #6291AF",
"/  c #50ACA4",
"(  c #4EB4AA",
")  c #58B5A9",
"_  c #52A0B8",
"`  c #5CBDBC",
"'  c #5BC3AC",
"]  c #5ECEA9",
"[  c #5EC1BB",
"{  c #64D3B4",
"}  c #3F81E4",
"|  c #4E82CF",
" . c #5988C4",
".. c #5283CB",
"X. c #5895C4",
"o. c #5799C6",
"O. c #589BC8",
"+. c #4883D6",
"@. c #4E95DE",
"#. c #5397DD",
"$. c #659FC7",
"%. c #5EA8C5",
"&. c #5AA5CE",
"*. c #59A5D1",
"=. c #5DADD4",
"-. c #59A5DF",
";. c #5DADDA",
":. c #5FB5D6",
">. c #70A8C9",
",. c #78B3CB",
"<. c #63A5D3",
"1. c #63B2D6",
"2. c #62B3DB",
"3. c #64BADA",
"4. c #6CBCDD",
"5. c #7CBAD1",
"6. c #71B6DF",
"7. c #4284E3",
"8. c #4689E3",
"9. c #4A8DE3",
"0. c #4D92E3",
"q. c #5396E5",
"w. c #559AE3",
"e. c #5A9CE5",
"r. c #56A1E4",
"t. c #5CA3E3",
"y. c #5EABE2",
"u. c #63A4E6",
"i. c #63ACE4",
"p. c #6CABE6",
"a. c #60ADE8",
"s. c #6CADE9",
"d. c #64B4E3",
"f. c #6BB3E4",
"g. c #66B9E4",
"h. c #6CBBE3",
"j. c #67B7E8",
"k. c #69BCE9",
"l. c #7BB9E7",
"z. c #75B4E9",
"x. c #74BBEA",
"c. c #7DBEEB",
"v. c #66C5C7",
"b. c #7CC6DD",
"n. c #6CC3E5",
"m. c #6DC3E9",
"M. c #6ECCED",
"N. c #71C3E3",
"B. c #7AC6E2",
"V. c #75C9E6",
"C. c #7CCAE5",
"Z. c #72C7EB",
"A. c #73CBEB",
"S. c #7CCCEC",
"D. c #7FD0E7",
"F. c #73D2EE",
"G. c #7AD2ED",
"H. c #68C9F0",
"J. c #76D3F0",
"K. c #7DD8F1",
"L. c #848D95",
"P. c #80C1DD",
"I. c #9DD7DE",
"U. c #8AC7EA",
"Y. c #89C6EC",
"T. c #94CFEF",
"R. c #87D5EB",
"E. c #8ADAEE",
"W. c #99D7EE",
"Q. c #9FDAE9",
"!. c #86DDF3",
"~. c #8BDCF2",
"^. c #94D2F0",
"/. c #93DBF1",
"(. c #9AD8F1",
"). c #A2DEEE",
"_. c #A1DFF4",
"`. c #8CE3F6",
"'. c #92E3F4",
"]. c #9BE5F4",
"[. c #9AECFA",
"{. c #9EF1FC",
"}. c #B2EAED",
"|. c #A4E2F2",
" X c #A9E5F3",
".X c #A3E9F5",
"XX c #ADEAF3",
"oX c #B3ECF5",
"OX c #AFF0F7",
"+X c #B3F1F6",
"@X c #BDF6F8",
"#X c #C3F7F9",
"$X c #C3F9FA",
"%X c #CCFBFB",
"&X c #D3FDFC",
/* pixels */
"M M M M M M M M M M M M M M M M M M M M } M M M M M M M M M M M M M M M M M M M M M M M M M M M ",
"M M M M M M M M M M M M M M M } 8.7.M M 8.0.7.M M M M M M M M M M M M M M M M M M M M M M M M M ",
"M M M M M M M M M M M M M M M M M 7.M M } 7.} M M M M M M M M M M M M M M M M M M M M M M M M M ",
"M M M M M M M M M M M M M M 7.0.8.M M M M 8.9.7.M M M M M M M M M M M M M M M M M M M M M M M M ",
"M M M M M M M M M M M M M M 7.9.7.M M M M 8.8.} M M M M M M M M M M M M M M M M M M M M M M M M ",
"M M M M M M M M M M M M M M M } 7.7.M M M 7.} M M M M M M M M M M M M M M M M M M M M M M M M M ",
"M M M M M M M M M M M M M M M 8.#.8.M M +.9.} M M M M M M M M M M M M M M M M M M M M M M M M M ",
"M M M M M M M M M M M M M M M } 7.7.8.8.} } M M M M M M M M M M M M M M M M M M M M M M M M M M ",
"M M M M M M M M M M M M M M M M M M } } M M M M M M M M M M M M M M M M M M M M M M M M M M M M ",
"M M M M M M M M M M M M M M M M M M M M M M M M M M M M M M M M M M M M M M M M M M M M M M M M ",
"M M M M M M M M M M M M M M M M M M M M M M M M M M M M M M 7.7.7.7.7.8.M M M M M M M M M M M M ",
"M M M M M M M M M M M M M M M M M M M M M M M M M M M M M } q.w.y.j.y.-.8.M M M M M M M M M M M ",
"M M M M M M M M M M M M M M M M M M M M M M M M M M M M M M 9.d.M.A.V.y.7.M M M M M M M M M M M ",
"M M M M M M M M M M M M M M M M M M M M m m m m m m M M M } -.Z.j.j.G.h.9.M M M M M M M M M M M ",
"M M M M M M M M M M M M M M M M M M m y 0 0 0 0 q u M M M M 9.j.S.S.A.t.7.M M M M M M M M M M M ",
"M M M M M M M M M M M M M M M M m i l x U U R U U c l i m } 0.y.m.M.d.0.} M M M M M M M M M M M ",
"M M M M M M M M M M M M M M m m b z x ,.~.'.'.`./.>.U x b m #.#.w.q.8.7.M M M M M M M M M M M M ",
"M M M M M M M M M M M M M M m b U 5././.`.`.K.`.'.`.'.,.I b m +.M M M M M M M M M M M M M M M M ",
"M M M M M M M M M M M M M m u z 5./.`.[.`.F.M.F.`.[.D.v.) Z z B M M M M M M M M M M M M M M M M ",
"M M M M M M M M M M M M m u v <.h.E.{.{.`.F.H.M.K.S.1.%.` ' D u m M M M M M M M M M M M M M M M ",
"M M M M M M M M M M M M m y z *.1.4.C.E.K.F.F.F.m.2.*.&.` { Z p m M M M M M M M M M M M M M M M ",
"M M M M M M M M M M M M N P E &.&.&.&.1.n.F.F.J.3.&.&.*.%.[ / D n M M M M M M M M M M M M M M M ",
"M M M M M M M M M M M m u R d.;.;.=.*.*.2.n.A.M.2.&.=.=.:.:.v.D t M M M M M M M M M M M M M M M ",
"M M M M M M M M M M M m y P 3.g.d.1.=.=.=.g.n.3.;.;.:.g.n.:.[ C r m M M M M M M M M M M M M M M ",
"M M M M M M M M M M M m t z o.o.O.1.4.N.n.A.K.V.n.4.1.o.E _ ( C y m M M M M M M M M M M M M M M ",
"M M M M M M M M M M M m t g R E I 1 ; A W =.4.$.d ; < I E ) ] Z t m M M M M M M M M M M M M M M ",
"M M M M M M M M M M M m t g _ I 2 9 3 % < %.T 2 9 7 o : L ] K A v B M M M M M M M M M M M M M M ",
"M M M M M M M M M M M V z s F 4 & 7 6 . - W ^ * 8 8 O = L K A G R V M M M M M M M M M M M M M M ",
"M M M M M M M M M M M V R h s s : & O & d X.E 1 . X O 5 S s j J  .M M M M M M M M M M M M M M M ",
"M M M M M M M M M M M M N ~ h < 4 % $ d E o.O.T -   = S 4 G L.! ..M M M M M M M M M M M M M M M ",
"M M M M M M M M M M M M V | Q k > + s T I e f Y K < @ , j L.! ..M M M M M M M M M M M M M M M M ",
"M M M M M M M M M M M M M M V N p z a w q f T f # d j J L.! ..7.M M M M M M M M M M M M M M M M ",
"M M M M M M M M M M M M M M M M M N z U I U ^ H h j L.!  .B 7.M M M M M M M M M M M M M M M M M ",
"M M M M M M M M M M M M M M M M M +.<.5.B.<. .X.,.>. ...} M M M M M M M M M M M M M M M M M M M ",
"M M M M M M M M M M M M M M M M M 7.f.G.K.Y.u.e.U.c.q.7.M M M M M M M M M M M M M M M M M M M M ",
"M M M M M M M M M M M M M M M M M 8.x.E.'.OXQ.u.9.i.t.8.M M M M M M M M M M M M M M M M M M M M ",
"M M M M M M M M M M M M M M M M M 7.c.XX@X#X|.p.9.-.t.8.M M M M M M M M M M M M M M M M M M M M ",
"M M M M M M M M M M M M M M M M M } e.^.+X}.I.b.4.A.k.0.M M M M M M M M M M M M M M M M M M M M ",
"M M M M M M M M M M M M M M M M M } u.l.z.U.).XXXXR.y.8.M M M M M M M M M M M M M M M M M M M M ",
"M M M M M M M M M M M M M M } 7.q.u.l.e.7.u.).&X&X(.r.} M M M M M M M M M M M M M M M M M M M M ",
"M M M M M M M M M M M M M } 0.m./.].x.9.M e.W.#X$X^.q.} M M M M M M M M M M M M M M M M M M M M ",
"M M M M M M M M M M M } 7.0.t.S.].].R.u.8.q.p.W.|.s.7.M M M M M M M M M M M M M M M M M M M M M ",
"M M M M M M M M M M M } 9.;.C.R.!..X|.s.e.l.p.p.u.8.M M M M M M M M M M M M M M M M M M M M M M ",
"M M M M M M M M M M } 0.j.A.'.[.!.K.S.t.9.e.p.U.^.a.7.M M M M M M M M M M M M M M M M M M M M M ",
"M M M M M M M M M M } 9.t.k.!.'.R.b.y.0.7.9.c.oX@X^.q.M M M M M M M M M M M M M M M M M M M M M ",
"M M M M M M M M M M M M 8.w.k.S.P.f.s.i.e.u._.%X&X_.i.7.M M M M M M M M M M M M M M M M M M M M ",
"M M M M M M M M M M M M 8.9.r.h.6.C.|.+X(.c.^.XX+X/.h.q.7.M M M M M M M M M M M M M M M M M M M ",
"M M M M M M M M M M M M M M @.6.U. X$X%X@X^.u.2.n.G.A.d.0.} M M M M M M M M M M M M M M M M M M ",
"M M M M M M M M M M M M M M } e.(.$X&X&X%X(.q.7.9.u.e.8.M M M M M M M M M M M M M M M M M M M M ",
"M M M M M M M M M M M M M M M 9.T.$X&X&X%XT.e.q.9.7.} M M M M M M M M M M M M M M M M M M M M M ",
"M M M M M M M M M M M M M M M } q.Y.|.XXW.u.9.8.M M M M M M M M M M M M M M M M M M M M M M M M ",
"M M M M M M M M M M M M M M M M M 7.0.q.8.M M M M M M M M M M M M M M M M M M M M M M M M M M M ",
"M M M M M M M M M M M M M M M M M M M M M M M M M M M M M M M M M M M M M M M M M M M M M M M M ",
"M M M M M M M M M M M M M M M M M M M M M M M M M M M M M M M M M M M M M M M M M M M M M M M M ",
"M M M M M M M M M M M M M M M M M M M M M M M M M M M M M M M M M M M M M M M M M M M M M M M M ",
"M M M M M M M M M M M M M M M M M M M M M M M M M M M M M M M M M M M M M M M M M M M M M M M M ",
"M M M M M M M M M M M M M M M M M M M M M M M M M M M M M M M M M M M M M M M M M M M M M M M M ",
"M M M M M M M M M M M M M M M M M M M M M M M M M M M M M M M M M M M M M M M M M M M M M M M M "
};
