/* XPM */
static char *result[] = {
/* columns rows colors chars-per-pixel */
"48 58 186 2 ",
"   c #5D5837",
".  c #614E25",
"X  c #645A38",
"o  c #6A613C",
"O  c #7F6831",
"+  c #385877",
"@  c #596555",
"#  c #656242",
"$  c #636A50",
"%  c #766F58",
"&  c #5A6D67",
"*  c #5D746E",
"=  c #587876",
"-  c #5B717C",
";  c #6D7D7C",
":  c #8A6F33",
">  c #8B7134",
",  c #857140",
"<  c #817A58",
"1  c #96844F",
"2  c #86805B",
"3  c #B8A76E",
"4  c #345484",
"5  c #35588B",
"6  c #3E798A",
"7  c #3B6994",
"8  c #39649F",
"9  c #3C6B9C",
"0  c #3E7593",
"q  c #3C7699",
"w  c #3B67A2",
"e  c #3F71AD",
"r  c #3A6CB7",
"t  c #3C76BA",
"y  c #497989",
"u  c #597784",
"i  c #56778A",
"p  c #597C8B",
"a  c #416F97",
"s  c #446C9C",
"d  c #497998",
"f  c #4E799C",
"g  c #517C9D",
"h  c #607884",
"j  c #4271A5",
"k  c #4572AC",
"l  c #4577AC",
"z  c #4C7EAA",
"x  c #5F7FAB",
"c  c #4372B7",
"v  c #386FC2",
"b  c #3C72C4",
"n  c #3C78C3",
"m  c #3B73CA",
"M  c #3C77D3",
"N  c #3C7BDD",
"B  c #3C7EE4",
"V  c #427ACD",
"C  c #598587",
"Z  c #51938A",
"A  c #478997",
"S  c #57859A",
"D  c #748989",
"F  c #69948D",
"G  c #618690",
"H  c #738595",
"J  c #7A8A94",
"K  c #6C9896",
"L  c #769A91",
"P  c #4DA49C",
"I  c #59B59D",
"U  c #4C89A9",
"Y  c #5686A4",
"T  c #5888A9",
"R  c #4D9AA7",
"E  c #4F9EAB",
"W  c #4C8AB9",
"Q  c #5980B6",
"!  c #4F91BC",
"~  c #5D93B5",
"^  c #5997B6",
"/  c #559CB4",
"(  c #6380A5",
")  c #608DAD",
"_  c #7A8BA1",
"`  c #7088AA",
"'  c #669CA9",
"]  c #6888B3",
"[  c #6298B4",
"{  c #4CA4A6",
"}  c #52A4A8",
"|  c #5AB9A1",
" . c #54ACB4",
".. c #56A8BD",
"X. c #58B1BF",
"o. c #71A1A0",
"O. c #66AABB",
"+. c #5AC2A2",
"@. c #5BC6AD",
"#. c #5FC4B1",
"$. c #5FCAB0",
"%. c #61C6BE",
"&. c #3F81E4",
"*. c #4E80CB",
"=. c #5482C8",
"-. c #579CC5",
";. c #5698C8",
":. c #4B81D3",
">. c #4580D9",
",. c #4887DF",
"<. c #4D8CDE",
"1. c #5497DC",
"2. c #5AA4C2",
"3. c #57AAC4",
"4. c #5CA4CB",
"5. c #5CACCD",
"6. c #59B6C6",
"7. c #5CA5D2",
"8. c #5CABD4",
"9. c #5CA5DE",
"0. c #5DA9DB",
"q. c #5EB6D0",
"w. c #6AA8C8",
"e. c #6FBACA",
"r. c #71B3C0",
"t. c #63A7DB",
"y. c #64B2D7",
"u. c #63B4DC",
"i. c #6EB5D9",
"p. c #65BCDB",
"a. c #6FBCDB",
"s. c #70B8DB",
"d. c #7DBDDC",
"f. c #4285E3",
"g. c #4689E3",
"h. c #4B8DE3",
"j. c #4E93E3",
"k. c #5395E4",
"l. c #559AE4",
"z. c #599AE6",
"x. c #609FE6",
"c. c #5BA3E5",
"v. c #63A4E4",
"b. c #6AAAE7",
"n. c #63A5E8",
"m. c #6DAEE9",
"M. c #64B5E5",
"N. c #69B7E6",
"B. c #75B5E4",
"V. c #72B9E2",
"C. c #72BFEB",
"Z. c #7BBDE9",
"A. c #5EC1C4",
"S. c #65C9C6",
"D. c #7BC9DD",
"F. c #6BC1E7",
"G. c #6BCCED",
"H. c #74CBE5",
"J. c #73CDEE",
"K. c #77D1EA",
"L. c #68C9F0",
"P. c #7AD5F0",
"I. c #7EDAF1",
"U. c #858E96",
"Y. c #87D3DC",
"T. c #83CCE3",
"R. c #87C6E8",
"E. c #8ECEEE",
"W. c #94CCE6",
"Q. c #8DD6ED",
"!. c #81D8EF",
"~. c #94D4EE",
"^. c #9CD9ED",
"/. c #84DCF2",
"(. c #8CDCF1",
"). c #98D9F0",
"_. c #8BE1F6",
"`. c #91E4F6",
"'. c #9CE6F5",
"]. c #95E8F8",
"[. c #9BEBF9",
"{. c #AFE8EC",
"}. c #A3E4F2",
"|. c #B4EEF5",
" X c #C2F7F8",
".X c #CCFBFC",
/* pixels */
"B B B B B B B B B B B B B B B B B B B B B B B B B B B B B B B B B B B B B B B B B B B B B B B B ",
"B B B B B B B B B B B B B B B B B B B B B B B B B B B B B B B B B B B B B B B B B B B B B B B B ",
"B B B B B B B B B B B B B B B B B B B B B B B B B B B B B B B B B B B B B B B B B B B B B B B B ",
"B B B B B B B B B B B B B B B B B B B B B B B B B B B B B B B B B B B B B B B B B B B B B B B B ",
"B B B B B B B B B B B B B B B B B B B B B B B B B B B B B B B B B B B B B B B B B B B B B B B B ",
"B B B B B B B B B B B B B B B B B B B B B B B B B B B B B B B B B B B B B B B B B B B B B B B B ",
"B B B B B B B B B B B B B B B B B B B B B B B B B B B B B B B B B B B B B B B B B B B B B B B B ",
"B B B B B B B B B B B B B B B B B B B B B B B B B B B B B B B B B B B B B B B B B B B B B B B B ",
"B B B B B B B B B B B B B B B B B B B B B B B B B B B B B B B B B B B B B B B B B B B B B B B B ",
"B B B B B B B B B B B B B B B B B B B B B B B B B &.B B B B B B B B B B B B B B B B B B B B B B ",
"B B B B B B B B B B B B B B B B B B B B B B B B B B B B B B B B B B B B B B B B B B B B B B B B ",
"B B B B B B B B B B B B B B B B B B B B B B B B B B B B B B B B B B B B B B B B B B B B B B B B ",
"B B B B B B B B B B B B B B B B B B B B B B B B B B B B B B B B B f.B B B B B B B B B B B B B B ",
"B B B B B B B B B B B B B B B B B B B B B B B B N N N N N B N B k.z.f.B B B B B B B B B B B B B ",
"B B B B B B B B B B B B B B B B B B B B B B M w 5 5 4 4 4 4 5 c f.g.&.B B B B B B B B B B B B B ",
"B B B B B B B B B B B B B B B B B B B B m e k Q ) T ) ) ) T S z m B B B B B B B B B B B B B B B ",
"B B B B B B B B B B B B B B B B B B B V k f ~ T._.'.[.].`.`.T.) e m N B B B B B B B B B B B B B ",
"B B B B B B B B B B B B B B B B B B m j ^ Q.(./.P.P._.`.`.(.i.2.A q n N B B B B B B B B B B B B ",
"B B B B B B B B B B B B B B B B N V s l i.(.I.G.G.G./.]._.a.7.5.#.I q m B B B B B B B B B B B B ",
"B B B B B B B B B B B B B B B B m j -.0.8.M.G.G.G.G.G.F.8.8.7.5.S.I q m B B B B B B B B B B B B ",
"B B B B B B B B B B B B B B B B b 8 ;.8.7.u.J.G.L.L.K.H.8.0.7.5.S.| q m B B B B B B B B B B B B ",
"B B B B B B B B B B B B B B B V k T ;.;.T C ' H.G.G.P.O.p i ~ 7.S.#.A e M B B B B B B B B B B B ",
"B B B B B B B B B B B B B B B v s w.M.[ ; % $ K S.H.e.U.< # * / q.A.P 0 r B B B B B B B B B B B ",
"B B B B B B B B B B B B B B B v 9 7.y.G 2 3 ,   K D.L 2 3 1 o C w...P 0 m B B B B B B B B B B B ",
"B B B B B B B B B B B B B B B v 7 ^ ! - X : O o o.Y.L o > : o = / X.P 0 b B B B B B B B B B B B ",
"B B B B B B B B B B B B B B B b 7 R / S @ . # F r.i.O.=     & Y  .%.I A b B B B B B B B B B B B ",
"B B B B B B B B B B B B B B B V d y R E Y p ' 7.7.7.8.3.S p S  .$.+.Z f V B B B B B B B B B B B ",
"B B B B B B B B B B B B B B B *.( i A R ..8.p.4.W e W 8.F.3. .@.+.Z h x >.B B B B B B B B B B B ",
"B B B B B B B B B B B B B B B =.H D u y U / 6.3.U a W y.p.6.{ P C h H ] >.B B B B B B B B B B B ",
"B B B B B B B B B B B B B B B :.` U.J ; + 6 } -.;.;.4.t. .R y + s Q =.:.B B B B B B B B B B B B ",
"B B B B B B B B B B B B B B B B :.` U.U.H g 7 8 w w 8 8 8 e t m M N B B B B B B B B B B B B B B ",
"B B B B B B B B B B B B B B B B B V ] U._ =.N N M N N N N N B B &.B B B B B B B B B B B B B B B ",
"B B B B B B B B B B B B B B B B B B >.:.:.&.B B B B B B B B B B B B B B B B B B B B B B B B B B ",
"B B B B B B B B B B B B B B B B B B B B B B B B B B B B B B B B B B B B B B B B B B B B B B B B ",
"B B B B B B B B B B B B B B B B B B B B B B B B B B B B B B B B B B B B B B B B B B B B B B B B ",
"B B B B B B B B B B B B B B B B B B B B B B B B B B B B B B B B B B B B B B B B B B B B B B B B ",
"B B B B B B B B B B B B B B B B B B B B B B B B B B B B B B B B B B B B B B B B B B B B B B B B ",
"B B B B B B B B B B B B B B B B B B B B B B B B B B B B B B B B B B B B B B B B B B B B B B B B ",
"B B B B B B B B B B B B B B B B B B &.&.g.j.g.g.f.B B B B B B B B B B B B B B B B B B B B B B B ",
"B B B B B B B B B B B B B B B B B &.f.j.c.M.c.j.g.B B B B B B B B B B B B B B B B B B B B B B B ",
"B B B B B B B B B B B B B B B B &.&.g.c.J.I.C.j.h.g.k.z.f.B B B B B B B B B B B B B B B B B B B ",
"B B B B B B B B B B B B B B B B &.j.M.G._.`.!.H.F.T.'.}.m.f.B B B B B B B B B B B B B B B B B B ",
"B B B B B B B B B B B B B B B B &.&.j.N.K.I.P./.C.v.R.W.z.&.B B B B B B B B B B B B B B B B B B ",
"B B B B B B B B B B B B B B B B &.&.l.c.M.C.u.D.9.f.k.u.9.g.B B B B B &.&.j.j.&.B B B B B B B B ",
"B B B B B B B B B B B B B B B B B &.h.j.j.9.k.k.<.B B g.k.f.B B B B B B &.j.h.&.B B B B B B B B ",
"B B B B B B B B B B B B B B B B B B B &.l.V.k.B B &.k.z.f.B B B B B B &.&.B B B B B B B B B B B ",
"B B B B B B B B B B B B B B B B B B B &.z.B.k.B B f.t.Z.z.h.f.B B B B &.g.&.B B B B B B B B B B ",
"B B B B B B B B B B B B B B B B B B B B g.k.h.f.B h.<.<.1.1.h.B &.g.&.&.g.&.B B B B B B B B B B ",
"B B B B B B B B B B B B B B B B B B B f.b.).E.z.B f.<.,.f.f.B f.c.0.f.B B B B B B B B B B B B B ",
"B B B B B B B B B B B B B B B B B B &.z.). X|.E.x.f.k.t.v.m.z.f.g.h.&.B B B B B B B B B B B B B ",
"B B B B B B B B B B B B B B B B B B &.b.|..X X).b.f.k.B.~.}.Z.h.B B B B B B B B B B B B B B B B ",
"B B B B B B B B B B B B B B B B B B B z.). X{.d.1.B f.n.^.}.Z.<.B B B B B B B B B B B B B B B B ",
"B B B B B B B B B B B B B B B B B B &.&.b.^.W.z.B f.k.n.c.b.k.B B B B B B B B B B B B B B B B B ",
"B B B B B B B B B B B B B B B B B B B B f.k.z.f.B f.m.Z.h.B B B B B B B B B B B B B B B B B B B ",
"B B B B B B B B B B B B B B B B B B B B &.k.s.R.n.f.h.h.f.B B B B B B B B B B B B B B B B B B B ",
"B B B B B B B B B B B B B B B B B B B B &.l.~.|.).n.B B B B B B B B B B B B B B B B B B B B B B ",
"B B B B B B B B B B B B B B B B B B B B B f.m.).R.k.B B B B B B B B B B B B B B B B B B B B B B ",
"B B B B B B B B B B B B B B B B B B B B B B h.b.z.B B B B B B B B B B B B B B B B B B B B B B B "
};
