/* XPM */
static char *out[] = {
/* columns rows colors chars-per-pixel */
"51 55 231 2 ",
"   c #DD7D41",
".  c #E17E43",
"X  c #CA872E",
"o  c #CD8434",
"O  c #C78B33",
"+  c #CC8C35",
"@  c #CE863C",
"#  c #CE8B3A",
"$  c #D48636",
"%  c #D28A36",
"&  c #D4853C",
"*  c #DA863E",
"=  c #D48B3C",
"-  c #D88B3E",
";  c #CD9136",
":  c #CD923B",
">  c #CF983D",
",  c #D4923C",
"<  c #D3973C",
"1  c #BFA96D",
"2  c #B9AD7E",
"3  c #CC8641",
"4  c #C88840",
"5  c #D58541",
"6  c #DB8543",
"7  c #D48942",
"8  c #D98B44",
"9  c #D68B49",
"0  c #CF9643",
"q  c #D59444",
"w  c #DC9445",
"e  c #D59B43",
"r  c #DB9B44",
"t  c #D6944C",
"y  c #DC954B",
"u  c #D69B4B",
"i  c #DC9B4C",
"p  c #DE9652",
"a  c #DE9A52",
"s  c #D89B54",
"d  c #E18646",
"f  c #E2954B",
"g  c #E6984A",
"h  c #E29B4C",
"j  c #E39651",
"k  c #E29A52",
"l  c #DCA646",
"z  c #D5A34B",
"x  c #D5A648",
"c  c #DCA54B",
"v  c #DCAC4B",
"b  c #DAB04C",
"n  c #DEBB4B",
"m  c #DCA453",
"M  c #DCAB53",
"N  c #DCAD59",
"B  c #DDB455",
"V  c #DBB55C",
"C  c #DCBB5A",
"Z  c #D8BC58",
"A  c #E2A44D",
"S  c #E9AD4B",
"D  c #E3BE44",
"F  c #E5B24D",
"G  c #EAB64C",
"H  c #E2BE4B",
"J  c #E9BF4E",
"K  c #E1A352",
"L  c #E4AC52",
"P  c #E9A954",
"I  c #F1AF59",
"U  c #E5B553",
"Y  c #EBB455",
"T  c #E4BD53",
"R  c #EBBC53",
"E  c #E4B35A",
"W  c #EBB459",
"Q  c #E4BC5A",
"!  c #EBBB5C",
"~  c #F2BB5E",
"^  c #CCAB64",
"/  c #C5A96C",
"(  c #CBAC6D",
")  c #D3AD63",
"_  c #D1AF68",
"`  c #CDB363",
"'  c #CAB16A",
"]  c #D5B663",
"[  c #DAB562",
"{  c #DDBC63",
"}  c #D5BD69",
"|  c #DBBF68",
" . c #CAAC72",
".. c #C3AD7A",
"X. c #C8AE79",
"o. c #D0AE75",
"O. c #CBB674",
"+. c #D6BE75",
"@. c #E3B562",
"#. c #EABC68",
"$. c #F3BB63",
"%. c #F7B96A",
"&. c #F3B970",
"*. c #DEC449",
"=. c #DEC54D",
"-. c #DFC355",
";. c #DEC850",
":. c #DFC35D",
">. c #DFD25F",
",. c #E2C346",
"<. c #E8C247",
"1. c #E4C44C",
"2. c #EAC34C",
"3. c #E4C84D",
"4. c #EACA4F",
"5. c #E5C453",
"6. c #EAC453",
"7. c #E5CB54",
"8. c #EBCA55",
"9. c #E4C45A",
"0. c #EBC45C",
"q. c #E6CD5C",
"w. c #EBCC5C",
"e. c #F2C856",
"r. c #F1C35C",
"t. c #F2CB5E",
"y. c #E6D157",
"u. c #EAD255",
"i. c #E5D15C",
"p. c #EAD15C",
"a. c #DDC263",
"s. c #DDC26C",
"d. c #CEC27E",
"f. c #D9CC74",
"g. c #D6C578",
"h. c #E2C464",
"j. c #EDC363",
"k. c #E5CD62",
"l. c #ECCC62",
"z. c #E4C56D",
"x. c #EDC46C",
"c. c #E7C86D",
"v. c #EACD69",
"b. c #F3C463",
"n. c #F3CA62",
"m. c #F5C46C",
"M. c #F9C76A",
"N. c #F3CE6B",
"B. c #E6D262",
"V. c #EBD364",
"C. c #E5D865",
"Z. c #ECDA65",
"A. c #E6D46C",
"S. c #ECD56C",
"D. c #E7DB68",
"F. c #ECD96C",
"G. c #F2D366",
"H. c #F3D46B",
"J. c #FAD06E",
"K. c #F1D96D",
"L. c #E9C570",
"P. c #E5CA76",
"I. c #F5CB74",
"U. c #E6D673",
"Y. c #ECD572",
"T. c #E7D974",
"R. c #ECD973",
"E. c #E5D57B",
"W. c #ECD47C",
"Q. c #F3D372",
"!. c #F9D574",
"~. c #F2D974",
"^. c #F1D47B",
"/. c #F3D97A",
"(. c #F9D97D",
"). c #3C7EE4",
"_. c #3F80E4",
"`. c #5E91DE",
"'. c #6997DD",
"]. c #6D9ADB",
"[. c #7B9FD4",
"{. c #759ED9",
"}. c #7EA1CE",
"|. c #7AA2DA",
" X c #4282E4",
".X c #4B87E3",
"XX c #4E89E3",
"oX c #528CE3",
"OX c #588EE1",
"+X c #5790E6",
"@X c #5B91E1",
"#X c #6395E1",
"$X c #6B9DE8",
"%X c #B6AF8F",
"&X c #BDB799",
"*X c #9AA7B9",
"=X c #9CABBC",
"-X c #A7AFAD",
";X c #ADAFAB",
":X c #B5B4A4",
">X c #A6B4B6",
",X c #A8B0B3",
"<X c #B2B9B3",
"1X c #B6BEB7",
"2X c #C8B987",
"3X c #C8B789",
"4X c #C0B8A3",
"5X c #BFC1AE",
"6X c #BCC4B9",
"7X c #D7C588",
"8X c #D8D085",
"9X c #C8C29C",
"0X c #D3C699",
"qX c #E3D382",
"wX c #EBD484",
"eX c #E4D38B",
"rX c #EBD58B",
"tX c #FCD986",
"yX c #E3CF96",
"uX c #E2D296",
"iX c #C8C7A7",
"pX c #D9D3A9",
"aX c #C6C8BA",
"sX c #E2D8AB",
"dX c #8CA3C5",
"fX c #8DA7CA",
"gX c #97ADC6",
"hX c #86A8DA",
"jX c #9CB6D4",
"kX c #A3B3C5",
"lX c #B4C0C0",
/* pixels */
").).).).).).).).).).).).).).).).).).).).).).).).).).).).).).).).).).).).).).).).).).).).).).).).).).).",
").).).).).).).).).).).).).).).).).).).).).).).).).)._.).).).).).).).).).).).).).).).).).).).).).).).).",
").).).).).).).).).).).).).).).).).).).).).).OX$XfXkX1XiX5X1XkX}.{..X X).).).).).).).).).).).).).).).).",
").).).).).).).).).).).).).).).).).)._.+XhXaXiXeXqXP.I.P.z.z.z.z.| 2XiXgX`. X).).).).).).).).).).).).).",
").).).).).).).).).).).)._._._._._.].1XyXrXwXwXU.^.Q.H.v.v.v.v.h.L.L.c.s.g.9X]._.).).).).).).).).).).).",
").).).).).).).)._._.).)._..X.X'.<XuXwXW.^.^.R.S.S.Z.S.Z.V.V.q.k.N.k.9.5.-.a.f.&X{.).).).).).).).).).).",
").).).).).).).)._._._._.+X@XgXuXE.R.~.S.Y.A.S.S.Z.F.F.Z.Z.Z.V.q.q.8.V.n.q.-.-.k.g.<XXX).).).).).).).).",
").).).).).).).)._._..X$XjXaXeXE.A.F.F.F.F.R.S.F.F.F.Z.F.Z.p.i.y.u.7.8.k.w.7.,.1.-.} iX@X).).).).).).).",
").).).).).).).).).).XX|.sXeXE.R.F.F.F.R.S.A.F.R.A.F.F.C.Z.Z.Z.y.i.i.7.y.p.w.7.<.6.9.{ 0X]._._._.).).).",
").).).).).).).)._.XX|.pXqXT.Y.A.A.F.A.F.R.R.S.F.F.R.S.S.F.V.Z.Z.q.i.i.p.y.8.8.e.D 8.5.C 8X]._._.).).).",
").).).).).).).)._.#XpXE.A.F.R.S.F.F.S.S.S.G.K.H.H.N.H.!.Q.Q.N.Q.!.l.w.q.q.q.w.0.6.2.,.H { 8X]._.).).).",
").).).).).).).). XaXqXA.Z.Z.S.S.S.R.S.H.H.G.n.J.b.Q U Q E @.&.x.m.j.j.w.p.V.k.w.t.J D 8.9.V 0X@X).).).",
").).).).).).).).lXeXA.Z.K.V.S.Y.Y.A.Y.Q.H.j.Q v l r e q q r i i K L ! b.N.l.l.w.w.5.2.1.5.-.h.:X X).).",
").).).).).)._.$XuXT.F.Z.Z.Z.S.R.R.Q.H.v.Q x e e r h h f k h y h f , q c Q b.l.V.w.y.5.=.5.5.5.@.kX).).",
").).).).).). XiXqXT.~.S.H.H.R.H.G.N.#.B u 0 t p p h p p P a q i g = @ # t E 0.w.u.y.7.;.5.1.,.5.7X`.).",
").).).).).).|.qXT.R.S.S.S.S.S.Q.J.! c e i a k p p a a &.tXI.c i g f 8 3 3 q Y r.8.u.7.;.;.,.,.5.C 6X).",
").).).)._..X0XT.S.V.Q.S.Z.F.N.!.m.m e i y t p p p s @.tX^.I.E w f f 9 9 3 5 8 P M.w.u.;.=.7.n 5.9.+.'.",
").).).)._.hXrXA.S.S.R.R.Z.F.I.x.u t i k j j j p s s L.wX^.I.$.r f g 9 7 9 6 * * Y r.y.7.1.1.2.5.-.v.kX",
").).).)._.6XwXF.F.F.S.R.Z.V.N.@.i f j g w f j k p m tXW.Y.(.N.L g g 8 & 5 6 6 & r r.t.w.5.,.8.H ,.a.4X",
").)._._.oXuXwXS.K.S.S.H.Z.Z.j.u f f f f f k j t t @.tXW.Y.Y.Q.! , f * * 5 & * $ % S t.t.1.1.6.H 1.:.g.",
").).).).].eXT.S.~.S.S.H.S.N.E q f f y i h i i i m (./.I.Y.S.S.v.c - % % = % $ $ o < ~ n.5.5.,.1.2.-.} ",
").).).).6XE.S.F.R.S.!.V.S.j.c y w h m m m M L @.L.tXU.Y./.Y.A.H.~ A < ; ; ; , % % % Y b.7.5.,.4.3.5.a.",
").).).).iXU.S.S.R.S.S.H.H.Q i a i #.I.(.(.(.(.tX^.tXY.Y.Q.S.F.F.!.b.~ r.T T Y A , + c b.w.=.*.,.1.5.5.",
").).). X8XZ.S.S.S.~.V.H.H.v y a m L.(.T.U.R.S.Y.U.Y.R.Q.S.S.F.C.V.l.w.V.0.n.n.$.w = e j.k.n ;.*.*.3.5.",
").).).XXd.i.Z.F.R.S.H.H.N.M y k m h./.U.U.T.R.A.U.R.Y.Q.H.H.Z.D.>.B.q.B.q.w.N.$.q , : #.9.;.1.,.1.3.3.",
").).).oXf.u.Z.F.Q.R.H.G.N.v y j s N c.Y.T.R.A.U.T.A.Y.Q.J.G.Z.C.>.i.q.q.k.l.r.A = = # $.5.2.,.1.1.,.,.",
").).).XXf.y.G.V.~.S.H.H.H.z y f y u N j.!.H.S.R.F.F.S.H.H.H.V.B.i.>.V.0.0.! A , = $ = R T 5.<.<.<.1.,.",
").).).XXf.8.k.V.S.S.S.H.H.x y j y y i m ! Q.!.S.F.S.H.H.G.G.B.i.i.q.V.l.Q c 8 - 6 $ , W R J 2.<.2.1.,.",
").).).XXg.7.k.l.V.V.V.S.H.x y j j j f w c j.!.S.R.S.H.H.G.V.k.p.p.w.l.Q e = & 6 * $ , R R 2.2.1.5.1.,.",
").).).XXd.9.w.l.V.B.S.H.H.U i j j g f f r v H.F.S.S.H.H.V.w.q.w.w.w.l.x # 6 . . * $ < R 1.2.2.2.1.1.5.",
").)._..X7X9.l.l.p.q.S.v.V.0.i j y w f g e v S.F.F.V.V.V.k.i.p.w.t.w.l.z 3 8 . . * # l 5.5.2.2.,.J 5.5.",
").)._._.3Xk.0.w.w.7.v.A.w.0.e h p f f g r M H.V.F.V.k.q.q.q.V.w.p.w.j.z - 6   d & : v 5.5.1.=.=.=.5.7.",
").).).).-Xa.;.e.u.w.k.v.k.0.A + = 7 8 8 : Q 0.G.8.q.q.i.V.q.7.w.k.V.0.F X $ d & & i Y 5.1.1.1.3.7.*.-.",
").).).).fXs.7.4.t.l.k.q.w.N.Y , - 5 = # , b.n.0.w.l.p.w.7.w.l.w.q.q.n.R ; $ * - # c R 6.1.5.5.1.1.5.C ",
").).).).].+.w.,.8.w.V.k.k.G.0.A * * = # e m.m.l.v.w.T b v L $.b.G.w.b.$.y 7 & # , F 6.6.1.1.7.,.,.7.s.",
").).).). X3X{ 5.4.w.V.v.k.l.n.W r - o , r b.M.m.j.M 0 > # 7 g I b.n.M.%.a 7 # = S R 6.2.*.2.5.1.<.9.2X",
").).).).).fX` 7.1.7.k.V.k.k.n.n.W r X O r $.%.$.K q 7 = 5 @ 5 w A R M.%.t 3 q l R 2.1.2.1.1.1.1.<.B >X",
").).).).).'.O.a.5.,.5.k.w.p.p.w.n.Y r O + i h q 8 5 5 5 5 6 6 & ; < K a 4 7 c ~ 6.1.,.3.7.1.1.1.5.] {.",
").).).).)._.<X} 5.*.1.5.8.y.p.7.w.t.0.x ; ; = @ & 5 9 5 5 9 6 & % ; O : 0 L R 6.2.1.1.1.2.1.J 2.Z :X X",
").).).).).).].2 a.5.6.1.1.8.u.u.w.w.0.0.v > , % = & & 7 5 5 & = ; + ; l U 6.2.1.1.2.5.1.1.2.<.Q ) [.).",
").).).).).). X=X} Z 4.<.H 2.3.,.8.w.8.t.n.0.U z > , # + + % $ , < A G R 2.,.1.1.3.*.*.2.5.5.T [ ;X X).",
").).).).).)._.`.%Xa.n <.6.H 4.,.3.7.8.w.t.n.l.j.! U U L S S S S Y R R 2.<.1.*.3.*.4.2.*.5.9.{ ..'.).).",
").).).).).).).).}...C 0.T R ,.3.1.=.=.;.5.5.0.r.0.0.6.6.R J 2.6.r.e.2.1.3.3.1.=.n 4.*.1.l.]  .fX).).).",
").).).).).).).). XdX' { x.9.2.,.;.3.5.5.=.H 1.5.6.2.5.5.2.2.1.3.2.G ,.1.1.3.1.=.,.1.H 5.s. .*X_.).).).",
").).).).).).).).). X*X/ #.x.Q =.;.;.;.1.2.5.6.2.2.2.5.1.5.=.=.3.<.2.2.1.=.1.1.1.5.n h.#.1 -X.X).).).).",
").).).).).).).).)._. X=XX.[ Z 5.;.=.,.1.1.2.2.1.<.<.<.1.,.1.=.*.2.2.3.5.5.1.1.5.0.Q V ( -X.X).).).).).",
").).).).).).).).).).). XdX/ | n 6.6.6.5.2.5.1.1.1.3.2.2.1.2.1.1.1.1.5.1.=.1.1.5.T { o.*X.X).).).).).).",
").).).).).).).).).).).)._.[.2 ` C T 5.5.5.1.1.1.,.1.1.1.1.5.6.1.6.2.5.5.-.5.Q C N ..dX X).).).).).).).",
").).).).).).).).).).).).).).@X,X( N V Q 9.5.H 2.2.1.1.1.1.5.5.6.J D J 0.Q Z ^ ..;X'.).).).).).).).).).",
").).).).).).).).).).).).).).).).[.:X .^ ] @.Q n n 1.2.6.6.5.T Q G R V N ^ ..:X|. X).).).).).).).).).).",
").).).).).).).).).).).).).).).).)._.].=X%X1 ' ] N B U U U Y L E [ ) / 3X;X[.oX).).).).).).).).).).).).",
").).).).).).).).).).).).).).).).).).)._.XX|.=X%X2X..( ^ ^ _  .X.&X*X[.`. X).).).).).).).).).).).).).).",
").).).).).).).).).).).).).).).).).).).).).).)._..XOX'.'.'.].OXXX X).).).).).).).).).).).).).).).).).).",
").).).).).).).).).).).).).).).).).).).).).).).).).).).).).).).).).).).).).).).).).).).).).).).).).).).",
").).).).).).).).).).).).).).).).).).).).).).).).).).).).).).).).).).).).).).).).).).).).).).).).).).)."
};
