/* XPM */
static char *out[] = {
/* columns rows colors chars-per-pixel */
"51 55 233 2 ",
"   c #C48D2E",
".  c #CB8635",
"X  c #CC8B34",
"o  c #C98738",
"O  c #CD8C3B",
"+  c #D38535",
"@  c #D18B34",
"#  c #D98837",
"$  c #D4853B",
"%  c #D9863B",
"&  c #D38B3D",
"*  c #CA9437",
"=  c #CC933B",
"-  c #D3943D",
";  c #D7983D",
":  c #B5A975",
">  c #BAA979",
",  c #CE8342",
"<  c #D48442",
"1  c #D88746",
"2  c #D38E42",
"3  c #DA8C43",
"4  c #CE9343",
"5  c #CB9B43",
"6  c #CE9B49",
"7  c #D39443",
"8  c #DA9445",
"9  c #D49B44",
"0  c #D99946",
"q  c #D4944B",
"w  c #DB954A",
"e  c #D49C4B",
"r  c #DC9A4B",
"t  c #DC9C53",
"y  c #DA9C56",
"u  c #E09246",
"i  c #E1964D",
"p  c #E19B4C",
"a  c #E19A52",
"s  c #E89952",
"d  c #CCA84E",
"f  c #D3A447",
"g  c #D3A44C",
"h  c #DBA44B",
"j  c #D4AC4D",
"k  c #DBAB4D",
"l  c #DCB14E",
"z  c #DAB94B",
"x  c #CBA956",
"c  c #D5A555",
"v  c #DBA453",
"b  c #D4A954",
"n  c #DBAA54",
"m  c #D4A55A",
"M  c #DAA45A",
"N  c #D5AA5C",
"B  c #DAAA5B",
"V  c #C8B35A",
"C  c #DCB354",
"Z  c #DCB35A",
"A  c #D9B858",
"S  c #E2AA46",
"D  c #E2A54D",
"F  c #E6A94A",
"G  c #E2AB4C",
"H  c #E1B34C",
"J  c #EAB649",
"K  c #E3BC4D",
"L  c #E9BD4D",
"P  c #E5A755",
"I  c #E3AC54",
"U  c #E4AC5B",
"Y  c #E3B455",
"T  c #E9B454",
"R  c #E4BC54",
"E  c #EABD54",
"W  c #E3B45A",
"Q  c #EBB45B",
"!  c #E4BD5C",
"~  c #ECBC5B",
"^  c #F1BA5E",
"/  c #CAA866",
"(  c #CCAC6D",
")  c #D2A665",
"_  c #D8A666",
"`  c #D4AA64",
"'  c #DAA962",
"]  c #D4A96A",
"[  c #CBB467",
"{  c #DABA67",
"}  c #CBAB73",
"|  c #C6A778",
" . c #D5A672",
".. c #CCB779",
"X. c #D4BA78",
"o. c #E3A563",
"O. c #E2AB63",
"+. c #E4BC63",
"@. c #EDBD62",
"#. c #EBBA6A",
"$. c #F7BC65",
"%. c #D9C646",
"&. c #DCC44C",
"*. c #DECA4C",
"=. c #DEC354",
"-. c #DDCA52",
";. c #DCC45B",
":. c #DFCB5B",
">. c #E4C649",
",. c #E3C34D",
"<. c #E9C24D",
"1. c #F1C14C",
"2. c #E7D04E",
"3. c #E4C453",
"4. c #EAC353",
"5. c #E5CB54",
"6. c #EBCA56",
"7. c #E4C25A",
"8. c #EBC55B",
"9. c #E5CC5D",
"0. c #EACB5C",
"q. c #F2C559",
"w. c #F2CA5B",
"e. c #E5D35B",
"r. c #E5D458",
"t. c #EAD25D",
"y. c #CFC66C",
"u. c #D7C765",
"i. c #DBC26C",
"p. c #DCD56F",
"a. c #CEC976",
"s. c #D5C37C",
"d. c #D7C978",
"f. c #E4C264",
"g. c #EDC463",
"h. c #E5CC62",
"j. c #ECCC63",
"k. c #E2C56B",
"l. c #EBC46A",
"z. c #EDCC6B",
"x. c #F3C463",
"c. c #F8C667",
"v. c #F4CA64",
"b. c #FAC46B",
"n. c #F3CB6B",
"m. c #FBCC6B",
"M. c #E3D565",
"N. c #ECD364",
"B. c #E3DA64",
"V. c #EBD965",
"C. c #E6D56B",
"Z. c #ECD56C",
"A. c #E5DA6A",
"S. c #ECD96C",
"D. c #F1D466",
"F. c #F3D36C",
"G. c #F8D16F",
"H. c #F1D96D",
"J. c #EBCB72",
"K. c #F5CD73",
"L. c #FACD73",
"P. c #F8CA77",
"I. c #ECD572",
"U. c #E8D676",
"Y. c #EDD972",
"T. c #F4D373",
"R. c #F9D574",
"E. c #F2DA73",
"W. c #F8D871",
"Q. c #F4D37A",
"!. c #FAD37B",
"~. c #F2DC7B",
"^. c #EFE26E",
"/. c #3F7FDF",
"(. c #3C7EE4",
"). c #437ED4",
"_. c #417EDD",
"`. c #417FE2",
"'. c #7A9AB8",
"]. c #588ACE",
"[. c #4982D4",
"{. c #4481DD",
"}. c #4B84DD",
"|. c #5488D9",
" X c #638FCA",
".X c #6692CC",
"XX c #6C93CC",
"oX c #7D9BC5",
"OX c #759AC8",
"+X c #638FD5",
"@X c #6492D2",
"#X c #6B94D5",
"$X c #739BDA",
"%X c #7BA1CF",
"&X c #4180E1",
"*X c #9F9D95",
"=X c #9DA69C",
"-X c #B7AA84",
";X c #A7A899",
":X c #BAAD96",
">X c #B8B693",
",X c #8598AA",
"<X c #8A98AA",
"1X c #939DA8",
"2X c #879DB9",
"3X c #9FADAB",
"4X c #86A1BA",
"5X c #93A4B5",
"6X c #94A8BA",
"7X c #A7AFAF",
"8X c #A8ABAC",
"9X c #B4ADA4",
"0X c #B6B7A6",
"qX c #B2B6BB",
"wX c #C1A885",
"eX c #C5B485",
"rX c #C5BF9F",
"tX c #BEC192",
"yX c #B8C2A7",
"uX c #B9C6B6",
"iX c #C8C788",
"pX c #D6C885",
"aX c #DAD388",
"sX c #D7C89D",
"dX c #E3D28A",
"fX c #FED581",
"gX c #C8C6A4",
"hX c #C1C7B4",
"jX c #C3CAB5",
"kX c #859DC7",
"lX c #89A4C6",
"zX c #94B1C8",
"xX c #A9B7D0",
/* pixels */
"(.(.(.(.(.(.(.(.(.(.(.(.(.(.(.(.(.(.(.(.(.(.(.(.(.(.(.(.(.(.(.(.(.(.(.(.(.(.(.(.(.(.(.(.(.(.(.(.(.(.(.",
"(.(.(.(.(.(.(.(.(.(.(.(.(.(.(.(.(.(.(.(.(.(././././.).).).).)._.(.&X(.(.(.(.(.(.(.(.(.(.(.(.(.(.(.(.(.",
"(.(.(.(.(.(.(.(.(.(.(.(.(.(.(.(.(.(.(.|.XXlX5X3X:X0XjXjXjXuXhXhXuX5X X[./.(.(.(.(.(.(.(.(.(.(.(.(.(.(.",
"(.(.(.(.(.(.(.(.(.(.(.(.(.(.(.(.&XOX6X7X:XwXeX....s.dXdXaXaXpXd.pXiXgXuXzX@X{.(.(.(.(.(.(.(.(.(.(.(.(.",
"(.(.(.(.(.(.(.(.(.(.(.(.`.`._.lX;XeXeX} / / +.J.dXQ.~.U.A.A.M.M.u.I.p.a.a.iX0XXX/.(.(.(.(.(.(.(.(.(.(.",
"(.(.(.(.(.(.(.(.(.(.(.(.(.@XxX> } / x x Z g.L.T.T.I.I.C.A.B.B.e.t.t.:.-.-.:.s.rXxX[.(.(.(.(.(.(.(.(.(.",
"(.(.(.(.(.(.(.(.(.(.(.(.$X;X: V N m b +.K.R.W.Z.F.I.Y.E.E.Y.A.N.0.9.8.N.V.u.;.y.iXjX.X`.(.(.(.(.(.(.(.",
"(.(.(.(.(.(.(.(.(.(.(.#X*X} V d d Z k.z.F.z.Z.H.E.Z.I.Z.Z.F.Z.Z.F.N.t.0.0.e.r.*.u.s.hXXX`.(.(.(.(.(.(.",
"(.(.(.(.(.(.(.(.(.(..X;X} ] m d V i.I.I.H.V.N.V.V.D.D.F.F.R.T.T.T.J.z.h.e.r.2.5.! l.X.gX.X(.(.(.(.(.(.",
"(.(.(.(.(.(.(.(.(.}.;XV m M B b { J.T.C.S.S.V.V.V.N.H.N.n.F.K.T.Q.J.I.h.5.r.w.2.q.^ +.pXyX@X(.(.(.(.(.",
"(.(.(.(.(.(.(.(.&X6X} x U M ' ' n.D.H.Z.S.S.A.U.C.I.I.Q.E.T.T.T.Z.T.T.j.0.q.w.w.w.~ -.u.aXyX|.(.(.(.(.",
"(.(.(.(.(.(.(.(.oX> / y O.B ' J.G.D.D.Z.S.U.C.U.~.E.I.z.k.! Z A 7.7.g.z.w.w.w.w.j.f.*.%.:.tXlX_.(.(.(.",
"(.(.(.(.(.(.(.|.7X| O.v v B #.P.G.D.G.F.C.I.I.Y.T.l.C n h 9 9 9 D 0 v U R q.v.v.h.9.>.%.%.y.gX.X(.(.(.",
"(.(.(.(.(.(.(.kXwX .M U 6 Z J.T.G.F.F.H.I.T.R.K.W k f 8 8 0 w r 8 w w 6 ; H w.v.j.j.2.%.*.;.X.7X_.(.(.",
"(.(.(.(.(.(.|.9X .' e W g ! H.Z.S.C.I.E.Z.K.l.Q r r w w w t t U r p t q o * G ^ v.c.5.>.*.-.A sX#X(.(.",
"(.(.(.(.(.(.kXeX) c I g k z.H.V.A.B.Y.I.K.L.#.0 r p i i y a #.!.Q r w w 4 o = P b.L.3.2.%.-.j.s.zX{.(.",
"(.(.(.(.`._.9X} ' B j f ~ n.H.V.B.A.A.E.n.+.r p i w t w y N fXK.P.e w i $ 2 o 4 n $.v.8.&.5.&.y.iX].(.",
"(.(.(.(.`.+X-X] N n b j x.D.H.N.A.A.S.G.~ P 8 w s i t 6 6 #.Q.Q.!.B t s 1 1 O O e Q m.v.=.-.%.u.pX'.(.",
"(.(.`.`.`.kXwX_ m B j l n.H.Z.S.V.C.H.n.U h r i 8 w t y v P.Q.K.P.W 8 u % $ . O & D q.m.E >.&.;.pXyX[.",
"(.(.`.`._.qX| ` m n k Y G.H.Z.Z.I.F.T.n.h e a i s a w q B !.!.Q.R.l.p u % $ & & @ # T c.4.4.3.=.y.gX].",
"(.(.(.(.|.9X} ' c n k ! F.H.N.Y.E.T.K.Q 6 4 t q q t 4 c #.!.!.R.T.L.P 0 . + O X @ X S w.^ 1.<.3.u.pXoX",
"(.(.(.(.XX:X] m B c k 8.Z.S.C.Y.T.n.n.n 5 e P n v ' ' l.fXQ.Q.I.F.W.~ F - - = X & X u q.q.4.4.R R i.3X",
"(.(.(.`.kXwX) m B g n v.N.C.C.Y.E.T.g.d 6 n #.P.fXfXQ.T.~.I.I.U.S.^.F.v.~ ~ Q Q D @ * E 4.3.,.<.4.f.>X",
"(.(.(.`.5X} ` c Z g C v.N.V.Y.Y.T.K.@.5 6 Z P.fX!.U.~.U.I.U.C.V.M.M.N.D.x.n.m.b.Q ;   K 8.3.3.<.<.=.a.",
"(.(.(._.8X/ ' y b j k w.N.S.C.Y.Z.K.! f e n P.!.Q.I.I.~.C.C.C.A.^.B.B.t.j.v.@.b.^ -   H 8.3.&.<.>.-.y.",
"(.(.(._.9X_ B v B b k j.N.Z.V.H.n.m.W f 9 e @.L.!.I.C.Y.A.S.V.V.B.e.B.9.h.n.l.$.F -   K 3.3.3.<.>.-.y.",
"(.(.(.`.:X] M v n b C 8.j.Z.N.H.R.m.T 9 9 9 F Q L.R.T.Z.S.H.Z.V.V.V.N.9.j.n.@.T & # X S 8.3.,.4.,.=.y.",
"(.(.(.`.:X_ m B B b l j.j.j.N.S.R.m.Q ; p 8 0 D @.n.R.Z.D.N.D.D.N.t.h.8.n.g.G - # # X D E 4.L <.>.3.u.",
"(.(.`._.9X_ ' y M N j 7.g.v.0.N.F.L.~ 8 p p 8 0 v $.T.F.H.D.N.D.j.0.0.j.n.k - . + # @ G E 4.4.<.>.=.{ ",
"(.(.(.`.9X .' M M n j 7.g.v.e.t.F.m.~ 9 r p u p 9 W n.F.W.Z.Z.t.0.0.j.v.g.5 O & # # @ S E 4.,.<.,.=.i.",
"(.(.(.`.qX ._ M B m j ! g.c.6.t.z.J.l.r 8 r p r 9 n z.Z.Z.M.N.9.h.0.j.z.f.* O & % % @ T 7.,.,.3.=.;.=X",
"(.(.(.`.6X| _ y O.B j R 8.c.0.t.h.j.n.n 0 w 8 0 e C T.E.N.:.N.9.0.9.j.j.j.5 O . % + ; 8.8.&.,.3.3.i.OX",
"(.(.(.(.kX-X .y o.a k R A D.9.h.h.j.c.Y o O w O = ! j.9.N.9.t.e.r.r.e.9.j.e o 3 % . D E 3.3.>.<.x.X.(.",
"(.(.(.(.#XwX .o.o.a v R R 0.9.h.N.6.v.Q - O 2 O = Q x.0.v.0.j.8.6.t.9.9.c.I & % % - T 8.3.,.&.3.7.;X(.",
"(.(.(.(.).9X .o.o.y b C K 3.3.N.t.8.v.w.h O O O = $.c.n.x.R Y j l j.j.v.x.O.2 + # ; ,.<.5.3.,.! i.@X(.",
"(.(.(.(._.6X| o.O._ N j K >.3.5.2.w.v.c.Q - O 2 0 P.b.$.Q f 7 O 7 U x.m.b.Q 2 O ; S <.*.*.3.E 7.s.(.(.",
"(.(.(.(.(.OXwXM B m N g z >.<.>.5.6.w.v.q.I 7 O 7 $.$.P q & % $ 1 q v Q $.P 7 O k 4.5.*.%.&.E f.a.(.(.",
"(.(.(.(.(.|.;X) M c ` x k L 3.,.5.r.6.w.m.c.h = o t r 0 & < 1 < 1 , 2 0 D - - f E 3.>.%.&.>.4.{ 3X(.(.",
"(.(.(.(.(.`.kX/ ` c N c n Y R <.3.5.4.6.c.m.^ G = X = O & 1 < < 1 , 2 O & = k T 8.R z >.>.2.6.{ %X(.(.",
"(.(.(.(.(.(.+X-X` j n v P U R 8.&.3.6.6.q.v.m.v.~ = = o & & % % , 7 O O @ S L 8.7.4.L 6.,.z :.>X&X(.(.",
"(.(.(.(.(.(.(.5X} g n I t P W Q 3.3.7.5.8.0.v.v.x.~ H 9 @ X X X   * 9 h J <.,.,.8.R 1.1.>.z a.4X(.(.(.",
"(.(.(.(.(.(.(.$X: { g e I h W Z 7.7.3.7.3.4.4.0.w.v.w.~ E T T F K K T E E 4.<.3.K q.J J 4.U.=X}.(.(.(.",
"(.(.(.(.(.(.(.(.2X} x k h h v B ! 7.7.7.3.,.3.3.3.5.8.8.q.4.E 4.! 3.4.E <.>.&.3.K 4.1.L u.iXOX/.(.(.(.",
"(.(.(.(.(.(.(.(.&X1X( b k k k n Y ! R 7.3.-.&.,.,.3.,.,.K 4.4.3.=.&.K >.K >.&.3.4.L 4.x...'.(.(.(.(.(.",
"(.(.(.(.(.(.(.(.(.#X-X/ ` c U c n C ! 8.3.3.3.>.,.,.3.3.3.,.,.,.>.>.,.,.>.,.,.>.4.K h.s.4X}.(.(.(.(.(.",
"(.(.(.(.(.(.(.(.(.(.OXeX/ m B n c n Y R 3.3.>.>.,.,.,.,.,.3.3.&.3.,.,.&.,.&.,.R 8.u.X.5X@X(.(.(.(.(.(.",
"(.(.(.(.(.(.(.(.(.(.&XkX| ` c n v n k l K ,.<.<.<.<.<.K ,.,.3.5.<.<.,.>.3.3.4.4.3.i.,X@X(.(.(.(.(.(.(.",
"(.(.(.(.(.(.(.(.(.(.(.&X4X> ( m B v k k k K K <.4.4.8.3.3.,.&.,.K >.>.>.3.=.! i.[ '.@X(.(.(.(.(.(.(.(.",
"(.(.(.(.(.(.(.(.(.(.(.(.(.OX:X( N m n h D S F T ~ 8.~ 9.7.3.-.<.K >.>.>.>.:.{ -XOX}.(.(.(.(.(.(.(.(.(.",
"(.(.(.(.(.(.(.(.(.(.(.(.(.(.XX2X> } / N n D D P Y W ! A ;.3.3.3.8.0.8.A V > '.@X&X(.(.(.(.(.(.(.(.(.(.",
"(.(.(.(.(.(.(.(.(.(.(.(.(.(.(.`.XX4X;X| } _ m v v b B Z Z C R A A x : 1XOX@X&X(.(.(.(.(.(.(.(.(.(.(.(.",
"(.(.(.(.(.(.(.(.(.(.(.(.(.(.(.(.(.&X|.#XoX2X2X1X<X<X<X<X<X,X,X,X'. X@X}.&X(.(.(.(.(.(.(.(.(.(.(.(.(.(.",
"(.(.(.(.(.(.(.(.(.(.(.(.(.(.(.(.(.(.(.(.(.(.`.(.`.`.&X`._.`.`.`.(.(.(.(.(.(.(.(.(.(.(.(.(.(.(.(.(.(.(.",
"(.(.(.(.(.(.(.(.(.(.(.(.(.(.(.(.(.(.(.(.(.(.(.(.(.(.(.(.(.(.(.(.(.(.(.(.(.(.(.(.(.(.(.(.(.(.(.(.(.(.(.",
"(.(.(.(.(.(.(.(.(.(.(.(.(.(.(.(.(.(.(.(.(.(.(.(.(.(.(.(.(.(.(.(.(.(.(.(.(.(.(.(.(.(.(.(.(.(.(.(.(.(.(."
};
