/* XPM */
static char *out[] = {
/* columns rows colors chars-per-pixel */
"51 55 78 1 ",
"  c #D4A44F",
". c #DEA74E",
"X c #D7AA4D",
"o c #DAA94E",
"O c #C6A65B",
"+ c #CBA65F",
"@ c #CFAC5B",
"# c #D6A654",
"$ c #DBA655",
"% c #D7A855",
"& c #D9A855",
"* c #D5A65C",
"= c #DBA65A",
"- c #D5A95A",
"; c #D9A95B",
": c #CEA664",
"> c #CEA965",
", c #C6A669",
"< c #CCA669",
"1 c #CBAB6C",
"2 c #D4A563",
"3 c #DBA563",
"4 c #D2A964",
"5 c #D9A961",
"6 c #D2A66B",
"7 c #D3AA69",
"8 c #C5A773",
"9 c #CBA672",
"0 c #CBAD74",
"q c #C7AE7B",
"w c #C9AE7E",
"e c #D4A974",
"r c #C6B07F",
"t c #D2B076",
"y c #3C7EE4",
"u c #5F92DF",
"i c #6294DE",
"p c #6E9ADC",
"a c #769CD7",
"s c #729BDB",
"d c #7FA4D6",
"f c #7EA0D8",
"g c #4383E4",
"h c #4E89E3",
"j c #518AE3",
"k c #5E92E0",
"l c #6293E0",
"z c #709CE0",
"x c #BEB19B",
"c c #B5AEA2",
"v c #B7AEAD",
"b c #B6B2A3",
"n c #B9B5A1",
"m c #B4B3AB",
"M c #B9B4AD",
"N c #A5ADB1",
"B c #A3ADBC",
"V c #AFB2B6",
"C c #ADB4BC",
"Z c #B3B2B4",
"A c #BBB6B3",
"S c #C9AB82",
"D c #C5AE8C",
"F c #C8AF8F",
"G c #C9B183",
"H c #C3B08B",
"J c #D0B086",
"K c #C1AC92",
"L c #C3AF9C",
"P c #C3B595",
"I c #85A3CE",
"U c #94A7C3",
"Y c #96AAC4",
"T c #92A6CB",
"R c #93A9CB",
"E c #84A3D2",
"W c #82A1D9",
"Q c #91A7D0",
/* pixels */
"yyyyyyyyyyyyyyyyyyyyyyyyyyyyyyyyyyyyyyyyyyyyyyyyyyy",
"yyyyyyyyyyyyyyyyyyyyyyyyyyyyyyyyyyyyyyyyyyyyyyyyyyy",
"yyyyyyyyyyyyyyyyyyylVMZvZZVVVCiyyyyyyyyyyyyyyyyyyyy",
"yyyyyyyyyyyyyyyyyyyA<*233222<,Mgyyyyyyyyyyyyyyyyyyy",
"yyyyyyyyyyyyyyyyyylS2$==$$$&*@0syyyyyyyyyyyyyyyyyyy",
"yyyyyyyyyyyyyyyyyyR1====...&;@,Yyyyyyyyyyyyyyyyyyyy",
"yyyyyyyyyyyyyyyyyyN>5325.o&&X%Ongyyyyyyyyyyyyyyyyyy",
"yyyyyyyyyyyyyyyyygD-4452&X&&#@-rjyyyyyyyyyyyyyyyyyy",
"yyyyyyyyyyyyyyyyyj0#--==Xo.=$.=esyyyyyyyyyyyyyyyyyy",
"yyyyyyyyyyyyyyyyys7&#%*=Xo===$;7Wyyyyyyyyyyyyyyyyyy",
"yyyyyyyyyyyyyyyyyE4&&&$.o&====-1Ryyyyyyyyyyyyyyyyyy",
"yyyyyyyyyyyyyyyyyR2$=$3..$=3=;-<Byyyyyyyyyyyyyyyyyy",
"yyyyyyyyyyyyyyyyyB>;33==*=33==-1mgyyyyyyyyyyyyyyyyy",
"yyyyyyyyyyyyyyyygN633==$**3=$=-<xhyyyyyyyyyyyyyyyyy",
"yyyyyyyyyyyyyyyygb633=&&&=*=.$#7Fjyyyyyyyyyyyyyyyyy",
"yyyyyyyyyyyyyyyygP633$XX%%=$.$#5Slyyyyyyyyyyyyyyyyy",
"yyyyyyyyyyyyyyyygH233=$&===$$&;57iyyyyyyyyyyyyyyyyy",
"yyyyyyyyyyyyyyyyhG3===$&===$;$==7ayyyyyyyyyyyyyyyyy",
"yyyyyyyyyyyyyyyyuS*===$%=*=&$$=*7Iyyyyyyyyyyyyyyyyy",
"yyyyyyyyyyyyyyyyuw3===%%===$=;=-7Iyyyyyyyyyyyyyyyyy",
"yyyyyyyyyyyyyyyyuq3===;%*==$;-$*7Iyyyyyyyyyyyyyyyyy",
"yyyyyyyyyyyyyyyys03=3=&&===$$;$*7Ryyyyyyyyyyyyyyyyy",
"yyyyyyyyyyyyyyyyp04===$&===$$;$*7Uyyyyyyyyyyyyyyyyy",
"yyyyyyyyyyyyyyyys1;$==$====$$=$*7Uyyyyyyyyyyyyyyyyy",
"yyyyyyyyyyyyyyyys13===-%===$;&$;2Uyyyyyyyyyyyyyyyyy",
"yyyyyyyyyyyyyyyys0=$==$%*=$;=;=*4Yyyyyyyyyyyyyyyyyy",
"yyyyyyyyyyyyyyyyE13===$%===$$*=;:Uyyyyyyyyyyyyyyyyy",
"yyyyyyyyyyyyyyyyp1====&%==$&;$*=4Cyyyyyyyyyyyyyyyyy",
"yyyyyyyyyyyyyyyyd1-$3$$;====$=$-:Yyyyyyyyyyyyyyyyyy",
"yyyyyyyyyyyyyyyyp1;===$&==$&=%=*:Yyyyyyyyyyyyyyyyyy",
"yyyyyyyyyyyyyyyys1;$==%-===$$=$=:Yyyyyyyyyyyyyyyyyy",
"yyyyyyyyyyyyyyyyp0;$==&%==$&;;=54Yyyyyyyyyyyyyyyyyy",
"yyyyyyyyyyyyyyyyp1*===$&$=&&===3+Yyyyyyyyyyyyyyyyyy",
"yyyyyyyyyyyyyyyyp0*$==&&$$&&==3=>Yyyyyyyyyyyyyyyyyy",
"yyyyyyyyyyyyyyyyuw*===$$&&&&===4>Iyyyyyyyyyyyyyyyyy",
"yyyyyyyyyyyyyyyykS*$==$$;%&&===3>Iyyyyyyyyyyyyyyyyy",
"yyyyyyyyyyyyyyyyhG*$==$$$;;%$==21fyyyyyyyyyyyyyyyyy",
"yyyyyyyyyyyyyyyyhG:===$$$$&%===31fyyyyyyyyyyyyyyyyy",
"yyyyyyyyyyyyyyyygP4==&$$$%*$$==2qiyyyyyyyyyyyyyyyyy",
"yyyyyyyyyyyyyyyygc4;;=$$-=$-$;=4Hhyyyyyyyyyyyyyyyyy",
"yyyyyyyyyyyyyyyygZ4*&=$=&==-$#=6Khyyyyyyyyyyyyyyyyy",
"yyyyyyyyyyyyyyyyyB1;%;===&*=$$=6Lgyyyyyyyyyyyyyyyyy",
"yyyyyyyyyyyyyyyyyR1--%==;%*&$$=6vyyyyyyyyyyyyyyyyyy",
"yyyyyyyyyyyyyyyyyQ<-%=====;=&&;6Byyyyyyyyyyyyyyyyyy",
"yyyyyyyyyyyyyyyyys1--$===*=-&&&7Tyyyyyyyyyyyyyyyyyy",
"yyyyyyyyyyyyyyyyyit-;;===-*;&&=eWyyyyyyyyyyyyyyyyyy",
"yyyyyyyyyyyyyyyyyhD-%$===*=-& =wlyyyyyyyyyyyyyyyyyy",
"yyyyyyyyyyyyyyyyyyc4-$==$$;$$$4Dgyyyyyyyyyyyyyyyyyy",
"yyyyyyyyyyyyyyyyyyB93==$$$$$#4,Byyyyyyyyyyyyyyyyyyy",
"yyyyyyyyyyyyyyyyyyaS6=$$...$;>8Tyyyyyyyyyyyyyyyyyyy",
"yyyyyyyyyyyyyyyyyyhx4&.$.$$=*<Fhyyyyyyyyyyyyyyyyyyy",
"yyyyyyyyyyyyyyyyyyyR0<44>4770JTyyyyyyyyyyyyyyyyyyyy",
"yyyyyyyyyyyyyyyyyyygzpzszsssszgyyyyyyyyyyyyyyyyyyyy",
"yyyyyyyyyyyyyyyyyyyyyyyyyyyyyyyyyyyyyyyyyyyyyyyyyyy",
"yyyyyyyyyyyyyyyyyyyyyyyyyyyyyyyyyyyyyyyyyyyyyyyyyyy"
};
