/* XPM */
static char *out[] = {
/* columns rows colors chars-per-pixel */
"51 55 180 2 ",
"   c #CA8E36",
".  c #CB8639",
"X  c #CC8B3A",
"o  c #CA9233",
"O  c #C79439",
"+  c #CC943B",
"@  c #CC993E",
"#  c #D2913D",
"$  c #CEA73E",
"%  c #CDA83D",
"&  c #CB9C42",
"*  c #D29141",
"=  c #D29A43",
"-  c #DA9947",
";  c #D29D49",
":  c #DA9D4A",
">  c #CFA446",
",  c #CEA847",
"<  c #CFA048",
"1  c #CEA94E",
"2  c #D5A444",
"3  c #DAA446",
"4  c #D2AA44",
"5  c #DEAB47",
"6  c #D6A64C",
"7  c #DBA34C",
"8  c #D4AB4C",
"9  c #DAAD4E",
"0  c #D7B04B",
"q  c #DAB54F",
"w  c #D6A555",
"e  c #DAA655",
"r  c #D6AA54",
"t  c #D9A955",
"y  c #D5A55B",
"u  c #DBA659",
"i  c #D6A85B",
"p  c #DBAA5B",
"a  c #D5B252",
"s  c #DAB453",
"d  c #DEBB53",
"f  c #DDB35B",
"g  c #DFB85B",
"h  c #E5B44E",
"j  c #E4BF4E",
"k  c #E2A457",
"l  c #E3AA54",
"z  c #E2AD5C",
"x  c #E4B354",
"c  c #E4BB53",
"v  c #E9BE55",
"b  c #E3B45D",
"n  c #EAB65B",
"m  c #E7BC5C",
"M  c #EBBE5C",
"N  c #F1BC5E",
"B  c #CEA662",
"V  c #CFA863",
"C  c #CDA669",
"Z  c #CEAA6B",
"A  c #D1A663",
"S  c #D1A863",
"D  c #DBAB62",
"F  c #D1AA6B",
"G  c #DDAD6B",
"H  c #D8B86B",
"J  c #CDA773",
"K  c #CCAA75",
"L  c #CEAE79",
"P  c #D2AB72",
"I  c #D2AF79",
"U  c #CAB07D",
"Y  c #DBBC70",
"T  c #D0B17B",
"R  c #E5BB63",
"E  c #EBBD63",
"W  c #EABE68",
"Q  c #F3B464",
"!  c #F3BC64",
"~  c #F8B66C",
"^  c #F8BE6A",
"/  c #E1BE75",
"(  c #DDC25A",
")  c #DECC5D",
"_  c #E5C24E",
"`  c #E8C54F",
"'  c #E5C253",
"]  c #EAC356",
"[  c #E4C25B",
"{  c #ECC45B",
"}  c #E6CC5D",
"|  c #EECB5E",
" . c #F1CD5F",
".. c #D1C563",
"X. c #DCC262",
"o. c #DDCA65",
"O. c #DCC36B",
"+. c #DDC473",
"@. c #DECA71",
"#. c #D5C679",
"$. c #DAC27B",
"%. c #E4C263",
"&. c #EBC363",
"*. c #E5CD63",
"=. c #EDCC64",
"-. c #ECC26B",
";. c #EECD6B",
":. c #F2C264",
">. c #F1CB60",
",. c #F2C46B",
"<. c #F9C66C",
"1. c #F2CB6C",
"2. c #EED566",
"3. c #ECD867",
"4. c #E2D46B",
"5. c #EED46B",
"6. c #EEDA6A",
"7. c #F2D36C",
"8. c #F8D169",
"9. c #F5D96D",
"0. c #E1C172",
"q. c #E0C479",
"w. c #E9CC7C",
"e. c #F3C770",
"r. c #F4CB72",
"t. c #FACC75",
"y. c #F4D471",
"u. c #F8D474",
"i. c #F9D676",
"p. c #F4D578",
"a. c #FBD978",
"s. c #3C7EE4",
"d. c #5C92DF",
"f. c #6E99D6",
"g. c #6293DE",
"h. c #6E9BDD",
"j. c #739DD6",
"k. c #719BDB",
"l. c #7FA1D4",
"z. c #4383E4",
"x. c #4986E3",
"c. c #4E89E3",
"v. c #528BE2",
"b. c #5F93E1",
"n. c #6194E1",
"m. c #BBAF9C",
"M. c #BFB19D",
"N. c #A6B2AD",
"B. c #B3B3AE",
"V. c #B8B7A9",
"C. c #A5AEB4",
"Z. c #ACB2B6",
"A. c #AFBAB3",
"S. c #B2B4B3",
"D. c #C7AD84",
"F. c #C6AD88",
"G. c #C8B98F",
"H. c #C4AE91",
"J. c #CBB690",
"K. c #C0B4A4",
"L. c #B8C0AD",
"P. c #B2C2BB",
"I. c #D4C384",
"U. c #D5CC85",
"Y. c #D4CB94",
"T. c #D9CC9B",
"R. c #C3C4A7",
"E. c #D1CCAE",
"W. c #C3C5B2",
"Q. c #82A4CF",
"!. c #8EA6CC",
"~. c #8EAACD",
"^. c #95AAC2",
"/. c #9EACC4",
"(. c #91A7CB",
"). c #92ABCA",
"_. c #82A4D1",
"`. c #82A5DA",
"'. c #A6AFC2",
"]. c #A6B1C3",
/* pixels */
"s.s.s.s.s.s.s.s.s.s.s.s.s.s.s.s.s.s.s.s.s.s.s.s.s.s.s.s.s.s.s.s.s.s.s.s.s.s.s.s.s.s.s.s.s.s.s.s.s.s.s.",
"s.s.s.s.s.s.s.s.s.s.s.s.s.s.s.s.s.s.s.s.s.s.s.s.s.s.s.s.s.s.s.s.s.s.s.s.s.s.s.s.s.s.s.s.s.s.s.s.s.s.s.",
"s.s.s.s.s.s.s.s.s.s.s.s.s.s.s.s.s.d.P.E.V.B.S.S.B.S.B.B.S.Z.Z.l.s.s.s.s.s.s.s.s.s.s.s.s.s.s.s.s.s.s.s.",
"s.s.s.s.s.s.s.s.s.s.s.s.s.s.s.s.x.Y.@.w.H B B V S i V V V V B T f.s.s.s.s.s.s.s.s.s.s.s.s.s.s.s.s.s.s.",
"s.s.s.s.s.s.s.s.s.s.s.s.s.s.s.s.~.O.*.p.w.f i y y u u y i D y S m.z.s.s.s.s.s.s.s.s.s.s.s.s.s.s.s.s.s.",
"s.s.s.s.s.s.s.s.s.s.s.s.s.s.s.x.Y.o.*.5.y.f t r u y k u e p i i I g.s.s.s.s.s.s.s.s.s.s.s.s.s.s.s.s.s.",
"s.s.s.s.s.s.s.s.s.s.s.s.s.s.s.f.#.4.6.3.5.%.i i u u u k u w w i F (.s.s.s.s.s.s.s.s.s.s.s.s.s.s.s.s.s.",
"s.s.s.s.s.s.s.s.s.s.s.s.s.s.z.P...) 3.3.9.5.1 r w u u u u p p p S B.s.s.s.s.s.s.s.s.s.s.s.s.s.s.s.s.s.",
"s.s.s.s.s.s.s.s.s.s.s.s.s.s.s.L.o.*.2.2.9.y.g r w k u k A A k y S H.c.s.s.s.s.s.s.s.s.s.s.s.s.s.s.s.s.",
"s.s.s.s.s.s.s.s.s.s.s.s.s.s.v.U.} } 9.2.7.7.X.r e u k k k k u u S I g.s.s.s.s.s.s.s.s.s.s.s.s.s.s.s.s.",
"s.s.s.s.s.s.s.s.s.s.s.s.s.s.g.0.} 2.u.1.u.y.-.r u u k D k u u u i Z _.s.s.s.s.s.s.s.s.s.s.s.s.s.s.s.s.",
"s.s.s.s.s.s.s.s.s.s.s.s.s.s.l.o.| | [ R u.y.5.r w i u k A k u y i V ^.s.s.s.s.s.s.s.s.s.s.s.s.s.s.s.s.",
"s.s.s.s.s.s.s.s.s.s.s.s.s.s.].o.| c > 8 1.7.5.a 8 w e u k y u e w i Z.s.s.s.s.s.s.s.s.s.s.s.s.s.s.s.s.",
"s.s.s.s.s.s.s.s.s.s.s.s.s.s.W.X.{ 6 @ @ { 7.1.s 8 w e u k u e w r u M.z.s.s.s.s.s.s.s.s.s.s.s.s.s.s.s.",
"s.s.s.s.s.s.s.s.s.s.s.s.s.z.R.[ c = e ; t t.y.g r w u k u k u i e e F.z.s.s.s.s.s.s.s.s.s.s.s.s.s.s.s.",
"s.s.s.s.s.s.s.s.s.s.s.s.s.z.T.H x # ~ e ; t.t.f r t u D k u k u i i I c.s.s.s.s.s.s.s.s.s.s.s.s.s.s.s.",
"s.s.s.s.s.s.s.s.s.s.s.s.s.c.I.W 3 X Q k ; ^ e.W w i r i i u u u u p K n.s.s.s.s.s.s.s.s.s.s.s.s.s.s.s.",
"s.s.s.s.s.s.s.s.s.s.s.s.s.c.Y W ; = <.k ; E t.W f 1 r i i t u k k i P k.s.s.s.s.s.s.s.s.s.s.s.s.s.s.s.",
"s.s.s.s.s.s.s.s.s.s.s.s.s.n.q.W @ * <.t ; R t.W w w i r i u u u u i C h.s.s.s.s.s.s.s.s.s.s.s.s.s.s.s.",
"s.s.s.s.s.s.s.s.s.s.s.s.s.l.q.R + ; t.b ; R t.-.1 i r i e u u u u u P `.s.s.s.s.s.s.s.s.s.s.s.s.s.s.s.",
"s.s.s.s.s.s.s.s.s.s.s.s.s.j.+.b O < r.R & r t.r.t r e e i e u u u e Z _.s.s.s.s.s.s.s.s.s.s.s.s.s.s.s.",
"s.s.s.s.s.s.s.s.s.s.s.s.s.Q.Y p @ s r.;.r a r.e.r i r i e u u u i i C (.s.s.s.s.s.s.s.s.s.s.s.s.s.s.s.",
"s.s.s.s.s.s.s.s.s.s.s.s.s.Q.Y x 9 &.i.a.1.g u.e.t r t i u u u t u r C !.s.s.s.s.s.s.s.s.s.s.s.s.s.s.s.",
"s.s.s.s.s.s.s.s.s.s.s.s.s.Q.+.b n ;.5.y.y.s 1.-.f u r u t t u u w e F !.s.s.s.s.s.s.s.s.s.s.s.s.s.s.s.",
"s.s.s.s.s.s.s.s.s.s.s.s.s.Q.0.z b ;.5.y.5.s e.,.t t e u u u u t u t C ).s.s.s.s.s.s.s.s.s.s.s.s.s.s.s.",
"s.s.s.s.s.s.s.s.s.s.s.s.s.Q.0.t x ;.6.5.;.a 1.-.t t e e t u t i e e S (.s.s.s.s.s.s.s.s.s.s.s.s.s.s.s.",
"s.s.s.s.s.s.s.s.s.s.s.s.s.Q./ e 3 =.7.9.( 1 ;.,.p t t u u u i e i e A '.s.s.s.s.s.s.s.s.s.s.s.s.s.s.s.",
"s.s.s.s.s.s.s.s.s.s.s.s.s.Q./ l = =.5.9.d , ,.,.t t t u e e u u t u B '.s.s.s.s.s.s.s.s.s.s.s.s.s.s.s.",
"s.s.s.s.s.s.s.s.s.s.s.s.s._./ u + [ >.8.q 4 1.,.t e e u u u u e e e A ].s.s.s.s.s.s.s.s.s.s.s.s.s.s.s.",
"s.s.s.s.s.s.s.s.s.s.s.s.s._./ z + v | 8.0 2 ,.&.t t e e t u e u e t S (.s.s.s.s.s.s.s.s.s.s.s.s.s.s.s.",
"s.s.s.s.s.s.s.s.s.s.s.s.s._./ z + c { 8.0 4 ,.E r r t i u k u u e e S (.s.s.s.s.s.s.s.s.s.s.s.s.s.s.s.",
"s.s.s.s.s.s.s.s.s.s.s.s.s._.Y z + c { 8.4 4 ,.E 9 r t u t u u e e e V ).s.s.s.s.s.s.s.s.s.s.s.s.s.s.s.",
"s.s.s.s.s.s.s.s.s.s.s.s.s.l.$.f # j  .{ % $ &.&.6 t e i u u u u t e A ).s.s.s.s.s.s.s.s.s.s.s.s.s.s.s.",
"s.s.s.s.s.s.s.s.s.s.s.s.s.h.$.f @ N  . .$ 4 =.E 6 t e u u u u u e e F ~.s.s.s.s.s.s.s.s.s.s.s.s.s.s.s.",
"s.s.s.s.s.s.s.s.s.s.s.s.z.n.+.E # { h ! 4 9 :.m 6 t e u u e i i e u G _.s.s.s.s.s.s.s.s.s.s.s.s.s.s.s.",
"s.s.s.s.s.s.s.s.s.s.s.s.s.b.Y W - N 7 n 3 x :.n r t e u u u e e e u G j.s.s.s.s.s.s.s.s.s.s.s.s.s.s.s.",
"s.s.s.s.s.s.s.s.s.s.s.s.s.c.I.&.3 l # 7 : ! :.m r e t i u e e e t i F k.s.s.s.s.s.s.s.s.s.s.s.s.s.s.s.",
"s.s.s.s.s.s.s.s.s.s.s.s.s.v.I.R 5 - . # : ^ :.b 9 r e e e i u i e i P g.s.s.s.s.s.s.s.s.s.s.s.s.s.s.s.",
"s.s.s.s.s.s.s.s.s.s.s.s.s.z.Y.%.h # . X 7 ^ E t w r t i i u u u i y L n.s.s.s.s.s.s.s.s.s.s.s.s.s.s.s.",
"s.s.s.s.s.s.s.s.s.s.s.s.s.z.L.%.] # #   9 <.M t 9 w w t e u i u u D D.v.s.s.s.s.s.s.s.s.s.s.s.s.s.s.s.",
"s.s.s.s.s.s.s.s.s.s.s.s.s.s.A.%.v 5 o 2 n  .v a r w u u u u u u u A J.x.s.s.s.s.s.s.s.s.s.s.s.s.s.s.s.",
"s.s.s.s.s.s.s.s.s.s.s.s.s.s.~.O.' [ 5 j { { c 4 8 w w u u u u y A A K.s.s.s.s.s.s.s.s.s.s.s.s.s.s.s.s.",
"s.s.s.s.s.s.s.s.s.s.s.s.s.s.f.@.' ' ] ] ] ] d 8 8 r u y D k u k u F Z.s.s.s.s.s.s.s.s.s.s.s.s.s.s.s.s.",
"s.s.s.s.s.s.s.s.s.s.s.s.s.s.d.+.' _ ` ' v ' q 8 9 r k A u u u u u J ).s.s.s.s.s.s.s.s.s.s.s.s.s.s.s.s.",
"s.s.s.s.s.s.s.s.s.s.s.s.s.s.c.I.( ' ` _ _ [ q 6 r u u u u u u e D P k.s.s.s.s.s.s.s.s.s.s.s.s.s.s.s.s.",
"s.s.s.s.s.s.s.s.s.s.s.s.s.s.s.N.( ' ` _ ' c 8 6 t i k u D u u k y L n.s.s.s.s.s.s.s.s.s.s.s.s.s.s.s.s.",
"s.s.s.s.s.s.s.s.s.s.s.s.s.s.s.^.d ' _ v ] c 6 e y k D k k u e w i J.z.s.s.s.s.s.s.s.s.s.s.s.s.s.s.s.s.",
"s.s.s.s.s.s.s.s.s.s.s.s.s.s.s.f.O.[ [ c { s w u k u u D u i e w V C.s.s.s.s.s.s.s.s.s.s.s.s.s.s.s.s.s.",
"s.s.s.s.s.s.s.s.s.s.s.s.s.s.s.c.G.%.v { m 9 6 w e e e e u i y w Z `.s.s.s.s.s.s.s.s.s.s.s.s.s.s.s.s.s.",
"s.s.s.s.s.s.s.s.s.s.s.s.s.s.s.s.].Y m &.f 6 7 9 w e e e i D y y F.v.s.s.s.s.s.s.s.s.s.s.s.s.s.s.s.s.s.",
"s.s.s.s.s.s.s.s.s.s.s.s.s.s.s.s.b.U p p r w i k k u z u u D A G /.s.s.s.s.s.s.s.s.s.s.s.s.s.s.s.s.s.s.",
"s.s.s.s.s.s.s.s.s.s.s.s.s.s.s.s.s.^.U C Z F C C C F P I J J J K.v.s.s.s.s.s.s.s.s.s.s.s.s.s.s.s.s.s.s.",
"s.s.s.s.s.s.s.s.s.s.s.s.s.s.s.s.s.s.b.h.f.h.k.n.k.k.k.n.n.h.n.c.s.s.s.s.s.s.s.s.s.s.s.s.s.s.s.s.s.s.s.",
"s.s.s.s.s.s.s.s.s.s.s.s.s.s.s.s.s.s.s.s.s.s.z.z.s.s.s.s.z.z.z.s.s.s.s.s.s.s.s.s.s.s.s.s.s.s.s.s.s.s.s.",
"s.s.s.s.s.s.s.s.s.s.s.s.s.s.s.s.s.s.s.s.s.s.s.s.s.s.s.s.s.s.s.s.s.s.s.s.s.s.s.s.s.s.s.s.s.s.s.s.s.s.s."
};
