/* XPM */
static char *_9d7c66a306b41e5b2eb3473d60b5f85IcGc1pXOtsx87M32[] = {
/* columns rows colors chars-per-pixel */
"58 58 159 2 ",
"   c #3B2117",
".  c #39251B",
"X  c #352D22",
"o  c #343226",
"O  c #393326",
"+  c #373528",
"@  c #393629",
"#  c #3D3B2C",
"$  c #3D3B30",
"%  c #45170F",
"&  c #4E170F",
"*  c #42180F",
"=  c #56150E",
"-  c #451710",
";  c #421D14",
":  c #551E14",
">  c #5C1D12",
",  c #6A1F13",
"<  c #731E13",
"1  c #7B1F13",
"2  c #4F2217",
"3  c #432319",
"4  c #4A2B1D",
"5  c #532317",
"6  c #5E2015",
"7  c #522419",
"8  c #5A2418",
"9  c #582A1D",
"0  c #632418",
"q  c #642D1F",
"w  c #6A2D1E",
"e  c #7C2114",
"r  c #452D20",
"t  c #492D20",
"y  c #5D2E20",
"u  c #473526",
"i  c #483224",
"p  c #473628",
"a  c #4C3629",
"s  c #413E2E",
"d  c #493C2C",
"f  c #523F2E",
"g  c #403F34",
"h  c #612F20",
"j  c #6A3323",
"k  c #42402F",
"l  c #4B402F",
"z  c #54422F",
"x  c #464432",
"c  c #494533",
"v  c #4B4935",
"b  c #4B4A3A",
"n  c #5C4438",
"m  c #514F3D",
"M  c #67453F",
"N  c #555241",
"B  c #5C5546",
"V  c #675447",
"C  c #636252",
"Z  c #686758",
"A  c #6E6D62",
"S  c #716E65",
"D  c #787769",
"F  c #7E7D71",
"G  c #811F13",
"H  c #852114",
"J  c #892114",
"K  c #89271A",
"L  c #8C2A1D",
"P  c #952316",
"I  c #9A2417",
"U  c #9D2518",
"Y  c #9B2A18",
"T  c #8A321B",
"R  c #93391F",
"E  c #A12617",
"W  c #A82719",
"Q  c #A72819",
"!  c #AF2A1A",
"~  c #B52B1B",
"^  c #BD2D1C",
"/  c #AB311D",
"(  c #B6381F",
")  c #893124",
"_  c #9C3D21",
"`  c #8D3D31",
"'  c #A23224",
"]  c #B63424",
"[  c #BA3922",
"{  c #C22D1D",
"}  c #C62F1E",
"|  c #C92F1F",
" . c #C7301F",
".. c #C9311F",
"X. c #C73525",
"o. c #C83524",
"O. c #844D2A",
"+. c #8D4E2B",
"@. c #9D4824",
"#. c #87502C",
"$. c #89542E",
"%. c #90552D",
"&. c #984639",
"*. c #8E5E30",
"=. c #955F30",
"-. c #A74B26",
";. c #AB5128",
":. c #956031",
">. c #B56D33",
",. c #D24B29",
"<. c #CB522A",
"1. c #CD5C2E",
"2. c #D6552C",
"3. c #D25B2D",
"4. c #C84E3E",
"5. c #D46531",
"6. c #DB6933",
"7. c #C27838",
"8. c #C47B38",
"9. c #C47C39",
"0. c #DC7437",
"q. c #DF7638",
"w. c #E17738",
"e. c #A35449",
"r. c #986C43",
"t. c #82635E",
"y. c #88786F",
"u. c #817F74",
"i. c #927772",
"p. c #AF7167",
"a. c #B37368",
"s. c #B37C72",
"d. c #C55646",
"f. c #CB5444",
"g. c #CE5D4D",
"h. c #C86859",
"j. c #D56C5C",
"k. c #D87A6C",
"l. c #D47F71",
"z. c #87867B",
"x. c #8A8A7D",
"c. c #BE887F",
"v. c #DB8751",
"b. c #DD9263",
"n. c #DD8678",
"m. c #E5A16C",
"M. c #8D8C81",
"N. c #9E8682",
"B. c #978F86",
"V. c #99978F",
"C. c #9A9690",
"Z. c #9D9D94",
"A. c #BF8B81",
"S. c #BDA082",
"D. c #A1A197",
"F. c #A4A39A",
"G. c #DF9083",
"H. c #E29486",
"J. c #E49589",
/* pixels */
"o o o o o o o o o o o o o o o s v v v v k o o o o o o o o o o o o o o o o o o o o o o o o o o x v v v v # o o o o o ",
"+ + + + + + + + + + + + + + + x v v v v x @ + + + + + + + + + + + + + + + + + + + + + + + + @ c v v v v k + + + + + ",
"c c c c c c c c c c c c c c c v v v v v v v c c c c c c c c c c c c c c c c c c c c c c c c v v v v v v v c c c c c ",
"f l v v v v v c f z z z z z z z z z z z z z z z z z z z z z z z z c v v v v v c f z z z z z z z z z z z z z z z z z ",
";.0 l v v v v t T 7.9.9.9.9.9.9.9.9.9.9.9.9.9.9.9.9.9.9.9.9.9.8.-.8 c v v v v 7 _ 7.9.9.9.9.9.9.9.9.9.9.9.9.9.9.9.9.",
"( , d v c v v 4 Y ,.,.,.,.,.,.,.,.,.,.,.,.,.,.,.,.,.,.,.,.,.,.,.( > c v v v c 5 / ,.,.,.,.,.,.,.,.,.,.,.,.,.,.,.,.,.",
"~ , d v v v v 4 I } | | | | | | | | | | | | | | | | | | | | | | ! 6 c v v v c 5 Q | ..| | | | | | | | | | | | | | | ",
"~ , d v v v v 4 I } ............................................! 6 c v v v c 5 Q ..................................",
"~ , d v v v v 4 I | ............................................! 6 c v v v c 5 Q ..................................",
"~ , d v v v v 4 I | ............................................! 6 c v v v c 5 Q ..................................",
"~ , d v v v v 4 I } ........................................ . .! 6 c v v v c 5 Q ..................................",
"W , d v v v v 4 P ! ! ! ! ! ! ! ! ! ! ! ! ! ! ! ! ! ! ! ! ! ! ! W 6 c v v v c 5 E ~ ! ! ! ! ! ! ! ! ! ! ! ! ! ! ! ! ",
"1 > d v v v v 4 < G G G G G G G G G G G G G G G G G G G G G G G 1 : c v v v c 2 1 H G G G G G G G G G G G G G G G G ",
"* ; l v v v v r * * * * * * * * * * * * * * * * * * * * * * * * * 3 c v v v v 3 * * * * * * * * * * * * * * * * * * ",
"X o x v v v v # X X X X X X X X X X X X X X X X X X X X X X X X X O c v v v v O X X X X X X X X X X X X X X X X X X ",
"+ @ c v v v v s + + + + + + + + + + + + + + + + + + + + + + + + + # c v v v v # + + + + + + + + + + + + + + + + + + ",
"c c v v v v v v c c c c c c c c c c c c c c c c c c c c c c c c c c v v v v v v c c c c c c c c c c c c c c c c c c ",
"c c x x x x c c c c c c c c c v v v v v v c c c c c c c c c c c c c c x c x c c c c c c c c c v v v v v v c x c c c ",
"=.:.:.=.=.=.=.=.=.=.=.=.:.%.w d v v v v d q +.:.=.=.=.=.=.=.=.=.=.=.=.=.=.=.=.=.=.=.=.=.:.+.9 d v v v v d w %.=.=.=.",
"6.6.6.6.6.6.6.6.6.6.6.6.6.3.H i v v v v u e <.6.6.6.6.6.6.6.6.6.6.6.6.6.6.6.6.6.6.6.6.6.6.<.< p v v v v t J 3.6.6.6.",
"| | | | | | | | | | | | | { H t v v v v u 1 { | | | | | | | | | | | | | | | | | | | | | | ^ < p v v v v t J } | | | ",
"........................| } G i v v v v u 1 ^ ............................................^ < p v v v v 4 J } ......",
"..........................{ G i v v v v u 1 { ............................................^ < p v v v v 4 J } ......",
"............| | ..........{ G i v v v v u 1 { ............................................^ < p v v v v 4 J } ......",
"| ........................} G i v v v v u 1 { ............................................^ < p v v v v 4 J } ......",
"^ ^ ^ ^ ^ ^ ^ ^ ^ ^ ^ ^ ^ ^ G i v v v v u 1 ~ ^ ^ ^ ^ ^ ^ ^ ^ ^ ^ ^ ^ ^ ^ ^ ^ ^ ^ ^ ^ ^ ^ ~ < p v v v v t H ^ ^ ^ ^ ",
"I I I I I I I I I I I I I U 1 i v v v v u < I I I I I I I I I I I I I I I I I I I I I I I I , p v v v v t 1 U I I I ",
"& & & & & & & & & & & & & & % i v v v v p % & & & & & & & & & & & & & & & & & & & & & & & & % p v v v v r % & & & & ",
". . . . . . . . . . . . . . . s v v v v s . . . . . . . . . . . . . . . . . . . . . . . . . . d v v v v s . . . . . ",
"o o o o o o o o o o o o o o o s v v v v x o o o o o o o o o o o o o o o o o o o o o o o o o o x v v v v # o o o o o ",
"s s s s k k k k s s s s s s k c v v v v c k s s s s s s s s s s s s s s s k s s s s s s s s k v v v v v c s s s s s ",
"v v v v v v v v v v v v v v v v v v v v v v v v v v v v v v v v v v v v v v v v v v v v v v v v v v v v v v v v v v ",
"f l v v v v v c f f f f f f f f f f f f f f f f f f f f f f f f f l v v v v v c f f f f f f f f f f f f f f f f f f ",
"@.0 l v v v v i T >.>.>.>.>.>.>.>.>.>.>.>.>.>.>.>.>.>.>.>.>.>.>.@.8 c v v v v 7 R >.>.>.>.>.>.>.>.>.>.>.>.>.>.>.>.>.",
"[ , d v v v v 4 Y 2.2.2.2.2.2.2.2.2.2.2.2.2.2.2.2.2.2.2.2.2.2.2.[ 6 c v v v c 5 / 2.2.2.2.2.2.2.2.2.2.2.2.2.2.2.2.2.",
"~ , d v v v v 4 I } | | | | | | | | | | | | | | | | | | | | | | ! 6 c v v v c 5 W | | | | | | | | | | | | | | | | | ",
"~ , d v v v v 4 I | ............................................! 6 c v v v c 5 Q ..................................",
"~ , d v v v v 4 I | ............................................! 6 c v v v c 5 Q ..................................",
"~ , d v v v v 4 I } ............................................! 6 c v v v c 5 Q ..................................",
"~ , d v v v v 4 I  .............................................! 6 c v v v c 5 Q ........................o.o.......",
"! , d v v v v 4 P ~ ~ ~ ~ ~ ~ ~ ~ ~ ~ ~ ~ ~ ~ ~ ~ ~ ~ ~ ~ ~ ~ ~ W 6 c v v v c 5 W ~ ~ ~ ~ ~ ~ ~ ~ ~ ~ ~ ] h.h.] ~ ~ ",
"G > d v v v v 4 1 H H H H H H H H H H H H H H H H H H H H H H H G : c v v v c 2 G H H H H H H H H H H H ) s.A.&.L e.",
"% ; d v v v v r % % % % % % % % % % % % % % % % % % % % - - - % % ; c v v v v 3 % - - % % % % % % % % % % M N.i.t.N.",
"X o x v v v v # X X X X X X X X X X X X X X X X X X X X X X X X X O c v v v v O X X X X X X X X X X X X X O S C.C.u.",
"o + c v v v v # o o o o o o o o o o o o o o o o o o o o o o o o o @ c v v v v # o o o o o o o o o o o o $ g b z.C.A ",
"c c v v v v v c c c c c c c c c c c c c c c c c c c c c c c c c c c v v v v v c c c c c c c c c c x b A M.M.m Z Z.V.",
"c c c c c x c c c c c c c c v v v v v v v v c c c c c c c c c c c c c c c c c c c c c c c c v v v N z.F.Z.z.N v F F.",
"*.*.*.*.*.*.*.*.*.*.*.*.*.$.q d v v v v l h #.*.*.*.*.*.*.*.*.*.*.*.*.*.*.*.*.*.*.*.*.*.*.O.y l v D F.z.B j $.*.r.S.",
"q.q.q.q.q.q.q.0.q.q.q.q.w.5.H i v v v v p e 1.w.q.q.q.q.q.q.q.q.q.q.q.q.q.q.q.q.q.q.q.q.q.1.< p m M.Z.C i &.b.m.v.v.",
"| | | | | | | } } } | | | { G i v v v v u 1 ^ | | | | | | | | | | | | | | | | | | | | | | ^ < p b u.F.x.y.c.H.J.n.4.",
"..................} ......{ G i v v v v u 1 { ............................................^ < p v B M.D.B.a.g.j.J.k.",
"....................| } ..{ G i v v v v u 1 { ............................................^ < p v v N C n L { f.H.k.",
"...................... . .{ G i v v v v u 1 ^ ............................................^ < p v v v v 4 K f.n.H.g.",
"..........................{ G i v v v v u 1 { ............................................^ < p v v v v V p.G.H.j.X.",
"{ { ^ ^ ^ ^ ^ ^ ^ ^ ^ { { ^ 1 i v v v v u 1 ^ { ^ ^ ^ ^ ^ ^ ^ ^ { { ^ ^ ^ ^ ^ ^ ^ ^ ^ ^ { ^ < p v v v v V c.l.d.[ ^ ",
"E E U U U U U U U U U U U E 1 i v v v v u < E U U U U U U U U U E E U U U U U U U U U U U E , p v v v v a ` ' U U U ",
"= = = = = = = = = = = = = = & i v v v v u & = = = = = = = = = = = = = = = = = = = = = = = = % p v v v v r & = = = = ",
"                              s v v v v d .                                                 . d v v v v s           "
};
