/* XPM */
static char *_7c022b493ce4f8896c4e36af7068eednkVYm8RmDnalvTse[] = {
/* columns rows colors chars-per-pixel */
"47 58 108 2 ",
"   c #191718",
".  c #3C7EE4",
"X  c #1B1C1E",
"o  c #202126",
"O  c gray10",
"+  c #191919",
"@  c #191818",
"#  c #F28949",
"$  c #232325",
"%  c #3F80E4",
"&  c #262A31",
"*  c #F99758",
"=  c #1F1F24",
"-  c #1D1E22",
";  c #3A3E44",
":  c #F18140",
">  c #22242A",
",  c #F28442",
"<  c #0D0F16",
"1  c #F08749",
"2  c #24272E",
"3  c #3C7FE6",
"4  c #29323B",
"5  c #F48C4D",
"6  c #EE8547",
"7  c #373537",
"8  c #3C393A",
"9  c #272F37",
"0  c #5F79A3",
"q  c #EA7D41",
"w  c #7E543A",
"e  c #2F2C2D",
"r  c #6E5F5B",
"t  c #EB8246",
"y  c #12131A",
"u  c #312F31",
"i  c #343133",
"p  c #565D66",
"a  c #4A5057",
"s  c #4972B4",
"d  c #DB8753",
"f  c #936951",
"g  c #58626F",
"h  c #C57C4C",
"j  c #546787",
"k  c #594D4A",
"l  c #2C2D34",
"z  c #272729",
"x  c #473A31",
"c  c #16171F",
"v  c #887A7A",
"b  c #493D37",
"n  c #4B76B8",
"m  c #784F36",
"M  c #447ACD",
"N  c #C07548",
"B  c #6A5956",
"V  c #8B6249",
"C  c #46494F",
"Z  c #4E565E",
"A  c #6F6364",
"S  c #4B4344",
"D  c #5481C5",
"F  c #7F7477",
"G  c #513F33",
"H  c #437EDA",
"J  c #D37C4C",
"K  c #5185D6",
"L  c #776868",
"P  c #6C4B37",
"I  c #E27E47",
"U  c #BC6E47",
"Y  c #65554E",
"T  c #5C6977",
"R  c #928487",
"E  c #8E7F80",
"W  c #5F5252",
"Q  c #F69356",
"!  c #A16240",
"~  c #657DA3",
"^  c #EC8C53",
"/  c #7D6E6F",
"(  c #E2783F",
")  c #5A6D8E",
"_  c #D07341",
"`  c #3D434C",
"'  c #5F4638",
"]  c #507BBE",
"[  c #878A9F",
"{  c #6B88BE",
"}  c #958A90",
"|  c #44556D",
" . c #E98649",
".. c #875B40",
"X. c #B16A41",
"o. c #627393",
"O. c #47699D",
"+. c #AEA1A4",
"@. c #C8BEC2",
"#. c #9AAED6",
"$. c #966F58",
"%. c #D58B59",
"&. c #80849B",
"*. c #E7915B",
"=. c #5F7DAB",
"-. c #5F779B",
";. c #6A94D8",
":. c #8C9DC0",
/* pixels */
". . . . . . . . . . . . . . . . . . . . K #.#.#.#.;.. . . . . . . . . . . . . . . . . . . . . ",
". . . . . . . . . . . . . . . . . . . % ;.@.@.@.@.:.K . . . . . . . . . . . . . . . . . . . . ",
". . . . . . . . . . . . . . . . . % K { } +.+.+.+.R [ { % . . . . . . . . . . . . . . . . . . ",
". . . . . . . . . . . . . . . . % { [ R v E } } E F R } [ K . . . . . . . . . . . . . . . . . ",
". . . . . . . . . . . . . . . K &.} R E / A F F A A v E R [ { % . . . . . . . . . . . . . . . ",
". . . . . . . . . . . . . . K [ R v v A b e i i e i W F v E } { % . . . . . . . . . . . . . . ",
". . . . . . . . . . . . 3 K [ R v F W u = @ $ $ O X z S L v E } { % . . . . . . . . . . . . . ",
". . . . . . . . . . . . K &.E v / k e $ y y > z + < = z 8 A v E R { % . . . . . . . . . . . . ",
". . . . . . . . . . . K &.E v F k $ > - <   u i = < c > = 7 L v v R D . . . . . . . . . . . . ",
". . . . . . . . . . % ~ v F / k o   $ O < c i 7 $ < y $ @   8 L F v &.K . . . . . . . . . . . ",
". . . . . . . . . 3 D v / L k z + < > $ < c i 7 o < O z y < $ b A L F ~ % . . . . . . . . . . ",
". . . . . . . . . H F / L W e > y < o l y y u 7 - < $ z < < o $ S L / F ] . . . . . . . . . . ",
". . . . . . . . 3 =./ A r 8 O $ c < y l X y i 7 X y l X < y o c e W r L o.H . . . . . . . . . ",
". . . . . . . . H F L B S z y - 2 < < > & y l 7 c = 2 y < = > < o 8 Y A / ] 3 . . . . . . . . ",
". . . . . . . 3 n A r W i > < y l o y y l - & 7 c l c < X l c < o e k B r o.% . . . . . . . . ",
". . . . . . . H ) B Y S $ > c < c l 2 y X l 2 u & > y o l c < c 2 - 8 W B A M . . . . . . . . ",
". 3 3 3 . . 3 M A B k i c X l = y c 2 l = 2 i 7 l - & l c y = 4 o y e S Y B s 3 . . 3 3 3 3 . ",
"M n n M M M H s W k S e o X & 7 7 l 2 l 8 7 ; ; 7 8 7 & l 7 8 u o o e b k k j H M M M ] n n H ",
"=.T g g g p | a S b 7 $ - = = = o $ $ o o $ $ $ $ $ > z z z z > z o o i 8 b C | | Z g g g T D ",
"~ g p r B W k S 8 7 8 $   @ @                                       + i 7 8 x S k W B r p T D ",
"=.g V N U U N X.! w 8 $ + @     @       @ @     @ @           @ @ @ O e G ..! U U U _ N r T D ",
"~ g f q ( t 5 1 q N b $                                           @ O u m I t Q t q q J r T D ",
"~ g f I q 6 Q # : h b $                                             + i w t t Q 6 q q J r T D ",
"~ g f I q 1 * # : h x $ @                                           + e w t 6 Q 1 : q J r T D ",
"~ p f t q 1 * 5 : h b $ @                                           + i w t 6 Q # : t J r T D ",
"~ g f  .q 1 * 5 , h x $ @                                           + e w t 1 * # : t d r T D ",
"~ p f  .: 1 * 5 , h b $ @                                           + i w t # * # : 6 d r T D ",
"0 p f  .: 1 * 5 , h x $                                         @ @ O e w t 5 * # : 6 d r g D ",
"-.p $.1 : 1 * 5 , h G $                                         @ + O u w 6 5 * # : 1 d r g ] ",
"-.p f # : 1 * 5 , h x $                                         @ + O u w 6 5 * # : 1 d r g ] ",
"o.p $.# : # * 5 , h b $                                         @ + O e w 6 5 * # : 1 d r g ] ",
"o.p $.# : # * # , h b $                                         @ + + u w 6 # * # : # d r g ] ",
"o.p $.# , # * # , h x $                                         @ @ + e w 6 # * # : # d r g ] ",
") p f # , # * # , N b $                                           + O i w 6 # * # : # d r p n ",
") Z f 5 , # * # , N x $                                           + O e m t # * # : # d B p n ",
") Z f 5 , # * # , N b $                                           + O u w t # * 1 , # d B p n ",
") Z f 5 , # * 1 , N x $   @ @ @ @ @ @ @ @ @ @ @ @ @ @ @ @ @ @ @ @ + O u m t # * 1 : # %.B p n ",
") p $.^ , # * 6 : N b $   @ @ @ @ @ @ @ @ @ @ @ @ @ @ @ @ @ @ @ @ + O u m q 1 Q 6 : # %.r g n ",
") p $.^ : # * 6 : N x $   + + + + + + + + + + + + + + + + + + @ @ + O u m q 1 Q 6 : # %.A p n ",
"j a f # : # Q 6 : N x $ @ + + + + + + + + + + + + + + + + + + + @ + O e m ( 6 5 t : # d Y Z n ",
"j a f ^ : # Q t q N b > + O O O O O O O O O O O O O O O O O O O O O X i m ( q 1 q q # d B Z s ",
"j a r U X.X.U ! ! V 8 $ O X O O O O O O O O O O O O O O O O O O O O X u m _ I 6 q q I d Y Z s ",
"j a V J _ _ J X.U X.b z X X X X X X X X X X X X X X X X X X X X X X X i m ( q 1 q ( t d B Z n ",
"j a V t q q ^ I ( U x > X X X X X X X X X X X X X X X X X X X X X X X u m ( I ^ I ( 6 d Y Z n ",
"j a Y f ! ! f ..w P 8 z - - X X X X X X X X X X X X X X X X X X X X - u G w ..V V ! ! f k Z s ",
"j a C S ; ; 8 7 7 i 8 z - - - - - - - - - - - - - - - - - - - - - - = 7 7 7 7 8 8 8 ; S a Z s ",
"j a C ' ' ' P P m P 7 z = = = = = = = = = = = = = = = = = = = = = = o u G m P P ' ' ' ' C Z s ",
"j C ..J _ I *. .I h G & o o o o o o o o o o o o o o o o o o o o o o $ i w I t ^ J _ _ U k a s ",
"j a V 6 q 1 * 5 , h x & $ o o o o o o o o o o o o o o o o o o o o o > u w t # * 1 q t J Y Z s ",
"j C V 1 , # * 5 , h b l > > > > > > > > > > > > > > > > > > > > > > > i w  .# * # , 6 J k a s ",
"j C V 1 , 1 * 5 , h b l 2 2 2 2 2 2 2 2 2 2 2 2 2 2 2 2 2 2 2 2 2 2 2 i w  .# * 5 , 1 d Y a s ",
"j C V # , 1 * 5 , h x l & & & & & & & & & & & & & & & & & & & & & & & u m  .# * 5 , # d k a s ",
"j C V 5 , 1 * 5 , h b 4 9 9 9 9 9 9 9 9 9 9 9 9 9 9 9 9 9 9 9 9 9 9 9 7 w  .# * 5 , # d k a s ",
"j C V ^ t  .*.d _ ! 8 4 4 4 4 4 4 4 4 4 4 4 4 4 4 4 4 4 4 4 4 4 4 4 4 i P N J *.^ t ^ %.Y a s ",
"j ` k ..w P P G G x 8 8 ; ; ; ; ; ; ; ; ; ; ; ; ; ; ; ; ; ; ; ; ; ; ; 8 7 x G ' P m ..V S a s ",
"j C ` ; ; ` ` ` C | | ) 0 0 0 0 0 0 0 0 0 0 0 0 0 0 0 0 0 0 0 0 0 0 -.g | a C ` ` ; ; ; ` a s ",
"n O.O.s s n M M H H % % % % % % % % % % % % % % % % % % % % % % % % 3 3 . H H M M s s O.O.O.M ",
"3 % 3 3 3 3 3 . . . . . . . . . . . . . . . . . . . . . . . . . . . . . . . . 3 3 3 3 3 % % 3 "
};
