/* XPM */
static char *result[] = {
/* columns rows colors chars-per-pixel */
"48 58 150 2 ",
"   c #51472B",
".  c #514D38",
"X  c #5D5935",
"o  c #595338",
"O  c #7C622D",
"+  c #7E6532",
"@  c #71663F",
"#  c #3A5773",
"$  c #34627D",
"%  c #565744",
"&  c #615D40",
"*  c #5D6557",
"=  c #68684C",
"-  c #526969",
";  c #536E78",
":  c #5F737B",
">  c #7A796B",
",  c #866A2F",
"<  c #917D49",
"1  c #618176",
"2  c #95824F",
"3  c #92896F",
"4  c #C1B177",
"5  c #345484",
"6  c #365887",
"7  c #32578E",
"8  c #375A89",
"9  c #365E99",
"0  c #376D82",
"q  c #3B658E",
"w  c #346F8C",
"e  c #3B6B8A",
"r  c #39768E",
"t  c #3D6A96",
"y  c #39649D",
"u  c #3A67AC",
"i  c #506985",
"p  c #447686",
"a  c #45798E",
"s  c #5E7485",
"d  c #537589",
"f  c #5E788C",
"g  c #456A9B",
"h  c #527796",
"j  c #5C7692",
"k  c #50789A",
"l  c #426DA6",
"z  c #4375A5",
"x  c #4C7BA5",
"c  c #457EAB",
"v  c #567BAC",
"b  c #587DAD",
"n  c #4273BB",
"m  c #537CB5",
"M  c #396EC0",
"N  c #3A73CB",
"B  c #3D79D3",
"V  c #3C7ADB",
"C  c #3C7EE4",
"Z  c #4275C1",
"A  c #497CC9",
"S  c #447CD1",
"D  c #407EDE",
"F  c #498884",
"G  c #4D8F8E",
"H  c #568189",
"J  c #598288",
"K  c #528F89",
"L  c #578596",
"P  c #5A8997",
"I  c #7A8A9B",
"U  c #6D9A9A",
"Y  c #47AB9B",
"T  c #50A793",
"R  c #51B19D",
"E  c #4781AE",
"W  c #5A85A5",
"Q  c #538AA7",
"!  c #5586AA",
"~  c #5589AA",
"^  c #5C8CAA",
"/  c #4A94A0",
"(  c #4E8AB9",
")  c #548BB0",
"_  c #5C84BE",
"`  c #548DBB",
"'  c #5993B6",
"]  c #5199B7",
"[  c #5391BD",
"{  c #628DAB",
"}  c #6098A8",
"|  c #6584B1",
" . c #6494B0",
".. c #51A4A4",
"X. c #53A5B6",
"o. c #54ABB5",
"O. c #54A4B9",
"+. c #52B3B5",
"@. c #61BFAC",
"#. c #6CB2BF",
"$. c #5BC8A7",
"%. c #5DC9A9",
"&. c #64CCAB",
"*. c #60CAB7",
"=. c #65CDBC",
"-. c #5383CA",
";. c #5594C4",
":. c #569CC5",
">. c #599BC6",
",. c #5799C8",
"<. c #5A9FC9",
"1. c #4A81D4",
"2. c #5AAFC5",
"3. c #5AA5CC",
"4. c #5CAACC",
"5. c #5CB9C8",
"6. c #5BA3D1",
"7. c #5FAFD5",
"8. c #61A6CC",
"9. c #61AFCB",
"0. c #6CB1C7",
"q. c #62ACD3",
"w. c #67ACDA",
"e. c #67B7D0",
"r. c #68B4D1",
"t. c #6BBAD5",
"y. c #64B5DC",
"u. c #6BBADB",
"i. c #78B3D0",
"p. c #75BBD3",
"a. c #68BCE3",
"s. c #65C6C6",
"d. c #69C1E1",
"f. c #69C9E7",
"g. c #6ACCEC",
"h. c #71CAE4",
"j. c #74CDEA",
"k. c #76D3EF",
"l. c #6ACBF0",
"z. c #7DD7F0",
"x. c #839388",
"c. c #80CBE7",
"v. c #81D7EC",
"b. c #89D2EB",
"n. c #83DCF3",
"m. c #8CDEF2",
"M. c #91D6F0",
"N. c #91E4F6",
"B. c #99EBF9",
"V. c #A1EBF7",
/* pixels */
"C C C C C C C C C C C C C C C C C C C C C C C C C C C C C C C C C C C C C C C C C C C C C C C C ",
"C C C C C C C C C C C C C C C C C C C C C C C C C C C C C C C C C C C C C C C C C C C C C C C C ",
"C C C C C C C C C C C C C C C C C C C C C C C C C C C C C C C C C C C C C C C C C C C C C C C C ",
"C C C C C C C C C C C C C C C C C C C C C C C C C C C C C C C C C C C C C C C C C C C C C C C C ",
"C C C C C C C C C C C C C C C C C C C C C C C C C C C C C C C C C C C C C C C C C C C C C C C C ",
"C C C C C C C C C C C C C C C C C C C C C C C C C C C C C C C C C C C C C C C C C C C C C C C C ",
"C C C C C C C C C C C C C C C C C C C C C C C C C C C C C C C C C C C C C C C C C C C C C C C C ",
"C C C C C C C C C C C C C C C C C C C C C C C C C C C C C C C C C C C C C C C C C C C C C C C C ",
"C C C C C C C C C C C C C C C C C C C C C C C C C C C C C C C C C C C C C C C C C C C C C C C C ",
"C C C C C C C C C C C C C C C C C C C C C C C C C C C C C C C C C C C C C C C C C C C C C C C C ",
"C C C C C C C C C C C C C C C C C C C C C C C C C C C C C C C C C C C C C C C C C C C C C C C C ",
"C C C C C C C C C C C C C C C C C C C C C C C C C C C C C C C C C C C C C C C C C C C C C C C C ",
"C C C C C C C C C C C C C C C C C C C C C C C C C C C C C C C C C C C C C C C C C C C C C C C C ",
"C C C C C C C C C C C C C C C V V V V C C C C C C C C C C C C C C C C C C C C C C C C C C C C C ",
"C C C C C C C C C C C C C S 9 5 5 5 5 5 7 9 N C C C C C C C C C C C C C C C C C C C C C C C C C ",
"C C C C C C C C C C C B u b W {  . .^ ! ~ ! m N C C C C C C C C C C C C C C C C C C C C C C C C ",
"C C C C C C C C C C B v k ^ b.N.B.V.B.N.N.c.' g Z V C C C C C C C C C C C C C C C C C C C C C C ",
"C C C C C C C C C N u W M.n.n.k.k.n.N.N.m.u.>.Q a Z C C C C C C C C C C C C C C C C C C C C C C ",
"C C C C C C C C B y ! i.N.n.j.g.g.z.B.m.u.3.4.=.@.e N C C C C C C C C C C C C C C C C C C C C C ",
"C C C C C C C V y 3.7.4.t.h.g.g.l.g.h.r.8.3.4.*.&.e N C C C C C C C C C C C C C C C C C C C C C ",
"C C C C C C C B 8 ,.7.~ - H a.g.g.j.0.- ; ^ 4.s.&.e N C C C C C C C C C C C C C C C C C C C C C ",
"C C C C C C V n ( >.{ > 2 & 1 #.f.0.x.3 @ * ^ s.s.G u C C C C C C C C C C C C C C C C C C C C C ",
"C C C C C C N 6 w.u.J = 4 , . P h.U , 4 < X f e.s.R w N C C C C C C C C C C C C C C C C C C C C ",
"C C C C C C N 6 q.u.P o O + % } v.} X + + & P 8.X.Y w M C C C C C C C C C C C C C C C C C C C C ",
"C C C C C C N 8 ] ,.` :   % L t.v.p.:   . d [ 3.2.R w M C C C C C C C C C C C C C C C C C C C C ",
"C C C C C C N $ ..O.` Q d L 9.y.y.y.<.h f ) :.+.*.$.r N C C C C C C C C C C C C C C C C C C C C ",
"C C C C C C D h a ..O.[ ,.6.E ;.6.;.( w.>.[ o.%.&.G x V C C C C C C C C C C C C C C C C C C C C ",
"C C C C C C V | s F / O.6.y.c z z z [ d.2.o.$.R K j A C C C C C C C C C C C C C C C C C C C C C ",
"C C C C C C C -.I ; p / ] 5.3.c g ( y.a.2...T K i m C C C C C C C C C C C C C C C C C C C C C C ",
"C C C C C C C 1._ I s # 0 X.:.;.:.3.7.O.X.a # l 1.C C C C C C C C C C C C C C C C C C C C C C C ",
"C C C C C C C C C 1._ b v t q 9 9 y y q t u N V C C C C C C C C C C C C C C C C C C C C C C C C ",
"C C C C C C C C C C C C D V V B V V B V C 1.C C C C C C C C C C C C C C C C C C C C C C C C C C ",
"C C C C C C C C C C C C C C C C C C C C C C C C C C C C C C C C C C C C C C C C C C C C C C C C ",
"C C C C C C C C C C C C C C C C C C C C C C C C C C C C C C C C C C C C C C C C C C C C C C C C ",
"C C C C C C C C C C C C C C C C C C C C C C C C C C C C C C C C C C C C C C C C C C C C C C C C ",
"C C C C C C C C C C C C C C C C C C C C C C C C C C C C C C C C C C C C C C C C C C C C C C C C ",
"C C C C C C C C C C C C C C C C C C C C C C C C C C C C C C C C C C C C C C C C C C C C C C C C ",
"C C C C C C C C C C C C C C C C C C C C C C C C C C C C C C C C C C C C C C C C C C C C C C C C ",
"C C C C C C C C C C C C C C C C C C C C C C C C C C C C C C C C C C C C C C C C C C C C C C C C ",
"C C C C C C C C C C C C C C C C C C C C C C C C C C C C C C C C C C C C C C C C C C C C C C C C ",
"C C C C C C C C C C C C C C C C C C C C C C C C C C C C C C C C C C C C C C C C C C C C C C C C ",
"C C C C C C C C C C C C C C C C C C C C C C C C C C C C C C C C C C C C C C C C C C C C C C C C ",
"C C C C C C C C C C C C C C C C C C C C C C C C C C C C C C C C C C C C C C C C C C C C C C C C ",
"C C C C C C C C C C C C C C C C C C C C C C C C C C C C C C C C C C C C C C C C C C C C C C C C ",
"C C C C C C C C C C C C C C C C C C C C C C C C C C C C C C C C C C C C C C C C C C C C C C C C ",
"C C C C C C C C C C C C C C C C C C C C C C C C C C C C C C C C C C C C C C C C C C C C C C C C ",
"C C C C C C C C C C C C C C C C C C C C C C C C C C C C C C C C C C C C C C C C C C C C C C C C ",
"C C C C C C C C C C C C C C C C C C C C C C C C C C C C C C C C C C C C C C C C C C C C C C C C ",
"C C C C C C C C C C C C C C C C C C C C C C C C C C C C C C C C C C C C C C C C C C C C C C C C ",
"C C C C C C C C C C C C C C C C C C C C C C C C C C C C C C C C C C C C C C C C C C C C C C C C ",
"C C C C C C C C C C C C C C C C C C C C C C C C C C C C C C C C C C C C C C C C C C C C C C C C ",
"C C C C C C C C C C C C C C C C C C C C C C C C C C C C C C C C C C C C C C C C C C C C C C C C ",
"C C C C C C C C C C C C C C C C C C C C C C C C C C C C C C C C C C C C C C C C C C C C C C C C ",
"C C C C C C C C C C C C C C C C C C C C C C C C C C C C C C C C C C C C C C C C C C C C C C C C ",
"C C C C C C C C C C C C C C C C C C C C C C C C C C C C C C C C C C C C C C C C C C C C C C C C ",
"C C C C C C C C C C C C C C C C C C C C C C C C C C C C C C C C C C C C C C C C C C C C C C C C ",
"C C C C C C C C C C C C C C C C C C C C C C C C C C C C C C C C C C C C C C C C C C C C C C C C ",
"C C C C C C C C C C C C C C C C C C C C C C C C C C C C C C C C C C C C C C C C C C C C C C C C "
};
