/* XPM */
static char *result[] = {
/* columns rows colors chars-per-pixel */
"48 58 165 2 ",
"   c #614F26",
".  c #635026",
"X  c #705C2E",
"o  c #615A3B",
"O  c #7F6531",
"+  c #39546F",
"@  c #335F7C",
"#  c #36617F",
"$  c #3C6B7D",
"%  c #5E5F47",
"&  c #52574B",
"*  c #585D4C",
"=  c #475B55",
"-  c #605C40",
";  c #5E614A",
":  c #787144",
">  c #505B6F",
",  c #4F5C71",
"<  c #505D70",
"1  c #526868",
"2  c #5D7164",
"3  c #4D647C",
"4  c #536E70",
"5  c #736D64",
"6  c #76786E",
"7  c #886B30",
"8  c #937A3A",
"9  c #827C6A",
"0  c #5F9475",
"q  c #9B8751",
"w  c #968E78",
"e  c #989079",
"r  c #BAAA72",
"t  c #C7B97E",
"y  c #365988",
"u  c #385D8B",
"i  c #355D98",
"p  c #346680",
"a  c #3C648C",
"s  c #397880",
"d  c #3E6D97",
"f  c #3A6599",
"g  c #3F6E99",
"h  c #3C78AE",
"j  c #386CBB",
"k  c #4F6781",
"l  c #457687",
"z  c #446694",
"x  c #456997",
"c  c #4D6E95",
"v  c #44719A",
"b  c #4F7799",
"n  c #4B7A9D",
"m  c #50799C",
"M  c #6D7D8A",
"N  c #406DA7",
"B  c #467FAD",
"V  c #547CA2",
"C  c #4575BA",
"Z  c #4877BA",
"A  c #557CB3",
"S  c #376EC2",
"D  c #3970C7",
"F  c #3C74CA",
"G  c #3C77D2",
"H  c #3F7BD7",
"J  c #3E7BDB",
"K  c #3C7EE4",
"L  c #4A7CC5",
"P  c #467DCE",
"I  c #437ED8",
"U  c #407FE0",
"Y  c #458289",
"T  c #43898A",
"R  c #548D83",
"E  c #59868F",
"W  c #4E958B",
"Q  c #5A8792",
"!  c #588797",
"~  c #49929E",
"^  c #589D94",
"/  c #728085",
"(  c #628B92",
")  c #629797",
"_  c #58AF9F",
"`  c #5AB49B",
"'  c #4680AD",
"]  c #5488AB",
"[  c #4C86B5",
"{  c #4C89B5",
"}  c #548EBD",
"|  c #5B93B7",
" . c #509AB6",
".. c #6585B4",
"X. c #699AB5",
"o. c #629EBA",
"O. c #50A1A2",
"+. c #4BB7A1",
"@. c #4CBAA2",
"#. c #58B5A7",
"$. c #52A4B3",
"%. c #54A9B6",
"&. c #53A1B9",
"*. c #4FB0B4",
"=. c #57BCB0",
"-. c #58BDB1",
";. c #5FB8BE",
":. c #6CA1A7",
">. c #6DA3AB",
",. c #6CABB6",
"<. c #59C4A5",
"1. c #5CCBA8",
"2. c #5FD1A9",
"3. c #5EC6B9",
"4. c #64CAB8",
"5. c #69D7B5",
"6. c #70E5B8",
"7. c #3E80E5",
"8. c #4E82CF",
"9. c #4E8ACF",
"0. c #5286CF",
"q. c #5595C3",
"w. c #589CC8",
"e. c #58A6CC",
"r. c #5CB8C9",
"t. c #5EADD3",
"y. c #5DACD9",
"u. c #69A7C6",
"i. c #63A7CE",
"p. c #75AECB",
"a. c #63A5D3",
"s. c #69B6D1",
"d. c #64B5DB",
"f. c #75BCD7",
"g. c #4486E4",
"h. c #5295E4",
"j. c #5E9CE4",
"k. c #66B7E4",
"l. c #6ABEE1",
"z. c #63C7C8",
"x. c #6AC3E7",
"c. c #6BCDEC",
"v. c #72C6E6",
"b. c #7DC9E4",
"n. c #7DD1EA",
"m. c #69C9F0",
"M. c #7ACEF0",
"N. c #9B9783",
"B. c #A09A84",
"V. c #B3AC8D",
"C. c #BCB695",
"Z. c #87B6D7",
"A. c #80C7C5",
"S. c #86C1DF",
"D. c #92CFD9",
"F. c #83D5E6",
"G. c #86D6EF",
"H. c #9AD5E6",
"J. c #9ED9E6",
"K. c #83DDF4",
"L. c #90DFF2",
"P. c #91E4F5",
"I. c #95E8F7",
"U. c #98EBF9",
"Y. c #9DF0FB",
/* pixels */
"K K K K K K K K K K K K K K K K K K K K K K K K K K K K K K K K K K K K K K K K K K K K K K K K ",
"K K K K K K K K K K K K K K K K K K K K K K K K K K K K K K K K K K K K K K K K K K K K K K K K ",
"K K K K K K K K K K K K K K K K K K K K K K K K K K K K K K K K K K K K K K K K K K K K K K K K ",
"K K K K K K K K K K K K K K K K K K K K K K K K K K K K K K K K K K K K K K K K K K K K K K K K ",
"K K K K K K K K K K K K K K K K K K K K K K K K K K K K K K K K K K K K K K K K K K K K K K K K ",
"K K K K K K K K K K K K K K K K K K K K K K K K K K K K K K K K K K K K K K K K K K K K K K K K ",
"K K K K K K K K K K K K K K K K K K K K K K K K K K K K K K K K K K K K K K K K K K K K K K K K ",
"K K K K K K K K K K K K K K K K K K K K K K K K K K K K K K K K K K K K K K K K K K K K K K K K ",
"K K K K K K K K K K K K K K K g.h.U K K K K K K K K K K K K K K K K K K K K K K K K K K K K K K ",
"K K K K K K K K K K K K 7.7.h.v.M.d.h i i i i f I 7.K K K K K K K K K K K K K K K K K K K K K K ",
"K K K K K K K K K K K K 7.j.S.F.K.F.| v v b v b ..Z G K K K K K K K K K K K K K K K K K K K K K ",
"K K K K K K K K K K K I j.Z.b.L.Y.P.P.n.G.P.P.G.! $ V P U K K K K K K K K K K K K K K K K K K K ",
"K K K K K K K K K K 7.j.H.X.{ f.H.J.G.m.c.K.U.D.D.A.W l 0.K K K K K K K K K K K K K K K K K K K ",
"K K K K K K K K K K g.S.I.b.u.Q ; % :.x.c.v.;.2 - 0 =._ c P K K K K K K K K K K K K K K K K K K ",
"K K K K K K K K K K I V f.l.! 6 r O % :.c.o.2 t 8 o R =.#.g G K K K K K K K K K K K K K K K K K ",
"K K K K K K K K K 7.L u a.t.4 : r 8   ) m.) . r q   4 ;.1.@ F K K K K K K K K K K K K K K K K K ",
"K K K K K K K K K J A B w.e.E % X 7 5 ,.n.>.; X 7 * E r.4.T B J K K K K K K K K K K K K K K K K ",
"K K K K K K K K K j a y.y.t.e.Q * & :.p.s.e.! = & ( t.d.r.4.$ D 7.K K K K K K K K K K K K K K K ",
"K K K K K K K K K j y q.k.l.y.e.o.] z + > + @ ] o.s.k.k.%.+.p D K K K K K K K K K K K K K K K K ",
"K K K K K K K K K j u q.q.q.y.x.i.a 1 5 5 5 1 y i.y.w.q. .+.p S 7.K K K K K K K K K K K K K K K ",
"K K K K K K K K K j u q.} } w.w.m < 5 5 5 5 5 1 x [ } }  .+.p S K K K K K K K K K K K K K K K K ",
"K K K K K K K K K S u q.q.} B x < 5 9 9 9 9 9 5 > z B }  .+.p S K K K K K K K K K K K K K K K K ",
"K K K K K K K K K j u q.q.} d , 5 9 e e e e e 9 5 + N } *.<.p S 7.K K K K K K K K K K K K K K K ",
"K K K K K K K K K j u q.q.} x , 6 e B.B.B.B.B.e 9 > h &.<.` v F 7.J K K K K K K K K K K K K K K ",
"K K K K K K K K K j u | q.} d 3 w e V.C.C.V.V.B.e > N &.+.$ Z 7.K K K K K K K K K K K K K K K K ",
"K K K K K K K K K H A v q.q.v 3 N.V.C.C.C.t C.V.B.> v $.+.# F 7.K K K K K K K K K K K K K K K K ",
"K K K K K K K K K g.A @  .%.[ c M C.C.C.C.C.C.V.6 l ~ <.<.p F 7.K K K K K K K K K K K K K K K K ",
"K K K K K K K K K K L c Y O.r. .b M / / / / / M E *.2.2.W v J 7.K K K K K K K K K K K K K K K K ",
"K K K K K K K K K K J 0.k Y =.z.%.' n v l s s T 3.6.1.^ d P K K K K K K K K K K K K K K K K K K ",
"K K K K K K K K K K K K 8.g ~ 4.-.r.d.d.;.#.@.@.5.5. .D K 7.K K K K K K K K K K K K K K K K K K ",
"K K K K K K K K K K K K K H P B h h C h h h B [ 9.g.7.7.K K K K K K K K K K K K K K K K K K K K ",
"K K K K K K K K K K K K K K K K K 7.J 7.J K K K K K K K K K K K K K K K K K K K K K K K K K K K ",
"K K K K K K K K K K K K K K K K K K K K K K K K K K K K K K K K K K K K K K K K K K K K K K K K ",
"K K K K K K K K K K K K K K K K K K K K K K K K K K K K K K K K K K K K K K K K K K K K K K K K ",
"K K K K K K K K K K K K K K K K K K K K K K K K K K K K K K K K K K K K K K K K K K K K K K K K ",
"K K K K K K K K K K K K K K K K K K K K K K K K K K K K K K K K K K K K K K K K K K K K K K K K ",
"K K K K K K K K K K K K K K K K K K K K K K K K K K K K K K K K K K K K K K K K K K K K K K K K ",
"K K K K K K K K K K K K K K K K K K K K K K K K K K K K K K K K K K K K K K K K K K K K K K K K ",
"K K K K K K K K K K K K K K K K K K K K K K K K K K K K K K K K K K K K K K K K K K K K K K K K ",
"K K K K K K K K K K K K K K K K K K K K K K K K K K K K K K K K K K K K K K K K K K K K K K K K ",
"K K K K K K K K K K K K K K K K K K K K K K K K K K K K K K K K K K K K K K K K K K K K K K K K ",
"K K K K K K K K K K K K K K K K K K K K K K K K K K K K K K K K K K K K K K K K K K K K K K K K ",
"K K K K K K K K K K K K K K K K K K K K K K K K K K K K K K K K K K K K K K K K K K K K K K K K ",
"K K K K K K K K K K K K K K K K K K K K K K K K K K K K K K K K K K K K K K K K K K K K K K K K ",
"K K K K K K K K K K K K K K K K K K K K K K K K K K K K K K K K K K K K K K K K K K K K K K K K ",
"K K K K K K K K K K K K K K K K K K K K K K K K K K K K K K K K K K K K K K K K K K K K K K K K ",
"K K K K K K K K K K K K K K K K K K K K K K K K K K K K K K K K K K K K K K K K K K K K K K K K ",
"K K K K K K K K K K K K K K K K K K K K K K K K K K K K K K K K K K K K K K K K K K K K K K K K ",
"K K K K K K K K K K K K K K K K K K K K K K K K K K K K K K K K K K K K K K K K K K K K K K K K ",
"K K K K K K K K K K K K K K K K K K K K K K K K K K K K K K K K K K K K K K K K K K K K K K K K ",
"K K K K K K K K K K K K K K K K K K K K K K K K K K K K K K K K K K K K K K K K K K K K K K K K ",
"K K K K K K K K K K K K K K K K K K K K K K K K K K K K K K K K K K K K K K K K K K K K K K K K ",
"K K K K K K K K K K K K K K K K K K K K K K K K K K K K K K K K K K K K K K K K K K K K K K K K ",
"K K K K K K K K K K K K K K K K K K K K K K K K K K K K K K K K K K K K K K K K K K K K K K K K ",
"K K K K K K K K K K K K K K K K K K K K K K K K K K K K K K K K K K K K K K K K K K K K K K K K ",
"K K K K K K K K K K K K K K K K K K K K K K K K K K K K K K K K K K K K K K K K K K K K K K K K ",
"K K K K K K K K K K K K K K K K K K K K K K K K K K K K K K K K K K K K K K K K K K K K K K K K ",
"K K K K K K K K K K K K K K K K K K K K K K K K K K K K K K K K K K K K K K K K K K K K K K K K "
};
