/* XPM */
static char *result[] = {
/* columns rows colors chars-per-pixel */
"48 58 182 2 ",
"   c #534E30",
".  c #6C572C",
"X  c #665C3A",
"o  c #78612F",
"O  c #6F6E3D",
"+  c #7C6532",
"@  c #385677",
"#  c #525643",
"$  c #525D53",
"%  c #5C684C",
"&  c #4B605D",
"*  c #596759",
"=  c #6C6B4E",
"-  c #626C59",
";  c #56666A",
":  c #49777E",
">  c #587373",
",  c #627076",
"<  c #86794E",
"1  c #937F4B",
"2  c #578360",
"3  c #56946D",
"4  c #9A844D",
"5  c #928651",
"6  c #A79256",
"7  c #948C66",
"8  c #375881",
"9  c #355991",
"0  c #365E9C",
"q  c #3A638E",
"w  c #3C7585",
"e  c #3C7987",
"r  c #3C6594",
"t  c #376AA3",
"y  c #3B68A7",
"u  c #3765A9",
"i  c #3967AC",
"p  c #3B6AAC",
"a  c #386BB0",
"s  c #386DBD",
"d  c #3D71B2",
"f  c #416786",
"g  c #437A87",
"h  c #4E738A",
"j  c #537083",
"k  c #537984",
"l  c #446C92",
"z  c #497594",
"x  c #46749C",
"c  c #537B93",
"v  c #547C9C",
"b  c #647686",
"n  c #60798C",
"m  c #617B98",
"M  c #426FAE",
"N  c #4573A3",
"B  c #4A7DA3",
"V  c #4471AD",
"C  c #4A7AA8",
"Z  c #537AA9",
"A  c #4372B5",
"S  c #4879B5",
"D  c #4A7CBE",
"F  c #3D73C6",
"G  c #3C74CB",
"H  c #3B77D5",
"J  c #3D79D5",
"K  c #3C7BDB",
"L  c #3C7EE4",
"P  c #4174C3",
"I  c #447BCD",
"U  c #417FDC",
"Y  c #3C838F",
"T  c #49838A",
"R  c #548489",
"E  c #4A918D",
"W  c #5E8C97",
"Q  c #4B9297",
"!  c #46999F",
"~  c #519090",
"^  c #67868B",
"/  c #72938A",
"(  c #76889E",
")  c #659195",
"_  c #4DA29E",
"`  c #53AF9A",
"'  c #56B79B",
"]  c #4C80A7",
"[  c #5885A8",
"{  c #5796A4",
"}  c #5B94AD",
"|  c #4E87B0",
" . c #4E89B4",
".. c #5889B1",
"X. c #5B84BE",
"o. c #5D93B2",
"O. c #5B99B6",
"+. c #5596BC",
"@. c #778AA4",
"#. c #629CAE",
"$. c #649EB0",
"%. c #4FADA6",
"&. c #51A0A9",
"*. c #53ABAD",
"=. c #5CBDAE",
"-. c #50A6B8",
";. c #5ABBB5",
":. c #60A0BC",
">. c #5DC59E",
",. c #5CC9A5",
"<. c #5CC4B0",
"1. c #62CDA5",
"2. c #3E80E4",
"3. c #5C86C0",
"4. c #5483C8",
"5. c #4A81D5",
"6. c #4F92DF",
"7. c #599DDD",
"8. c #629AC3",
"9. c #59A4C4",
"0. c #57A1CC",
"q. c #59A4CD",
"w. c #5DACCC",
"e. c #5FBAC1",
"r. c #5EB5CA",
"t. c #5AA5D1",
"y. c #5CABD4",
"u. c #5DA7D8",
"i. c #5EADDB",
"p. c #6BAAC5",
"a. c #75AEC6",
"s. c #64BDC7",
"d. c #69B4CB",
"f. c #7BB7CC",
"g. c #63ABDA",
"h. c #62B3DC",
"j. c #67B8DC",
"k. c #78BAD7",
"l. c #4285E3",
"z. c #4689E3",
"x. c #4C8EE4",
"c. c #4D92E3",
"v. c #5196E3",
"b. c #539AE2",
"n. c #5A9AE2",
"m. c #5AA3E3",
"M. c #62ACE2",
"N. c #6AAEE4",
"B. c #63B4E5",
"V. c #6BB5E7",
"C. c #66BBE3",
"Z. c #6BBCE2",
"A. c #70B7E7",
"S. c #65C7DE",
"D. c #74C4DD",
"F. c #79C7DF",
"G. c #6DC3E6",
"H. c #6CC4EA",
"J. c #6ECBEE",
"K. c #74C5E5",
"L. c #75CCED",
"P. c #7BCFEE",
"I. c #75D0EE",
"U. c #7CD3EE",
"Y. c #6ACAF0",
"T. c #70CFF0",
"R. c #7AD5F0",
"E. c #86CAE7",
"W. c #81D4E7",
"Q. c #81D3E9",
"!. c #8AD8EE",
"~. c #98D3E3",
"^. c #8AD7F1",
"/. c #86DDF3",
"(. c #8BDBF1",
"). c #96D7F0",
"_. c #92DBF1",
"`. c #86E0F3",
"'. c #8BE3F5",
"]. c #93E4F5",
"[. c #96EAF9",
"{. c #99EEFA",
/* pixels */
"L L L L L L L L L L L L L L L L L L L L L L L L L L L L L L L L L L L L L L L L L L L L L L L L ",
"L L L L L L L L L L L L L L L L L L L L L L L L L L L L L L L L L L L L L L L L L L L L L L L L ",
"L L L L L L L L L L L L L L L L L L L L L L L L L L L L L L L L L L L L L L L L L L L L L L L L ",
"L L L L L L L L L L L L L L L L L L L L L L L L L L L L L L L L L L L L L L L L L L L L L L L L ",
"L L L L L L L L L L L L L L L 2.L L L L L L L L L L L L L L L L L L L L L L L L L L L L L L L L ",
"L L L L L L L L L L L L 2.2.z.c.z.L L L L L L L L L L L L L L L L L L L L L L L L L L L L L L L ",
"L L L L L L L L L L L L z.v.7.i.v.c.z.L L L L L L L L L L L L L L L L L L L L L L L L L L L L L ",
"L L L L L L L L L L L L z.m.J.R.H.c.l.L L L L L L L L L L L L L L L L L L L L L L L L L L L L L ",
"L L L L L L L L L L 2.c.M.H.`.[./.H.M.c.2.L L L L L L L L L L L L L L L L L L L L L L L L L L L ",
"L L L L L L L L L L L z.b.V.R.`.R.B.b.z.2.L L L L L L L L L L L L L L L L L L L L L L L L L L L ",
"L L L L L L L L L L L L x.N.G.I.A.m.l.L L K G H L L L L L L L L L L L L L L L L L L L L L L L L ",
"L L L L L L L L L 2.z.z.n.M.m.B.7.m.6.L L G 0 i K L L L L L L L L L L L L L L L L L L L L L L L ",
"L L L L L L L L 2.c.B.m.z.l.c.g.c.2.2.L K D q @ u L L L L L L L L L L L L L L L L L L L L L L L ",
"L L L L L L L L z.V.P.K.b.L 2.l.2.L L L A Z o.B u L L L L L L L L L L L L L L L L L L L L L L L ",
"L L L L L L L L 2.v.C.B.z.L G u G L L L s N k.A...M K L L L L L L L L L L L L L L L L L L L L L ",
"L L L L L L L L 2.2.c.c.L F 0 9 F 5.P u N o.E.^.$.r A I G H L L L L L L L L L L L L L L L L L L ",
"L L L L L L L L L L L L K p @ 9 p S v v o.F.].(.d.[ [ m f s L L L L L L L L L L L L L L L L L L ",
"L L L L L L L L L L L L J V [ a...z a._./.R.`.[._.).f.h 8 s L L L L L L L L L L L L L L L L L L ",
"L L L L L L L L L L 2.K a B D.!.(.!.].].T.Y.T.'.{.W.s.*.z M U L L L L L L L L L L L L L L L L L ",
"L L L L L L L L L L 2.J u ] Z.j.W.'.{.'.J.Y.J.L.U.K.d.e.=.Q a K L L L L L L L L L L L L L L L L ",
"L L L L L L L L L L L K p ] A.j.!.{.'.Q.J.Y.J.R.L.h.9.;.,.Q p K L L L L L L L L L L L L L L L L ",
"L L L L L L L L L L L J p C g.h.F.W.U.I.J.J.L.J.h.q.q.S.1.E p L L L L L L L L L L L L L L L L L ",
"L L L L L L L L L L L I Z  .0.t.t.y.C.L.I.I.L.j.q.q.q.r.;.` x G L L L L L L L L L L L L L L L L ",
"L L L L L L L L L L H p | B.i.i.u.t.t.h.L.I.L.h.t.y.i.h.r.<.Q a L L L L L L L L L L L L L L L L ",
"L L L L L L L L L L J y  .H.H.C.g.8.t.t.B.C.h.w.0.i.Z.H.S.;.Y t K L L L L L L L L L L L L L L L ",
"L L L L L L L L L L H u B w.q...; * ) Z.H.U.d.: & k +.0.9.%.Y t K L L L L L L L L L L L L L L L ",
"L L L L L L L L L L J y Y -.| , 7 < - ^ p.d./ 7 4 X ; { =.>.E t K L L L L L L L L L L L L L L L ",
"L L L L L L L L L 2.K A c W R = 4 1 . * -.} - 5 6 + % ` ,.' R B U L L L L L L L L L L L L L L L ",
"L L L L L L L L L L L D j e { * X + = ) w.O.> X o O 3 >.` T k X.L L L L L L L L L L L L L L L L ",
"L L L L L L L L L L L I x Y *.~ $ # W j.y.q.o.;   2 >.` : b @.4.L L L L L L L L L L L L L L L L ",
"L L L L L L L L L L L U D z g _ &.#.:.w.t.0.8.#.W >.` R ^ ( 3.5.L L L L L L L L L L L L L L L L ",
"L L L L L L L L L L L L U D z : w &.d. .r r 9.;.! w k n ( 3.l.L L L L L L L L L L L L L L L L L ",
"L L L L L L L L L L L L L L I V h g w f l o.v : g j m X.5.L L L L L L L L L L L L L L L L L L L ",
"L L L L L L L L L L L L L L L 2.I d r N p.~.a.Z Z 3.5.U L L L L L L L L L L L L L L L L L L L L ",
"L L L L L L L L L L L L L L L L L L 2.z.A.).E.n.L L L L L L L L L L L L L L L L L L L L L L L L ",
"L L L L L L L L L L L L L L L L L L 2.L L z.U L L L L L L L L L L L L L L L L L L L L L L L L L ",
"L L L L L L L L L L L L L L L L L L L L L L L L L L L L L L L L L L L L L L L L L L L L L L L L ",
"L L L L L L L L L L L L L L L L L L L L L L L L L L L L L L L L L L L L L L L L L L L L L L L L ",
"L L L L L L L L L L L L L L L L L L L L L L L L L L L L L L L L L L L L L L L L L L L L L L L L ",
"L L L L L L L L L L L L L L L L L L L L L L L L L L L L L L L L L L L L L L L L L L L L L L L L ",
"L L L L L L L L L L L L L L L L L L L L L L L L L L L L L L L L L L L L L L L L L L L L L L L L ",
"L L L L L L L L L L L L L L L L L L L L L L L L L L L L L L L L L L L L L L L L L L L L L L L L ",
"L L L L L L L L L L L L L L L L L L L L L L L L L L L L L L L L L L L L L L L L L L L L L L L L ",
"L L L L L L L L L L L L L L L L L L L L L L L L L L L L L L L L L L L L L L L L L L L L L L L L ",
"L L L L L L L L L L L L L L L L L L L L L L L L L L L L L L L L L L L L L L L L L L L L L L L L ",
"L L L L L L L L L L L L L L L L L L L L L L L L L L L L L L L L L L L L L L L L L L L L L L L L ",
"L L L L L L L L L L L L L L L L L L L L L L L L L L L L L L L L L L L L L L L L L L L L L L L L ",
"L L L L L L L L L L L L L L L L L L L L L L L L L L L L L L L L L L L L L L L L L L L L L L L L ",
"L L L L L L L L L L L L L L L L L L L L L L L L L L L L L L L L L L L L L L L L L L L L L L L L ",
"L L L L L L L L L L L L L L L L L L L L L L L L L L L L L L L L L L L L L L L L L L L L L L L L ",
"L L L L L L L L L L L L L L L L L L L L L L L L L L L L L L L L L L L L L L L L L L L L L L L L ",
"L L L L L L L L L L L L L L L L L L L L L L L L L L L L L L L L L L L L L L L L L L L L L L L L ",
"L L L L L L L L L L L L L L L L L L L L L L L L L L L L L L L L L L L L L L L L L L L L L L L L ",
"L L L L L L L L L L L L L L L L L L L L L L L L L L L L L L L L L L L L L L L L L L L L L L L L ",
"L L L L L L L L L L L L L L L L L L L L L L L L L L L L L L L L L L L L L L L L L L L L L L L L ",
"L L L L L L L L L L L L L L L L L L L L L L L L L L L L L L L L L L L L L L L L L L L L L L L L ",
"L L L L L L L L L L L L L L L L L L L L L L L L L L L L L L L L L L L L L L L L L L L L L L L L ",
"L L L L L L L L L L L L L L L L L L L L L L L L L L L L L L L L L L L L L L L L L L L L L L L L "
};
