/* XPM */
static char *result[] = {
/* columns rows colors chars-per-pixel */
"48 58 179 2 ",
"   c #5F532D",
".  c #595838",
"X  c #685D3A",
"o  c #736235",
"O  c #786330",
"+  c #3A5A72",
"@  c #545847",
"#  c #57654A",
"$  c #4C6159",
"%  c #5B6859",
"&  c #626849",
"*  c #7B7049",
"=  c #4D696A",
"-  c #576C63",
";  c #577961",
":  c #546D76",
">  c #49707C",
",  c #557676",
"<  c #567B78",
"1  c #896D33",
"2  c #8C7235",
"3  c #598676",
"4  c #7D836E",
"5  c #689B78",
"6  c #9B8C5C",
"7  c #AE9A61",
"8  c #B3A168",
"9  c #3D698C",
"0  c #3D7782",
"q  c #396699",
"w  c #3C6898",
"e  c #3F7390",
"r  c #3E6BA7",
"t  c #3766AE",
"y  c #3767B1",
"u  c #3C6EB7",
"i  c #3F71BA",
"p  c #477688",
"a  c #577783",
"s  c #5E7A84",
"d  c #446E95",
"f  c #4D6D92",
"g  c #44739C",
"h  c #4F779A",
"j  c #4A799D",
"k  c #537497",
"l  c #527A9C",
"z  c #677A8B",
"x  c #456FA2",
"c  c #4C7CA4",
"v  c #4B73AD",
"b  c #416FB1",
"n  c #4572B3",
"m  c #4B7CB9",
"M  c #396EC1",
"N  c #3E73C4",
"B  c #3B74CE",
"V  c #3D78D3",
"C  c #3D7BDB",
"Z  c #3C7EE4",
"A  c #4D7FC9",
"S  c #417EDC",
"D  c #407FE0",
"F  c #56858D",
"G  c #4C988E",
"H  c #559385",
"J  c #578691",
"K  c #5D8D9A",
"L  c #4A9994",
"P  c #549B9C",
"I  c #5BAC88",
"U  c #4AA29C",
"Y  c #53A996",
"T  c #5CBE98",
"R  c #5B8DA6",
"E  c #5D9AAB",
"W  c #4D85B5",
"Q  c #588EB5",
"!  c #5E91B4",
"~  c #5597B9",
"^  c #6784AC",
"/  c #708AAB",
"(  c #639FAC",
")  c #6289B9",
"_  c #629DB9",
"`  c #4CA5A1",
"'  c #54ABA6",
"]  c #4FAAB6",
"[  c #57B9B4",
"{  c #62A1BC",
"}  c #6DB6B9",
"|  c #5DCCAA",
" . c #5EC2BC",
".. c #64CABC",
"X. c #6DDCBB",
"o. c #3E80E4",
"O. c #5683C6",
"+. c #5282C9",
"@. c #5697C7",
"#. c #599BC4",
"$. c #4981D5",
"%. c #4C8ADD",
"&. c #5094DF",
"*. c #57A0CB",
"=. c #5BA4CE",
"-. c #5CAACD",
";. c #5BB4CA",
":. c #5AA5D4",
">. c #5DACD3",
",. c #59A3DD",
"<. c #5DACD9",
"1. c #68A6C6",
"2. c #73AEC7",
"3. c #74ABC9",
"4. c #63B1CC",
"5. c #64B6D8",
"6. c #63B3DC",
"7. c #6AB3DC",
"8. c #76B9D4",
"9. c #4385E4",
"0. c #4689E4",
"q. c #4A8DE3",
"w. c #4E91E4",
"e. c #5396E3",
"r. c #559AE3",
"t. c #599FE2",
"y. c #5BA4E3",
"u. c #5EAAE4",
"i. c #62ADE3",
"p. c #6DABE7",
"a. c #66A9E9",
"s. c #64B3E0",
"d. c #67BDE6",
"f. c #6ABCE3",
"g. c #76B7E6",
"h. c #7CBCE9",
"j. c #6DC7CC",
"k. c #6CD7CA",
"l. c #62CBD2",
"z. c #76C3DD",
"x. c #6BC3E6",
"c. c #6AC4EB",
"v. c #6CCCEF",
"b. c #75C4E3",
"n. c #79C6E3",
"m. c #72C6EA",
"M. c #73CDED",
"N. c #79CFEB",
"B. c #76D2EF",
"V. c #79D2EE",
"C. c #6ACAF0",
"Z. c #79CEF0",
"A. c #79D6F1",
"S. c #7ED9F2",
"D. c #818B94",
"F. c #81B9D1",
"G. c #81BDE8",
"H. c #A1D6DF",
"J. c #89C6E6",
"K. c #84CAE7",
"L. c #95CFE9",
"P. c #81D4EB",
"I. c #8AD6EA",
"U. c #9ED7EC",
"Y. c #86DCF2",
"T. c #91DEF1",
"R. c #9CDDF1",
"E. c #83E1EC",
"W. c #8CE2F4",
"Q. c #91E4F6",
"!. c #9AE7F6",
"~. c #99EDFA",
"^. c #A4E4F2",
"/. c #A9E8F3",
"(. c #B6EEF5",
"). c #BAF5F8",
"_. c #C1F9F9",
"`. c #C8F9FB",
"'. c #D4FDFC",
/* pixels */
"Z Z Z Z Z Z Z Z Z Z Z Z Z Z Z Z Z Z Z Z Z Z Z Z Z Z Z Z Z Z Z Z Z Z Z Z Z Z Z Z Z Z Z Z Z Z Z Z ",
"Z Z Z Z Z Z Z Z Z Z Z Z Z Z Z Z Z Z Z Z Z Z Z Z Z Z Z Z Z Z Z Z Z Z Z Z Z Z Z Z Z Z Z Z Z Z Z Z ",
"Z Z Z Z Z Z Z Z Z Z Z Z Z Z Z Z Z Z Z Z Z Z Z Z Z Z Z Z Z Z Z Z Z Z Z Z Z Z Z Z Z Z Z Z Z Z Z Z ",
"Z Z Z Z Z Z Z Z Z Z Z Z Z Z o.q.0.Z Z Z Z Z Z Z Z Z Z Z Z Z Z Z Z Z Z Z Z Z Z Z Z Z Z Z Z Z Z Z ",
"Z Z Z Z Z Z Z Z Z Z Z Z 9.9.0.a.e.q.9.o.Z Z Z Z Z Z Z Z Z Z Z Z Z Z Z Z Z Z Z Z Z Z Z Z Z Z Z Z ",
"Z Z Z Z Z Z Z Z Z Z Z Z 0.,.,.f.i.u.e.o.Z Z Z Z Z Z Z Z Z Z Z Z Z Z Z Z Z Z Z Z Z Z Z Z Z Z Z Z ",
"Z Z Z Z Z Z Z Z Z Z Z o.%.r.x.N.N.u.q.o.o.Z Z Z Z Z Z Z Z Z Z Z Z Z Z Z Z Z Z Z Z Z Z Z Z Z Z Z ",
"Z Z Z Z Z Z Z Z Z Z Z e.6.c.Z.p.m.M.f.t.9.Z Z Z Z Z Z Z Z Z Z Z Z Z Z Z Z Z Z Z Z Z Z Z Z Z Z Z ",
"Z Z Z Z Z Z Z Z Z Z Z 9.q.i.n.N.N.f.e.9.Z Z Z Z Z Z Z Z Z Z Z Z Z Z Z Z Z Z Z Z Z Z Z Z Z Z Z Z ",
"Z Z Z Z Z Z Z Z Z Z Z Z q.y.i.m.f.u.w.o.Z Z Z Z Z Z Z Z Z Z Z Z Z Z Z Z Z Z Z Z Z Z Z Z Z Z Z Z ",
"Z Z Z Z Z Z Z Z D q.0.Z e.t.r.s.u.e.0.o.Z Z Z Z Z Z Z Z Z Z Z Z Z Z Z Z Z Z Z Z Z Z Z Z Z Z Z Z ",
"Z Z Z Z Z Z Z Z w.i.6.q.9.D 0.i.e.o.Z Z Z Z Z Z Z Z Z Z Z Z Z Z Z Z Z Z Z Z Z Z Z Z Z Z Z Z Z Z ",
"Z Z Z Z Z Z Z 9.y.y.s.t.9.Z Z D o.Z Z Z Z Z Z Z Z Z Z Z Z Z Z Z Z Z Z Z Z Z Z Z Z Z Z Z Z Z Z Z ",
"Z Z Z Z Z Z Z Z q.<.t.9.Z Z Z Z Z Z Z Z Z Z Z Z Z Z Z Z Z Z Z Z Z Z Z Z Z Z Z Z Z Z Z Z Z Z Z Z ",
"Z Z Z Z Z Z Z Z Z 9.Z Z Z Z Z Z Z Z Z Z Z Z Z Z Z Z Z Z Z Z Z Z Z Z Z Z Z Z Z Z Z Z Z Z Z Z Z Z ",
"Z Z Z Z Z Z Z Z Z Z Z Z Z Z Z Z Z o.B y t t y t M C o.q.o.Z Z Z Z Z Z Z Z Z Z Z Z Z Z Z Z Z Z Z ",
"Z Z Z Z Z Z Z Z Z Z Z Z Z Z Z o.B i v h h l l h j m :.n.,.0.o.Z Z Z Z Z Z Z Z Z Z Z Z Z Z Z Z Z ",
"Z Z Z Z Z Z Z Z Z Z Z Z Z Z Z B x d ! K.Q.Q.Q.T.8.Q z.Q.V.y.o.Z Z Z Z Z Z Z Z Z Z Z Z Z Z Z Z Z ",
"Z Z Z Z Z Z Z Z Z Z Z Z Z C V r 1.P.Y.W.Q.P.W.Q.T.I.Q.W.B.u.9.Z Z Z Z Z Z Z Z Z Z Z Z Z Z Z Z Z ",
"Z Z Z Z Z Z Z Z Z Z Z Z o.N w 2.T.W.Q.~.S.C.B.W.!.Q.j.k.E.b.q.Z Z Z Z Z Z Z Z Z Z Z Z Z Z Z Z Z ",
"Z Z Z Z Z Z Z Z Z Z Z Z N n ! 8.Y.!.~.~.A.v.C.S.Y.b.4. .X.} m C Z Z Z Z Z Z Z Z Z Z Z Z Z Z Z Z ",
"Z Z Z Z Z Z Z Z Z Z Z o.u r =.-.8.P.T.Q.V.c.v.M.f.-.=.-.X.Y 9 V Z Z Z Z Z Z Z Z Z Z Z Z Z Z Z Z ",
"Z Z Z Z Z Z Z Z Z Z Z B n W @.=.=.=.7.b.M.v.S.f.>.:.:.-. .Y J W Z Z Z Z Z Z Z Z Z Z Z Z Z Z Z Z ",
"Z Z Z Z Z Z Z Z Z Z o.y c 4.6.<.>.:.:.6.c.M.N.f.:.*.>.5.;...' q V Z Z Z Z Z Z Z Z Z Z Z Z Z Z Z ",
"Z Z Z Z Z Z Z Z Z Z Z y c <.c.c.6.:.:.:.>.d.6.:.:.<.c.c.c.l.` q C Z Z Z Z Z Z Z Z Z Z Z Z Z Z Z ",
"Z Z Z Z Z Z Z Z Z Z Z y e *.:.*.<.f.d.d.c.B.v.f.x.6.*.*.*.[ U q C Z Z Z Z Z Z Z Z Z Z Z Z Z Z Z ",
"Z Z Z Z Z Z Z Z Z Z o.y w @.~ W a < J 1.-.x.4.K , > R ~ ] | ' 9 V Z Z Z Z Z Z Z Z Z Z Z Z Z Z Z ",
"Z Z Z Z Z Z Z Z Z Z Z y e ] Q a 4 * X , ~ >.F 4 6 X - P | T G e C Z Z Z Z Z Z Z Z Z Z Z Z Z Z Z ",
"Z Z Z Z Z Z Z Z Z Z Z u e L G # 6 7 o @ E { - 6 8 1 X I T H s ^ S Z Z Z Z Z Z Z Z Z Z Z Z Z Z Z ",
"Z Z Z Z Z Z Z Z Z Z Z +.k p L ; o 2 O @ R _ = X 1 1 & I 0 a D.Q S Z Z Z Z Z Z Z Z Z Z Z Z Z Z Z ",
"Z Z Z Z Z Z Z Z Z Z o.$.^ z p 3 # . % K #.#.) %   @ 5 < < D./ A C Z Z Z Z Z Z Z Z Z Z Z Z Z Z Z ",
"Z Z Z Z Z Z Z Z Z o.o.o.+.^ F > + > P ~ g w Q P 3 $ : z D./ O.S Z Z Z Z Z Z Z Z Z Z Z Z Z Z Z Z ",
"Z Z Z Z Z Z Z Z Z Z Z Z Z S +.h f p ( 3.d c j p p g u A $.S Z Z Z Z Z Z Z Z Z Z Z Z Z Z Z Z Z Z ",
"Z Z Z Z Z Z Z Z Z Z Z Z Z Z Z D S u Q 3.^ F.) b i C Z Z Z Z Z Z Z Z Z Z Z Z Z Z Z Z Z Z Z Z Z Z ",
"Z Z Z Z Z Z Z Z Z Z Z Z Z Z Z Z q.%.%.@.1.H.g.q.Z Z Z Z Z Z Z Z Z Z Z Z Z Z Z Z Z Z Z Z Z Z Z Z ",
"Z Z Z Z Z Z Z Z Z Z Z Z Z Z Z q.J.J.g.n.R.).U.&.Z Z Z Z Z Z Z Z Z Z Z Z Z Z Z Z Z Z Z Z Z Z Z Z ",
"Z Z Z Z Z Z Z Z Z Z Z Z Z Z Z a.^.^.L.S.S.^.G.0.Z Z Z Z Z Z Z Z Z Z Z Z Z Z Z Z Z Z Z Z Z Z Z Z ",
"Z Z Z Z Z Z Z Z Z Z Z Z Z Z Z 9.G.L.K.B.Q.^.h.0.Z Z Z Z Z Z Z Z Z Z Z Z Z Z Z Z Z Z Z Z Z Z Z Z ",
"Z Z Z Z Z Z Z Z Z Z Z Z Z Z Z Z q.e.h.R.)._.U.e.o.Z Z Z Z Z Z Z Z Z Z Z Z Z Z Z Z Z Z Z Z Z Z Z ",
"Z Z Z Z Z Z Z Z Z Z Z Z Z Z Z Z Z Z p./.`.'.(.t.o.Z Z Z Z Z Z Z Z Z Z Z Z Z Z Z Z Z Z Z Z Z Z Z ",
"Z Z Z Z Z Z Z Z Z Z Z Z Z Z Z Z Z Z q.J.(._.R.r.Z Z Z Z Z Z Z Z Z Z Z Z Z Z Z Z Z Z Z Z Z Z Z Z ",
"Z Z Z Z Z Z Z Z Z Z Z Z Z Z Z Z Z Z Z 0.a.h.t.9.Z Z Z Z Z Z Z Z Z Z Z Z Z Z Z Z Z Z Z Z Z Z Z Z ",
"Z Z Z Z Z Z Z Z Z Z Z Z Z Z Z Z Z Z Z Z Z Z Z Z Z Z Z Z Z Z Z Z Z Z Z Z Z Z Z Z Z Z Z Z Z Z Z Z ",
"Z Z Z Z Z Z Z Z Z Z Z Z Z Z Z Z Z Z Z Z Z Z Z Z Z Z Z Z Z Z Z Z Z Z Z Z Z Z Z Z Z Z Z Z Z Z Z Z ",
"Z Z Z Z Z Z Z Z Z Z Z Z Z Z Z Z Z Z Z Z Z Z Z Z Z Z Z Z Z Z Z Z Z Z Z Z Z Z Z Z Z Z Z Z Z Z Z Z ",
"Z Z Z Z Z Z Z Z Z Z Z Z Z Z Z Z Z Z Z Z Z Z Z Z Z Z Z Z Z Z Z Z Z Z Z Z Z Z Z Z Z Z Z Z Z Z Z Z ",
"Z Z Z Z Z Z Z Z Z Z Z Z Z Z Z Z Z Z Z Z Z Z Z Z Z Z Z Z Z Z Z Z Z Z Z Z Z Z Z Z Z Z Z Z Z Z Z Z ",
"Z Z Z Z Z Z Z Z Z Z Z Z Z Z Z Z Z Z Z Z Z Z Z Z Z Z Z Z Z Z Z Z Z Z Z Z Z Z Z Z Z Z Z Z Z Z Z Z ",
"Z Z Z Z Z Z Z Z Z Z Z Z Z Z Z Z Z Z Z Z Z Z Z Z Z Z Z Z Z Z Z Z Z Z Z Z Z Z Z Z Z Z Z Z Z Z Z Z ",
"Z Z Z Z Z Z Z Z Z Z Z Z Z Z Z Z Z Z Z Z Z Z Z Z Z Z Z Z Z Z Z Z Z Z Z Z Z Z Z Z Z Z Z Z Z Z Z Z ",
"Z Z Z Z Z Z Z Z Z Z Z Z Z Z Z Z Z Z Z Z Z Z Z Z Z Z Z Z Z Z Z Z Z Z Z Z Z Z Z Z Z Z Z Z Z Z Z Z ",
"Z Z Z Z Z Z Z Z Z Z Z Z Z Z Z Z Z Z Z Z Z Z Z Z Z Z Z Z Z Z Z Z Z Z Z Z Z Z Z Z Z Z Z Z Z Z Z Z ",
"Z Z Z Z Z Z Z Z Z Z Z Z Z Z Z Z Z Z Z Z Z Z Z Z Z Z Z Z Z Z Z Z Z Z Z Z Z Z Z Z Z Z Z Z Z Z Z Z ",
"Z Z Z Z Z Z Z Z Z Z Z Z Z Z Z Z Z Z Z Z Z Z Z Z Z Z Z Z Z Z Z Z Z Z Z Z Z Z Z Z Z Z Z Z Z Z Z Z ",
"Z Z Z Z Z Z Z Z Z Z Z Z Z Z Z Z Z Z Z Z Z Z Z Z Z Z Z Z Z Z Z Z Z Z Z Z Z Z Z Z Z Z Z Z Z Z Z Z ",
"Z Z Z Z Z Z Z Z Z Z Z Z Z Z Z Z Z Z Z Z Z Z Z Z Z Z Z Z Z Z Z Z Z Z Z Z Z Z Z Z Z Z Z Z Z Z Z Z ",
"Z Z Z Z Z Z Z Z Z Z Z Z Z Z Z Z Z Z Z Z Z Z Z Z Z Z Z Z Z Z Z Z Z Z Z Z Z Z Z Z Z Z Z Z Z Z Z Z ",
"Z Z Z Z Z Z Z Z Z Z Z Z Z Z Z Z Z Z Z Z Z Z Z Z Z Z Z Z Z Z Z Z Z Z Z Z Z Z Z Z Z Z Z Z Z Z Z Z "
};
