/* XPM */
static char *result[] = {
/* columns rows colors chars-per-pixel */
"48 58 194 2 ",
"   c #5A5636",
".  c #60542F",
"X  c #675A33",
"o  c #76602E",
"O  c #716736",
"+  c #3F6067",
"@  c #3E7C7E",
"#  c #575845",
"$  c #5E6049",
"%  c #48615E",
"&  c #5D6553",
"*  c #6C6443",
"=  c #766D40",
"-  c #506564",
";  c #4C6977",
":  c #506F7C",
">  c #567778",
",  c #657361",
"<  c #617973",
"1  c #886C31",
"2  c #8B7235",
"3  c #578865",
"4  c #568579",
"5  c #628571",
"6  c #669A7D",
"7  c #95814C",
"8  c #9F8B54",
"9  c #928A6E",
"0  c #B8A66D",
"q  c #355A8A",
"w  c #355C91",
"e  c #3A678D",
"r  c #3E7782",
"t  c #3D6B98",
"y  c #3764AC",
"u  c #3867B2",
"i  c #3B6BB3",
"p  c #396DBD",
"a  c #407B86",
"s  c #457689",
"d  c #577686",
"f  c #496D95",
"g  c #4E7399",
"h  c #4A799E",
"j  c #547C95",
"k  c #517A9D",
"l  c #467CAB",
"z  c #4978A8",
"x  c #5378AD",
"c  c #4574B4",
"v  c #4B77B8",
"b  c #3E78CF",
"n  c #3B77D3",
"m  c #3D79D5",
"M  c #3D7BDB",
"N  c #3C7EE4",
"B  c #457AC8",
"V  c #407FDF",
"C  c #407FE0",
"Z  c #478789",
"A  c #578986",
"S  c #4E968A",
"D  c #55998D",
"F  c #478497",
"G  c #568399",
"H  c #5A8799",
"J  c #4D9A99",
"K  c #539F92",
"L  c #61828D",
"P  c #6C8194",
"I  c #778492",
"U  c #798591",
"Y  c #56AC9B",
"T  c #4880AE",
"R  c #5886A6",
"E  c #4A94A1",
"W  c #4B87B6",
"Q  c #598EB9",
"!  c #529DB7",
"~  c #5397BB",
"^  c #6382AE",
"/  c #758BA6",
"(  c #6586B5",
")  c #6496B4",
"_  c #639CB4",
"`  c #51A1A0",
"'  c #51B0AB",
"]  c #58BAA9",
"[  c #54AEB2",
"{  c #62A0BE",
"}  c #55C1A4",
"|  c #5FC2B2",
" . c #65CDA9",
".. c #64D0AD",
"X. c #63C2BE",
"o. c #3E81E4",
"O. c #4F81CD",
"+. c #5483C7",
"@. c #5694C3",
"#. c #5699C7",
"$. c #4B82D2",
"%. c #598DD0",
"&. c #559EDB",
"*. c #57A3CC",
"=. c #5AA4CD",
"-. c #5BAACE",
";. c #5AB7C3",
":. c #5BA6D3",
">. c #5DACD5",
",. c #5CA3DD",
"<. c #5DACD8",
"1. c #61A8C7",
"2. c #63B7CE",
"3. c #60A3D3",
"4. c #63ACD3",
"5. c #63A9DB",
"6. c #64B5DD",
"7. c #6DBBDD",
"8. c #71B8DF",
"9. c #4183E3",
"0. c #4789E3",
"q. c #498CE2",
"w. c #4E92E3",
"e. c #5295E4",
"r. c #559AE3",
"t. c #5B9DE5",
"y. c #629FE4",
"u. c #57A0E4",
"i. c #5AA2E3",
"p. c #63A3E6",
"a. c #69A5E5",
"s. c #62ABE3",
"d. c #6CACE5",
"f. c #6DAEE8",
"g. c #71ADE5",
"h. c #70AFE9",
"j. c #63B3E4",
"k. c #67BAE0",
"l. c #6BBBE3",
"z. c #72B2E7",
"x. c #72BCE1",
"c. c #7CBBE5",
"v. c #74B3E9",
"b. c #7DBEE9",
"n. c #69C5DA",
"m. c #78C1DA",
"M. c #7CD2DE",
"N. c #6CC2E3",
"B. c #6BC3EA",
"V. c #6CCDED",
"C. c #76C5E6",
"Z. c #7DCBE5",
"A. c #73CCEC",
"S. c #74D1EE",
"D. c #7CD3EC",
"F. c #69CAF0",
"G. c #79CEF0",
"H. c #7AD3F0",
"J. c #7ED9F1",
"K. c #88B8D9",
"L. c #81BEE0",
"P. c #8CC9D6",
"I. c #85C6E4",
"U. c #83C4E9",
"Y. c #84CDE9",
"T. c #8BCEEB",
"R. c #93CFE3",
"E. c #82D4E6",
"W. c #81D3E9",
"Q. c #89D5ED",
"!. c #8CDAED",
"~. c #96D3EA",
"^. c #84DEF2",
"/. c #8CDDF2",
"(. c #91DEF1",
"). c #9EDDF1",
"_. c #A4DBE5",
"`. c #A2DFF2",
"'. c #87E2F2",
"]. c #8EE2F5",
"[. c #92E3F5",
"{. c #9AEAF7",
"}. c #99EDFA",
"|. c #A9E3EB",
" X c #B1E6E9",
".X c #A4E2F2",
"XX c #AAE6F4",
"oX c #ACE9F2",
"OX c #B2EEF5",
"+X c #BAF2F6",
"@X c #B7F4F8",
"#X c #C4F8F9",
"$X c #CCFBFC",
"%X c #D4FCFC",
/* pixels */
"N N N N N N N N N N N N N N N N N N N N N N N N N N N N N N N N N N N N N N N N N N N N N N N N ",
"N N N N N N N N N N N N N N N N N N N N N N N N N N N N N N N N N N N N N N N N N N N N N N N N ",
"N N N N N N N N N N N N N N N N 0.t.o.N N N N N N N N N N N N N N N N N N N N N N N N N N N N N ",
"N N N N N N N N N N N N N N w.r.t.C.r.r.q.N N N N N N N N N N N N N N N N N N N N N N N N N N N ",
"N N N N N N N N N N N N N N w.l.I.U.b.p.0.N N N N N N N N N N N N N N N N N N N N N N N N N N N ",
"N N N N N N N N N N N N N 0.e.g.c.t.L.f.q.o.N N N N N N N N N N N N N N N N N N N N N N N N N N ",
"N N N N N N N N N N N N 9.5.I.C.e.9.t.U.C.w.o.N N N N N N N N N N N N N N N N N N N N N N N N N ",
"N N N N N N N N N N N N N 0.e.f.c.p.L.a.0.o.N N N N N N N N N N N N N N N N N N N N N N N N N N ",
"N N N N N N N N N N N N N o.,.8.U.Y.v.i.0.N N N N N N N N N N N N N N N N N N N N N N N N N N N ",
"N N N N N N N N N 0.e.o.N o.w.r.a.C.w.0.o.N N N N N N N N N N N N N N N N N N N N N N N N N N N ",
"N N N N N N N N N q.r.o.N N N o.r.5.9.N N N N N N N N N N N N N N N N N N N N N N N N N N N N N ",
"N N N N N N N N N N o.N N N N N o.o.N N N N N N N N N N N N N N N N N N N N N N N N N N N N N N ",
"N N N N N N N N N N o.N N N N N N N N N N N N N N N N N o.o.o.o.o.o.9.N N N N N N N N N N N N N ",
"N N N N N N N N N N N N N N N N N N N N N N N N N N N N 0.,.r.5.5.,.&.9.N N N N N N N N N N N N ",
"N N N N N N N N N N N N N N N N N N N N N o.o.N N N N N o.r.N.D.Z.s.0.N N N N N N N N N N N N N ",
"N N N N N N N N N N N N N N N N N o.M i y y y y u n o.N 0.s.W.'.J.B.w.o.N N N N N N N N N N N N ",
"N N N N N N N N N N N N N N N N M p c k z j k h k z c b w.l.J.]./.B.r.o.N N N N N N N N N N N N ",
"N N N N N N N N N N N N N N N M c f F m.^.[.[./.I.Q f z $.i.N.D.C.t.o.o.N N N N N N N N N N N N ",
"N N N N N N N N N N N N N N M c R U.!.(.].'.J.}.[.!.T.1.E :.u.s.u.e.q.N N N N N N N N N N N N N ",
"N N N N N N N N N N N N N M t R ~.(.[.}./.V.V.J.{.{.M.X.` e B 9.9.N N N N N N N N N N N N N N N ",
"N N N N N N N N N N N N M i T :.Y.}.}.}.'.F.F.S.[.Z.2.;.' K l b N N N N N N N N N N N N N N N N ",
"N N N N N N N N N N N N m e W j.6.Z.W.[.J.V.V.H.N.<.*.-.n. .r i N N N N N N N N N N N N N N N N ",
"N N N N N N N N N N N M c z @.,.:.:.-.7.S.A.V.D.<.-.:.-.;.| J z m N N N N N N N N N N N N N N N ",
"N N N N N N N N N N N n w _ j.<.:.:.:.-.7.G.A.B.<.:.<.<.2.2.] F p N N N N N N N N N N N N N N N ",
"N N N N N N N N N N N n w *.B.B.k.:.*.-.:.k.N.<.:.:.7.B.B.n.] r i N N N N N N N N N N N N N N N ",
"N N N N N N N N N N N n w @.:.:.:.7.N.k.B.F.S.N.k.7.>.#.*.[ ] r i N N N N N N N N N N N N N N N ",
"N N N N N N N N N N N n q W @.Q R > > ! >.6.x._ > > G ~ ! [ } a i N N N N N N N N N N N N N N N ",
"N N N N N N N N N N N m w E ! j , 7 O & H -._ < 9 = $ Z } ..Y j v N N N N N N N N N N N N N N N ",
"N N N N N N N N N N N m t Z ` 4 O 0 2 . > 4.H * 0 8 O 3 } K > P O.N N N N N N N N N N N N N N N ",
"N N N N N N N N N N N V ^ : S 4   1 2   d =.H   o 1 O 3 K ; U / +.N N N N N N N N N N N N N N N ",
"N N N N N N N N N N N C ^ I d @ 3   # L ) #.#.4   X 5 6 < d / ( N N N N N N N N N N N N N N N N ",
"N N N N N N N N N N N N V / I d + % A ! l f h _ D - % g x Q $.9.N N N N N N N N N N N N N N N N ",
"N N N N N N N N N N N N N V / U f f s t T t q e : d f B N N N N N N N N N N N N N N N N N N N N ",
"N N N N N N N N N N N N N N V O.B v f ) m.P.^ h [ { %.N N N N N N N N N N N N N N N N N N N N N ",
"N N N N N N N N N N N N N N C N M B %.R.@X+XU.3./.D.i.N N N N N N N N N N N N N N N N N N N N N ",
"N N N N N N N N N N N N N N N N N 9.q.e.C.T.a.x.D.J.l.0.N N N N N N N N N N N N N N N N N N N N ",
"N N N N N N N N N N N N N N N N N e.b.e.0.r.f.oX{.D.i.o.N N N N N N N N N N N N N N N N N N N N ",
"N N N N N N N N N N N N N N N N o.e.7.q.o.p.oX%X$X`.t.N N N N N N N N N N N N N N N N N N N N N ",
"N N N N N N N N N N N N N N N 0.v.Q.N.q.9.z.+X%X%XXXp.N N N N N N N N N N N N N N N N N N N N N ",
"N N N N N N N N N N N N N N 9.g.(.[.A.u.e.c. X#X+X~.w.N N N N N N N N N N N N N N N N N N N N N ",
"N N N N N N N N N N N N N N t./.Q.E.J.m.N.8.8. X_.z.9.N N N N N N N N N N N N N N N N N N N N N ",
"N N N N N N N N N N N N N 9.t.XX+XOXD.7.d.a.y.g.K.y.9.N N N N N N N N N N N N N N N N N N N N N ",
"N N N N N N N N N N N N N N 9.a.)..XQ.(.oX|.R.v.K.K.q.N N N N N N N N N N N N N N N N N N N N N ",
"N N N N N N N N N N N N N N N o.e.h.`.#X$X$X+X|.P.k.9.N N N N N N N N N N N N N N N N N N N N N ",
"N N N N N N N N N N N N N N N N N e..X%X%X%X@X'.J.j.o.N N N N N N N N N N N N N N N N N N N N N ",
"N N N N N N N N N N N N N N N N C e..X$X%X%X@X!.H.f.9.N N N N N N N N N N N N N N N N N N N N N ",
"N N N N N N N N N N N N N N N N N 9.v.oX#X$XOXT.d.0.N N N N N N N N N N N N N N N N N N N N N N ",
"N N N N N N N N N N N N N N N N N N 9.e.f.f.t.0.o.N N N N N N N N N N N N N N N N N N N N N N N ",
"N N N N N N N N N N N N N N N N N N N N N N N N N N N N N N N N N N N N N N N N N N N N N N N N ",
"N N N N N N N N N N N N N N N N N N N N N N N N N N N N N N N N N N N N N N N N N N N N N N N N ",
"N N N N N N N N N N N N N N N N N N N N N N N N N N N N N N N N N N N N N N N N N N N N N N N N ",
"N N N N N N N N N N N N N N N N N N N N N N N N N N N N N N N N N N N N N N N N N N N N N N N N ",
"N N N N N N N N N N N N N N N N N N N N N N N N N N N N N N N N N N N N N N N N N N N N N N N N ",
"N N N N N N N N N N N N N N N N N N N N N N N N N N N N N N N N N N N N N N N N N N N N N N N N ",
"N N N N N N N N N N N N N N N N N N N N N N N N N N N N N N N N N N N N N N N N N N N N N N N N ",
"N N N N N N N N N N N N N N N N N N N N N N N N N N N N N N N N N N N N N N N N N N N N N N N N ",
"N N N N N N N N N N N N N N N N N N N N N N N N N N N N N N N N N N N N N N N N N N N N N N N N ",
"N N N N N N N N N N N N N N N N N N N N N N N N N N N N N N N N N N N N N N N N N N N N N N N N "
};
