/* XPM */
static char *result[] = {
/* columns rows colors chars-per-pixel */
"48 58 183 2 ",
"   c #52482B",
".  c #56593A",
"X  c #614E25",
"o  c #705C2F",
"O  c #695C36",
"+  c #7D642F",
"@  c #3A5670",
"#  c #3D6C7B",
"$  c #33707F",
"%  c #475B56",
"&  c #536552",
"*  c #537853",
"=  c #526868",
"-  c #5D7063",
";  c #406C7C",
":  c #526A7C",
">  c #547478",
",  c #76786E",
"<  c #836830",
"1  c #8C6E30",
"2  c #917738",
"3  c #8E7B52",
"4  c #807C6C",
"5  c #44827D",
"6  c #988651",
"7  c #B4A369",
"8  c #C6B87D",
"9  c #375B89",
"0  c #355E9A",
"q  c #336080",
"w  c #3C6B80",
"e  c #3B6590",
"r  c #3C689B",
"t  c #3764AC",
"y  c #3C78AF",
"u  c #3869B6",
"i  c #386BBA",
"p  c #477384",
"a  c #52758D",
"s  c #446694",
"d  c #4E6D92",
"f  c #44729B",
"g  c #4F7799",
"h  c #49799E",
"j  c #547C9F",
"k  c #617586",
"l  c #617E86",
"z  c #6F7E8B",
"x  c #6B7D90",
"c  c #4777A9",
"v  c #4D74AC",
"b  c #4374BB",
"n  c #376EC2",
"m  c #3C77D2",
"M  c #3D79D5",
"N  c #3C7ADB",
"B  c #3C7EE4",
"V  c #487CCA",
"C  c #417FDF",
"Z  c #44848A",
"A  c #538B82",
"S  c #59848E",
"D  c #4E958A",
"F  c #558091",
"G  c #5B8D9D",
"H  c #519697",
"J  c #7E938D",
"K  c #7D8792",
"L  c #7C8C9D",
"P  c #4FA693",
"I  c #57AD9D",
"U  c #59B09F",
"Y  c #6AA681",
"T  c #5C88A7",
"R  c #548AAC",
"E  c #558EB0",
"W  c #5B84BF",
"Q  c #548EBD",
"!  c #5897BA",
"~  c #6A89AB",
"^  c #6887B3",
"/  c #6298B7",
"(  c #51A4A4",
")  c #57BCA3",
"_  c #4FAFB2",
"`  c #5FB8BD",
"'  c #5AC6A5",
"]  c #5FD2A9",
"[  c #3F81E4",
"{  c #4E82CF",
"}  c #5583C8",
"|  c #589DC8",
" . c #4580D9",
".. c #4B89DB",
"X. c #579BDD",
"o. c #589CDD",
"O. c #57A1CC",
"+. c #59A6CC",
"@. c #5AABCD",
"#. c #59A6D2",
"$. c #5DADD2",
"%. c #5DACD9",
"&. c #5EB0D1",
"*. c #64A9C6",
"=. c #6BA9CF",
"-. c #68B3D0",
";. c #64B5DC",
":. c #6EB1DF",
">. c #6FBCDD",
",. c #76BAD6",
"<. c #71B4DF",
"1. c #4284E3",
"2. c #4689E3",
"3. c #4B8DE3",
"4. c #4E91E3",
"5. c #5295E4",
"6. c #559CE4",
"7. c #619DE3",
"8. c #57A1E2",
"9. c #5AA5E3",
"0. c #5DA9E4",
"q. c #62A2E7",
"w. c #69A7E5",
"e. c #66ABE4",
"r. c #6AABE8",
"t. c #70AEE8",
"y. c #65B5E4",
"u. c #66B8E4",
"i. c #69BDE1",
"p. c #69BFE8",
"a. c #7EBDE7",
"s. c #73B2E8",
"d. c #77B9EB",
"f. c #64C1C2",
"g. c #61CBCA",
"h. c #6CC5E5",
"j. c #69C4EC",
"k. c #6BCCEE",
"l. c #78C5E0",
"z. c #79CAE4",
"x. c #74C4E9",
"c. c #72CAEC",
"v. c #73D0EE",
"b. c #7AD3ED",
"n. c #68C9F0",
"m. c #7ACEF1",
"M. c #7CD7F0",
"N. c #7DD9F1",
"B. c #858F97",
"V. c #8BB8D6",
"C. c #80BEE7",
"Z. c #8DC8DF",
"A. c #91CFDA",
"S. c #84C4E9",
"D. c #86CDE9",
"F. c #88CFEA",
"G. c #94CEE9",
"H. c #82D5E6",
"J. c #86D5EE",
"K. c #8DDAEC",
"L. c #9ED9E6",
"P. c #93D2EC",
"I. c #84DDF4",
"U. c #91DCF0",
"Y. c #99D8F1",
"T. c #A9DFE5",
"R. c #87E2F2",
"E. c #8FE5F6",
"W. c #91E4F6",
"Q. c #98EAF9",
"!. c #9EF1FC",
"~. c #ADE2E5",
"^. c #A3E2F1",
"/. c #A9E6F1",
"(. c #A1EBF7",
"). c #ACE9F2",
"_. c #B0EEF6",
"`. c #B3F0F6",
"'. c #B9F4F7",
"]. c #BFF9FA",
"[. c #C1F6F8",
"{. c #CCFBFC",
"}. c #D6FDFC",
/* pixels */
"B B B B B B B B B B B B B B B B B B B B B B B B B B B B B B B B B B B B B B B B B B B B B B B B ",
"B B B B B B B B B B B B B B B B B B B B B B B B B B B B B B B B B B B B B B B B B B B B B B B B ",
"B B B B B B B B B B B B B B B B B B B B B B B B B B B B B B B B B B B B B B B B B B B B B B B B ",
"B B B B B B B B B B B B B B B B B B B B B B B B B B B B B B B B B B B B B B B B B B B B B B B B ",
"B B B B B B B B B B B B B B B B B B B B B B B B B B B B B B B B B B B B B B B B B B B B B B B B ",
"B B B B B B B B B B B B B B B B B B B B B B B B B B B B B B B B B B B B B B B B B B B B B B B B ",
"B B B B B B B B B B B B B B B B B B B B B B B B B B B B B B B B B B B B B B B B B B B B B B B B ",
"B B B B B B B B B B B B B B B B B B B B B B B B B B B B B B B B B B B B B B B B B B B B B B B B ",
"B B B B B B B B B B B B B B B B B B B B B B B B B B B B B B B B B B B B B B B B B B B B B B B B ",
"B B B B B B B B B B B B B B B B B B B B B B B B B B B B B B B B B B B B B B B B B B B B B B B B ",
"B B B B B B B B B B B B B B B B B B B B B B B B B B B B B B B 1.[ 1.[ [ 1.B B B B B B B B B B B ",
"B B B B B B B B B B B B B B B B B B B B B B B B B B B B B B 1.o.5.9.6.X.3.B B B B B B B B B B B ",
"B B B B B B B B B B B B B B B B B B B B B B B B B B B B B B [ 5.9.3.9.%.1.B B B B B B B B B B B ",
"B B B B B B B B B B B B B B B B B B B B B B B B B B B B B B 2.0.4.B 2.0.X.B B B B B B B B B B B ",
"B B B B B B B B B B B B B B B B B B B B [ B B B B B B B B B [ 6.y.2.9.0.1.B B B B B B B B B B B ",
"B B B B B B B B B B B B B B B B B B B N t t t t t u B B B B 1.6.0.6.8.6.2.B B B B B B B B B B B ",
"B B B B B B B B B B B B B B B B B m n y c h j j g g u i N [ 2.8.2.6.1.1.1.B B B B B B B B B B B ",
"B B B B B B B B B B B B B B B B M v r E J.U.U.W.W.S.h d b M B [ B B B B B B B B B B B B B B B B ",
"B B B B B B B B B B B B B B B V f / J.J.E.E.I.R.Q.U.J.P.S y N [ B B B B B B B B B B B B B B B B ",
"B B B B B B B B B B B B B B V 9 =.K.R.W.!.b.k.k.R.!.Q.l.-.Z 0 B B B B B B B B B B B B B B B B B ",
"B B B B B B B B B B B B B m y Q -.U.Q.!.!.v.n.n.M.W.l.@.` U G c N B B B B B B B B B B B B B B B ",
"B B B B B B B B B B B B B V e =.&.>.D.K.W.v.n.v.c.h.@.+.@.] ) $ M B B B B B B B B B B B B B B B ",
"B B B B B B B B B B B B  .R R O.#.+.+.$.c.v.k.N.x.+.#.#.#.f.) p b B B B B B B B B B B B B B B B ",
"B B B B B B B B B B B B n r %.%.%.%.#.+.#.c.k.b.>.+.#.%.%.&.f.) 9 M B B B B B B B B B B B B B B ",
"B B B B B B B B B B B B i r ;.n.j.;.%.#.O.%.p.;.#.+.@.>.j.j.g.I q M B B B B B B B B B B B B B B ",
"B B B B B B B B B B B B i e O.#.+.$.;.i.p.p.b.k.h.>.>.+.O.+._ P q M B B B B B B B B B B B B B B ",
"B B B B B B B B B B B B i e / Q Q j > F *.#.h.l.G > > R Q _ ' ) q M B B B B B B B B B B B B B B ",
"B B B B B B B B B B B B i w ! ! a 4 3 O = / ;.S , 6 o & D ] ' D d V B B B B B B B B B B B B B B ",
"B B B B B B B B B B B B V p H ( % 6 7 +   / &.= 6 8 2 o Y ' D : L C B B B B B B B B B B B B B B ",
"B B B B B B B B B B B B V x # P * o 1 < . T +.: X 1 2 O Y Z : K L C B B B B B B B B B B B B B B ",
"B B B B B B B B B B B B C L z ; A *   & G | O./ - X . 5 5 k K B.~ C B B B B B B B B B B B B B B ",
"B B B B B B B B B B B B B V L z p @ - P O.r e E ( 5 % # l K B.~ C B B B B B B B B B B B B B B B ",
"B B B B B B B B B B B B B B } L z d a p s 9 ~ R $ p k k K J ^  .B B B B B B B B B B B B B B B B ",
"B B B B B B B B B B B B B B N { ^ V v r r ^ L.Z.G s K B.^ {  .B B B B B B B B B B B B B B B B B ",
"B B B B B B B B B B B B B B B B B C V ..[ G.[._.V.W L ~  .B B B B B B B B B B B B B B B B B B B ",
"B B B B B B B B B B B B B B B B B C o.>.6.s.~.L.w.w.7.1.B B B B B B B B B B B B B B B B B B B B ",
"B B B B B B B B B B B B B B B B [ 1.9.b.^.s.s.L.).Y.5.B B B B B B B B B B B B B B B B B B B B B ",
"B B B B B B B B B B B B B B B B 8.y.c.b.b.l.J.'.}.[.D.2.B B B B B B B B B B B B B B B B B B B B ",
"B B B B B B B B B B B B B B B B 3.6.h.H.E.A.).{.}.{.).5.B B B B B B B B B B B B B B B B B B B B ",
"B B B B B B B B B B B B B B B 4.1.B %.b.'.~.~.`.'.[.G.3.B 1.1.B B B B B B B B B B B B B B B B B ",
"B B B B B B B B B B B B 1.B 1.%.s.3.o.D.[.~.G.Z.^.P.5.4.2.9.0.[ 1.B B B B B B B B B B B B B B B ",
"B B B B B B B B B B B 3.X.[ B 2.a.s.[ e./.s...7.6.2.2.>.y.u.y.3.X.1.B B B B B B B B B B B B B B ",
"B B B B B B B B B B B 1.2.[ [ B 2.7.5.6.s.7.6.Z.S.3.3.J.v.b.N.y.3.B B B B B B B B B B B B B B B ",
"B B B B B B B B B B B B B B [ 1...S.^.G.7.7.L.'.'.U.h.c.I.W.Q.b.p.6.1.B B B B B B B B B B B B B ",
"B B B B B B B B B B ..2.B B B 1.:./.[.~.<.5.a./.).S.s.>.b.W.E.c.0.5.B B B B B B B B B B B B B B ",
"B B B B B B B B B B 4.5.[ B 1.t.^.].}.'.L.d.4.s.s.5.s.<.l.b.m.7.1.B B B B B B B B B B B B B B B ",
"B B B B B B B B B B B B B B 4.^.{.}.}.}.{.'.w.B 5.S.`.L.S.l.e.1.B B B B B B B B B B B B B B B B ",
"B B B B B B B B B B B [ 1.B 5.Y.[.{.{.[.{.^.6.B C.`.{.{._.D.X.B B B B B B B B B B B B B B B B B ",
"B B B B B B B B B B B 3.o.[ 1.:.T.].).K.(.q.[ 3.G.'.{.{.).r.B B B B B B B B B B B B B B B B B B ",
"B B B B B B B B B B B [ 1.B 3.,.A./.`.K.s.2.B d.~.L.'.'.d.1.B B B B B B B B B B B B B B B B B B ",
"B B B B B B B B B B B B B B 2.D.s.w.S.w.1.1.s.K.U.P.S.r.1.B B B B B B B B B B B B B B B B B B B ",
"B B B B B B B B B B B B B B [ q.5.1.5.s.d.<.F.z.z.a.2.B B B B B B B B B B B B B B B B B B B B B ",
"B B B B B B B B B B B B B B B B B 2.G.'.`.K.x.x.u.4.2.B B B B B B B B B B B B B B B B B B B B B ",
"B B B B B B B B B B B B B B B B B t.`.{.].!.b.N.b.u.2.B B B B B B B B B B B B B B B B B B B B B ",
"B B B B B B B B B B B B B B B B B w.`.`.K.H.N.E.W.b.u.8.[ B B B B B B B B B B B B B B B B B B B ",
"B B B B B B B B B B B B B B B B B 2.S.`.K.9.j.R.I.h.6.3.[ B B B B B B B B B B B B B B B B B B B ",
"B B B B B B B B B B B B B B B B B B [ w.r.6.6.j.p.5.1.B B B B B B B B B B B B B B B B B B B B B ",
"B B B B B B B B B B B B B B B B B B B B B 8.3.8.8.B 2.B B B B B B B B B B B B B B B B B B B B B "
};
